<?xml version="1.0" encoding="UTF-8" standalone="no"?>
<svg
   width="623.96222"
   height="1015.2605"
   viewBox="60.066132 18.550842 623.96222 1015.2605"
   sodipodi:version="0.32"
   inkscape:version="1.3.2 (091e20e, 2023-11-25, custom)"
   sodipodi:docname="Strain_gauge.svg"
   version="1.0"
   id="svg1"
   xmlns:inkscape="http://www.inkscape.org/namespaces/inkscape"
   xmlns:sodipodi="http://sodipodi.sourceforge.net/DTD/sodipodi-0.dtd"
   xmlns="http://www.w3.org/2000/svg"
   xmlns:svg="http://www.w3.org/2000/svg"
   xmlns:rdf="http://www.w3.org/1999/02/22-rdf-syntax-ns#"
   xmlns:cc="http://creativecommons.org/ns#"
   xmlns:dc="http://purl.org/dc/elements/1.1/">
  <defs
     id="defs1" />
  <sodipodi:namedview
     id="namedview1"
     pagecolor="#ffffff"
     bordercolor="#000000"
     borderopacity="0.25"
     inkscape:showpageshadow="2"
     inkscape:pageopacity="0.0"
     inkscape:pagecheckerboard="0"
     inkscape:deskcolor="#d1d1d1"
     inkscape:zoom="0.6129008"
     inkscape:cx="305.92227"
     inkscape:cy="541.68636"
     inkscape:window-width="1920"
     inkscape:window-height="1051"
     inkscape:window-x="-9"
     inkscape:window-y="-9"
     inkscape:window-maximized="1"
     inkscape:current-layer="g3348" />
  <metadata
     id="metadata1">
    <rdf:RDF>
      <cc:Work
         rdf:about="">
        <dc:format>image/svg+xml</dc:format>
        <dc:type
           rdf:resource="http://purl.org/dc/dcmitype/StillImage" />
        <dc:title>unidirectional strain gauge</dc:title>
        <dc:date>April 2006</dc:date>
        <dc:creator>
          <cc:Agent>
            <dc:title>Mr Stephen</dc:title>
          </cc:Agent>
        </dc:creator>
        <cc:license
           rdf:resource="http://creativecommons.org/licenses/by-sa/2.0/" />
        <dc:description>A general purpose sketch of a strain gauge.  Created using Inkscape.</dc:description>
      </cc:Work>
      <cc:License
         rdf:about="http://creativecommons.org/licenses/by-sa/2.0/">
        <cc:permits
           rdf:resource="http://web.resource.org/cc/Reproduction" />
        <cc:permits
           rdf:resource="http://web.resource.org/cc/Distribution" />
        <cc:requires
           rdf:resource="http://web.resource.org/cc/Notice" />
        <cc:requires
           rdf:resource="http://web.resource.org/cc/Attribution" />
        <cc:permits
           rdf:resource="http://web.resource.org/cc/DerivativeWorks" />
        <cc:requires
           rdf:resource="http://web.resource.org/cc/ShareAlike" />
      </cc:License>
    </rdf:RDF>
  </metadata>
  <g
     inkscape:label="Layer 1"
     inkscape:groupmode="layer"
     id="layer1">
    <g
       id="g3348"
       transform="matrix(5.155228,0,0,5.155228,60.06689,-4391.356)">
      <path
         id="rect9166"
         d="M 29.111022,879.42454 C 29.111084,879.42742 29.110642,879.4523 29.111017,879.45578 C 29.108226,879.45571 29.083106,879.456 29.079772,879.45579 C 29.074377,879.46125 29.053785,879.48136 29.048522,879.48704 C 29.041482,879.48709 29.018979,879.4872 29.01727,879.48703 C 29.013569,879.49008 28.989567,879.51506 28.98602,879.51828 C 28.979819,879.5244 28.958811,879.54542 28.95477,879.54953 C 28.946319,879.56572 28.928246,879.60219 28.923522,879.61204 C 28.923716,879.61536 28.923452,879.64049 28.923517,879.64328 C 28.917553,879.65398 28.897698,879.69489 28.892269,879.70578 C 28.892008,879.71091 28.892271,879.73184 28.892271,879.73703 L 28.892269,1028.0496 C 28.892271,1028.0548 28.892009,1028.0757 28.892268,1028.0808 C 28.897699,1028.0917 28.917554,1028.1326 28.923517,1028.1433 C 28.923457,1028.1461 28.923715,1028.1712 28.923515,1028.1746 C 28.928248,1028.1844 28.946323,1028.2209 28.954771,1028.2371 C 28.958809,1028.2412 28.979822,1028.2622 28.986015,1028.2683 C 28.989569,1028.2715 29.013571,1028.2965 29.017265,1028.2996 C 29.022564,1028.3052 29.043092,1028.3254 29.048517,1028.3308 C 29.051885,1028.3305 29.076966,1028.3309 29.079769,1028.3308 C 29.083108,1028.3306 29.108223,1028.3309 29.111021,1028.3308 C 29.116566,1028.3366 29.136691,1028.3563 29.142271,1028.3621 C 29.148825,1028.3619 29.170988,1028.3618 29.173516,1028.3621 C 29.178646,1028.3623 29.199576,1028.3621 29.204768,1028.3621 L 33.236022,1028.3621 C 33.241214,1028.3621 33.262143,1028.3623 33.267267,1028.3621 C 33.269798,1028.3618 33.29196,1028.3619 33.298519,1028.3621 L 33.329771,1028.3621 L 53.267256,1028.3621 L 53.267272,984.42454 L 43.04852,984.42453 L 42.861022,984.42454 L 41.423519,984.42453 L 41.236021,984.42453 C 37.231392,983.9834 34.01889,980.79511 33.548516,976.79953 C 33.54041,976.73064 33.554999,976.65015 33.548515,976.58078 L 33.548518,975.01828 C 33.551444,974.98731 33.545494,974.95492 33.548519,974.92453 L 33.548515,886.36203 L 35.361022,886.36204 L 35.361019,967.20578 C 35.361212,967.20911 35.360956,967.23424 35.361021,967.23703 C 35.361159,967.24033 35.360967,967.2655 35.361016,967.26828 C 35.361174,967.27484 35.361274,967.29701 35.361018,967.29953 C 35.360763,967.30466 35.36102,967.32559 35.36102,967.33078 L 35.361019,967.64328 L 35.361021,973.67453 C 35.361151,973.67711 35.361117,973.69924 35.361016,973.70578 C 35.360977,973.70856 35.361127,973.73374 35.361018,973.73703 C 35.360956,973.73982 35.361213,973.76495 35.36102,973.76828 C 35.366724,973.77388 35.386508,973.79396 35.392267,973.79953 C 35.392184,973.80234 35.392568,973.8274 35.392269,973.83078 C 35.39768,973.83623 35.417931,973.85673 35.423516,973.86203 C 35.42691,973.86542 35.451219,973.89006 35.45477,973.89328 C 35.460364,973.89899 35.480389,973.91887 35.486017,973.92453 C 35.4894,973.92423 35.514464,973.92462 35.517269,973.92453 C 35.522829,973.9303 35.542933,973.95006 35.548517,973.95578 C 35.551827,973.95561 35.57698,973.95584 35.579769,973.95578 C 35.583059,973.95567 35.608238,973.95582 35.611021,973.95578 C 35.617558,973.95568 35.639705,973.95565 35.642265,973.95578 L 38.548516,973.95578 C 38.553715,973.95578 38.574642,973.95604 38.579768,973.95578 C 38.582295,973.95553 38.604462,973.95562 38.611021,973.95578 C 38.613805,973.95584 38.638955,973.95561 38.642266,973.95578 C 38.647856,973.95006 38.667956,973.9303 38.673516,973.92453 C 38.676319,973.92461 38.701402,973.92426 38.704768,973.92453 C 38.7104,973.91887 38.730421,973.89899 38.736017,973.89328 C 38.739564,973.89006 38.763878,973.86542 38.767267,973.86203 C 38.769556,973.85926 38.790041,973.83924 38.798517,973.83078 C 38.804193,973.82552 38.824294,973.80492 38.829768,973.79953 C 38.829522,973.79618 38.829846,973.77108 38.829766,973.76828 C 38.829572,973.76495 38.829828,973.73982 38.829771,973.73703 C 38.835606,973.73149 38.855247,973.71135 38.86102,973.70578 C 38.860926,973.69925 38.860892,973.6771 38.861018,973.67453 L 38.861018,967.33078 C 38.861018,967.32559 38.861274,967.30466 38.861016,967.29953 C 38.860762,967.29701 38.860857,967.27484 38.86102,967.26828 L 38.861019,886.36203 L 40.048519,886.36203 L 40.048517,967.20578 C 40.048717,967.20912 40.048454,967.23424 40.048519,967.23703 C 40.048657,967.24033 40.048472,967.2655 40.048521,967.26828 C 40.048678,967.27484 40.048772,967.29701 40.048516,967.29953 C 40.048261,967.30466 40.048518,967.32559 40.048518,967.33078 L 40.048517,967.64328 L 40.048519,973.67453 C 40.048649,973.6771 40.048615,973.69924 40.048521,973.70578 C 40.048475,973.70856 40.048625,973.73374 40.048516,973.73703 C 40.048454,973.73982 40.048711,973.76495 40.048518,973.76828 C 40.054229,973.77388 40.074006,973.79396 40.079772,973.79954 C 40.079682,973.80234 40.080065,973.8274 40.079767,973.83078 C 40.085178,973.83623 40.105429,973.85672 40.111021,973.86203 C 40.114408,973.86542 40.138717,973.89006 40.142268,973.89328 C 40.147869,973.89899 40.167887,973.91887 40.173515,973.92453 C 40.176898,973.92423 40.201962,973.92462 40.204767,973.92453 C 40.210327,973.9303 40.23043,973.95006 40.236021,973.95578 C 40.239332,973.95561 40.264478,973.95584 40.267266,973.95578 C 40.270557,973.95567 40.295736,973.95582 40.298518,973.95578 C 40.305056,973.95568 40.327204,973.95565 40.32977,973.95578 L 43.236021,973.95578 C 43.241213,973.95578 43.26214,973.95604 43.267266,973.95578 C 43.269794,973.95553 43.29196,973.95562 43.298519,973.95578 C 43.301303,973.95584 43.32646,973.95562 43.329771,973.95578 C 43.335361,973.95007 43.355453,973.9303 43.36102,973.92453 C 43.363824,973.92461 43.3889,973.92426 43.392265,973.92453 C 43.397897,973.91887 43.417919,973.89899 43.423515,973.89328 C 43.427069,973.89006 43.451383,973.86543 43.454765,973.86203 C 43.457055,973.85926 43.477539,973.83924 43.486015,973.83078 C 43.494534,973.81462 43.513011,973.77838 43.517271,973.76828 C 43.51707,973.76495 43.517333,973.73982 43.517268,973.73703 C 43.523104,973.73149 43.542745,973.71134 43.548518,973.70578 C 43.548424,973.69924 43.54839,973.6771 43.548516,973.67453 L 43.548515,967.33078 C 43.548515,967.32559 43.548779,967.30466 43.54852,967.29953 C 43.548267,967.29702 43.548363,967.27484 43.548518,967.26828 L 43.548517,886.36203 L 44.736017,886.36203 L 44.736021,967.20579 C 44.736215,967.20911 44.735959,967.23424 44.736016,967.23703 C 44.736154,967.24033 44.73597,967.2655 44.736019,967.26828 C 44.736176,967.27484 44.736277,967.29702 44.736021,967.29953 C 44.735759,967.30466 44.736016,967.32559 44.736016,967.33078 L 44.736022,967.64329 L 44.736016,973.67453 C 44.736147,973.6771 44.736113,973.69924 44.736019,973.70578 C 44.73598,973.70856 44.73613,973.73374 44.736021,973.73703 C 44.735959,973.73983 44.736216,973.76495 44.736016,973.76828 C 44.741727,973.77388 44.76151,973.79396 44.76727,973.79953 C 44.767179,973.80234 44.76757,973.8274 44.767272,973.83079 C 44.772676,973.83623 44.792927,973.85672 44.798519,973.86203 C 44.801905,973.86542 44.826222,973.89006 44.829766,973.89328 C 44.835366,973.89899 44.855385,973.91887 44.86102,973.92453 C 44.864403,973.92423 44.889459,973.92462 44.892265,973.92453 C 44.897832,973.9303 44.917928,973.95006 44.923519,973.95578 C 44.92683,973.95561 44.951983,973.95584 44.954771,973.95578 C 44.958055,973.95567 44.983241,973.95583 44.986016,973.95578 C 44.99256,973.95568 45.014708,973.95565 45.017268,973.95578 L 47.923519,973.95578 C 47.928711,973.95578 47.949645,973.95605 47.954771,973.95578 C 47.957298,973.95553 47.979458,973.95562 47.986016,973.95578 C 47.988808,973.95584 48.013958,973.95561 48.017268,973.95578 C 48.022859,973.95006 48.042958,973.9303 48.048518,973.92453 C 48.051322,973.92461 48.076404,973.92426 48.07977,973.92453 C 48.085402,973.91887 48.105423,973.89899 48.11102,973.89328 C 48.114567,973.89006 48.138881,973.86542 48.14227,973.86203 C 48.14456,973.85926 48.165044,973.83925 48.17352,973.83078 C 48.182031,973.81462 48.200509,973.77838 48.204768,973.76828 C 48.204575,973.76495 48.204831,973.73982 48.204766,973.73703 C 48.210602,973.73149 48.230243,973.71134 48.236016,973.70578 C 48.235922,973.69924 48.235888,973.6771 48.236021,973.67453 L 48.23602,967.33078 C 48.23602,967.32559 48.236276,967.30466 48.236018,967.29953 C 48.235764,967.29701 48.235861,967.27484 48.236016,967.26828 L 48.236022,886.36204 L 49.423521,886.36204 L 49.423519,967.20578 C 49.423713,967.20911 49.423457,967.23424 49.423521,967.23704 C 49.423659,967.24033 49.423468,967.2655 49.423516,967.26828 C 49.423674,967.27484 49.423775,967.29701 49.423519,967.29953 C 49.423264,967.30467 49.423521,967.32559 49.423521,967.33078 L 49.42352,967.64328 L 49.423521,973.67454 C 49.423644,973.6771 49.423618,973.69924 49.423516,973.70578 C 49.423478,973.70856 49.423627,973.73374 49.423519,973.73703 C 49.423457,973.73982 49.423714,973.76495 49.423521,973.76828 C 49.429225,973.77388 49.449008,973.79396 49.454768,973.79953 C 49.454684,973.80234 49.455068,973.8274 49.45477,973.83078 C 49.460181,973.83623 49.480424,973.85672 49.486017,973.86203 C 49.48941,973.86543 49.51372,973.89006 49.517271,973.89328 C 49.522864,973.89899 49.542889,973.91887 49.548518,973.92453 C 49.551901,973.92423 49.576964,973.92462 49.57977,973.92453 C 49.58533,973.9303 49.605433,973.95007 49.611017,973.95578 C 49.614328,973.95561 49.639481,973.95584 49.642269,973.95578 C 49.64556,973.95567 49.670739,973.95582 49.673521,973.95578 C 49.680058,973.95568 49.702206,973.95565 49.704766,973.95578 L 52.611017,973.95578 C 52.616216,973.95579 52.637143,973.95604 52.642269,973.95578 C 52.644796,973.95553 52.666963,973.95563 52.673521,973.95578 C 52.676306,973.95584 52.701456,973.95561 52.704766,973.95578 C 52.710357,973.95006 52.730456,973.9303 52.736016,973.92453 C 52.73882,973.92461 52.763902,973.92426 52.767268,973.92453 C 52.7729,973.91887 52.792921,973.89899 52.798518,973.89328 C 52.802065,973.89006 52.826379,973.86542 52.829768,973.86203 C 52.832057,973.85926 52.852542,973.83924 52.861018,973.83078 C 52.869529,973.81462 52.888007,973.77838 52.892266,973.76828 C 52.892072,973.76495 52.892329,973.73982 52.892271,973.73703 C 52.898107,973.7315 52.91774,973.71134 52.923521,973.70578 C 52.92342,973.69924 52.923393,973.6771 52.923519,973.67453 L 52.923518,967.33078 C 52.923518,967.32559 52.923774,967.30466 52.923516,967.29953 C 52.923262,967.29701 52.923358,967.27484 52.923521,967.26828 L 52.923522,886.36203 L 54.111023,886.36203 L 54.111017,967.20578 C 54.111218,967.20912 54.110955,967.23424 54.111019,967.23703 C 54.111157,967.24033 54.110973,967.26551 54.111021,967.26829 C 54.111179,967.27484 54.111272,967.29701 54.111016,967.29953 C 54.110762,967.30466 54.111018,967.32559 54.111018,967.33078 L 54.111018,967.64328 L 54.111019,973.67453 C 54.111149,973.6771 54.111115,973.69924 54.111021,973.70579 C 54.110975,973.70856 54.111125,973.73374 54.111016,973.73703 C 54.110955,973.73982 54.111212,973.76495 54.111018,973.76828 C 54.11673,973.77388 54.136506,973.79396 54.142266,973.79953 C 54.142182,973.80234 54.142566,973.8274 54.142268,973.83078 C 54.147678,973.83623 54.167929,973.85672 54.173522,973.86204 C 54.176908,973.86542 54.201218,973.89006 54.204769,973.89328 C 54.210369,973.899 54.230387,973.91887 54.236016,973.92453 C 54.239399,973.92423 54.264462,973.92462 54.267268,973.92453 C 54.272828,973.9303 54.292931,973.95006 54.298522,973.95579 C 54.301833,973.95561 54.326979,973.95584 54.329767,973.95578 C 54.333058,973.95567 54.358237,973.95582 54.361019,973.95578 C 54.367557,973.95568 54.389703,973.95565 54.392271,973.95578 L 57.298521,973.95579 C 57.303714,973.95578 57.324641,973.95604 57.329767,973.95578 C 57.332294,973.95553 57.354461,973.95562 57.361019,973.95578 C 57.363804,973.95584 57.388953,973.95561 57.392271,973.95578 C 57.397854,973.95006 57.417954,973.9303 57.423521,973.92453 C 57.426325,973.92462 57.4514,973.92426 57.454766,973.92453 C 57.460398,973.91887 57.480419,973.89899 57.486016,973.89328 C 57.48957,973.89006 57.513877,973.86542 57.517266,973.86203 C 57.519555,973.85926 57.54004,973.83924 57.548516,973.83078 C 57.557034,973.81462 57.575511,973.77838 57.579771,973.76828 C 57.57957,973.76495 57.579834,973.73982 57.579769,973.73703 C 57.585605,973.73149 57.605245,973.71134 57.611019,973.70578 C 57.610925,973.69924 57.610891,973.6771 57.611017,973.67453 L 57.611016,967.33078 C 57.611016,967.32559 57.611279,967.30466 57.611021,967.29953 C 57.61076,967.29701 57.610863,967.27484 57.611019,967.26828 L 57.611018,886.36203 L 58.798519,886.36203 L 58.798515,967.20578 C 58.798716,967.20911 58.798453,967.23424 58.798517,967.23703 C 58.798655,967.24033 58.79847,967.2655 58.798519,967.26828 C 58.798677,967.27484 58.79877,967.29701 58.798521,967.29953 C 58.79826,967.30466 58.798516,967.32559 58.798516,967.33078 L 58.798516,967.64328 L 58.798517,973.67453 C 58.798647,973.6771 58.798613,973.69924 58.798519,973.70578 C 58.79848,973.70857 58.79863,973.73374 58.798521,973.73704 C 58.798453,973.73982 58.798716,973.76495 58.798516,973.76828 C 58.804228,973.77388 58.824011,973.79397 58.82977,973.79953 C 58.82968,973.80234 58.830071,973.8274 58.829765,973.83078 C 58.835176,973.83623 58.855427,973.85672 58.86102,973.86203 C 58.864406,973.86542 58.888723,973.89006 58.892267,973.89328 C 58.897867,973.89899 58.917885,973.91887 58.923521,973.92453 C 58.926904,973.92423 58.95196,973.92462 58.954766,973.92453 C 58.960333,973.9303 58.980429,973.95006 58.98602,973.95578 C 58.98933,973.95561 59.014484,973.95584 59.017272,973.95579 C 59.020556,973.95567 59.045735,973.95582 59.048517,973.95578 C 59.055062,973.95568 59.077209,973.95566 59.079769,973.95578 L 61.98602,973.95578 C 61.991209,973.95578 62.012137,973.95604 62.017272,973.95578 C 62.019788,973.95553 62.041958,973.95562 62.048517,973.95578 C 62.05131,973.95584 62.076459,973.95561 62.079769,973.95578 C 62.08536,973.95006 62.10546,973.9303 62.111019,973.92453 C 62.113821,973.92461 62.138897,973.92426 62.142271,973.92453 C 62.147902,973.91888 62.167915,973.89899 62.173521,973.89328 C 62.181756,973.88522 62.199681,973.86712 62.204771,973.86203 C 62.20706,973.85926 62.227537,973.83924 62.236021,973.83078 C 62.24453,973.81462 62.263009,973.77838 62.267269,973.76828 C 62.267066,973.76495 62.26733,973.73982 62.267267,973.73703 C 62.2731,973.73149 62.292746,973.71134 62.298517,973.70578 C 62.298421,973.69924 62.298388,973.6771 62.298522,973.67454 L 62.298521,967.33078 C 62.298521,967.32559 62.298778,967.30466 62.298519,967.29953 C 62.298268,967.29701 62.29836,967.27484 62.298517,967.26828 L 62.298514,886.36203 L 63.486015,886.36203 L 63.48602,967.20578 C 63.486216,967.20911 63.485959,967.23424 63.486022,967.23704 C 63.486161,967.24033 63.485968,967.2655 63.486017,967.26828 C 63.486176,967.27484 63.486278,967.29701 63.486019,967.29953 C 63.485757,967.30466 63.486021,967.32559 63.486021,967.33078 L 63.48602,967.64328 L 63.486015,973.67453 C 63.486146,973.6771 63.48612,973.69924 63.486017,973.70578 C 63.485979,973.70856 63.486128,973.73374 63.486019,973.73703 C 63.485959,973.73982 63.486216,973.76495 63.486021,973.76828 C 63.491726,973.77388 63.51151,973.79396 63.517268,973.79953 C 63.517176,973.80234 63.517569,973.8274 63.51727,973.83078 C 63.522681,973.83623 63.542926,973.85672 63.548517,973.86203 C 63.551912,973.86543 63.57622,973.89006 63.579772,973.89329 C 63.585366,973.89899 63.605391,973.91887 63.611019,973.92453 C 63.6144,973.92423 63.639456,973.92462 63.642271,973.92453 C 63.64783,973.9303 63.667926,973.95006 63.673518,973.95578 C 63.676828,973.95561 63.70198,973.95584 63.70477,973.95578 C 63.708061,973.95567 63.73324,973.95582 63.736022,973.95579 C 63.74256,973.95568 63.764708,973.95565 63.767267,973.95578 L 66.673518,973.95578 C 66.678707,973.95578 66.699642,973.95605 66.70477,973.95578 C 66.707286,973.95553 66.729456,973.95562 66.736022,973.95578 C 66.738808,973.95584 66.763958,973.95561 66.767267,973.95578 C 66.772858,973.95006 66.792957,973.9303 66.798517,973.92453 C 66.801319,973.92461 66.826401,973.92426 66.829769,973.92453 C 66.835399,973.91887 66.85542,973.89899 66.861019,973.89328 C 66.869261,973.88522 66.887179,973.86712 66.892268,973.86203 C 66.894558,973.85926 66.915041,973.83925 66.923519,973.83078 C 66.932028,973.81462 66.950507,973.77838 66.954767,973.76828 C 66.954571,973.76495 66.954828,973.73982 66.954772,973.73704 C 66.960598,973.73149 66.980251,973.71134 66.986022,973.70579 C 66.985918,973.69924 66.985886,973.6771 66.986019,973.67453 L 66.986019,967.33078 C 66.986019,967.32559 66.986275,967.30466 66.986017,967.29953 C 66.985761,967.29701 66.985858,967.27484 66.986022,967.26829 L 66.986024,886.36203 L 68.173518,886.36204 L 68.173518,967.20578 C 68.173721,967.20911 68.173457,967.23424 68.17352,967.23703 C 68.173658,967.24033 68.173466,967.2655 68.173522,967.26829 C 68.173681,967.27484 68.173776,967.29701 68.173517,967.29953 C 68.173262,967.30466 68.173519,967.32559 68.173519,967.33078 L 68.173518,967.64328 L 68.17352,973.67453 C 68.173651,973.6771 68.173618,973.69924 68.173522,973.70579 C 68.173477,973.70856 68.173627,973.73374 68.173517,973.73703 C 68.173457,973.73982 68.173721,973.76496 68.173519,973.76828 C 68.179231,973.77388 68.199007,973.79396 68.204766,973.79953 C 68.204681,973.80234 68.205067,973.8274 68.204768,973.83078 C 68.210179,973.83623 68.230431,973.85672 68.236015,973.86203 C 68.239409,973.86542 68.263718,973.89006 68.267269,973.89328 C 68.272871,973.89899 68.292889,973.91887 68.298516,973.92453 C 68.301898,973.92423 68.326961,973.92462 68.329768,973.92453 C 68.335328,973.9303 68.355431,973.95006 68.361015,973.95578 C 68.364325,973.95561 68.389478,973.95584 68.392267,973.95578 C 68.395559,973.95567 68.420738,973.95582 68.423519,973.95578 C 68.430057,973.95568 68.452206,973.95565 68.454772,973.95578 L 71.361016,973.95578 C 71.366205,973.95578 71.38714,973.95604 71.392268,973.95578 C 71.394791,973.95553 71.416961,973.95562 71.42352,973.95578 C 71.426306,973.95584 71.451462,973.95562 71.454772,973.95578 C 71.460356,973.95006 71.480456,973.9303 71.486022,973.92453 C 71.488817,973.92461 71.513899,973.92426 71.517266,973.92453 C 71.522897,973.91887 71.542918,973.89899 71.548516,973.89328 C 71.556758,973.88522 71.574689,973.86712 71.579766,973.86203 C 71.582056,973.85926 71.602539,973.83924 71.611017,973.83078 C 71.619526,973.81462 71.638012,973.77839 71.642272,973.76828 C 71.642069,973.76495 71.642326,973.73982 71.64227,973.73703 C 71.648096,973.73149 71.667749,973.71134 71.673519,973.70578 C 71.673416,973.69924 71.673391,973.6771 71.673517,973.67453 L 71.673517,967.33078 C 71.673517,967.32559 71.67378,967.30466 71.673522,967.29953 C 71.673271,967.29701 71.673355,967.27484 71.673519,967.26828 L 71.673519,886.36203 L 72.86102,886.36203 L 72.861016,967.20578 C 72.861218,967.20911 72.860962,967.23424 72.861018,967.23703 C 72.861156,967.24033 72.860971,967.2655 72.86102,967.26828 C 72.861179,967.27484 72.861281,967.29701 72.861022,967.29954 C 72.860759,967.30466 72.861017,967.32559 72.861017,967.33078 L 72.861016,967.64328 L 72.861018,973.67453 C 72.861148,973.6771 72.861116,973.69924 72.86102,973.70578 C 72.860981,973.70857 72.861131,973.73374 72.861022,973.73704 C 72.860962,973.73983 72.861219,973.76495 72.861017,973.76828 C 72.866729,973.77388 72.886505,973.79396 72.892271,973.79953 C 72.892179,973.80234 72.892571,973.82741 72.892266,973.83078 C 72.897677,973.83623 72.917928,973.85672 72.92352,973.86203 C 72.926907,973.86542 72.951215,973.89006 72.954767,973.89328 C 72.960369,973.89899 72.980386,973.91887 72.986021,973.92453 C 72.989396,973.92423 73.014459,973.92462 73.017266,973.92453 C 73.022826,973.9303 73.042929,973.95006 73.04852,973.95578 C 73.05183,973.95561 73.076976,973.95584 73.079765,973.95578 C 73.083057,973.95567 73.108236,973.95582 73.111017,973.95578 C 73.117562,973.95569 73.139699,973.95565 73.14227,973.95578 L 76.048521,973.95578 C 76.053711,973.95578 76.074638,973.95604 76.079766,973.95578 C 76.082288,973.95553 76.104458,973.95562 76.111018,973.95578 C 76.113811,973.95584 76.13896,973.95561 76.14227,973.95578 C 76.147861,973.95006 76.167961,973.9303 76.173519,973.92453 C 76.176322,973.92462 76.201397,973.92426 76.204771,973.92453 C 76.210395,973.91887 76.230416,973.89899 76.236021,973.89329 C 76.244256,973.88522 76.262181,973.86712 76.267272,973.86203 C 76.269561,973.85926 76.290037,973.83924 76.298522,973.83078 C 76.307031,973.81462 76.32551,973.77838 76.329769,973.76828 C 76.329567,973.76495 76.329831,973.73982 76.329767,973.73703 C 76.335601,973.73149 76.355247,973.71134 76.361017,973.70578 C 76.360921,973.69924 76.360889,973.6771 76.361015,973.67453 L 76.361021,967.33078 C 76.361021,967.32559 76.361278,967.30466 76.361019,967.29953 C 76.360768,967.29701 76.36086,967.27484 76.361017,967.26828 L 76.361015,886.36203 L 77.548516,886.36203 L 77.548521,967.20578 C 77.548716,967.20911 77.54846,967.23424 77.548515,967.23703 C 77.548661,967.24033 77.548469,967.2655 77.548518,967.26828 C 77.548677,967.27484 77.548766,967.29701 77.54852,967.29953 C 77.548257,967.30466 77.548522,967.3256 77.548522,967.33079 L 77.548521,967.64328 L 77.548516,973.67453 C 77.548646,973.6771 77.548621,973.69924 77.548518,973.70578 C 77.548479,973.70856 77.548629,973.73374 77.54852,973.73703 C 77.54846,973.73982 77.548717,973.76495 77.548522,973.76829 C 77.554227,973.77388 77.57401,973.79396 77.579769,973.79953 C 77.579677,973.80234 77.580069,973.8274 77.579771,973.83078 C 77.585182,973.83624 77.605426,973.85672 77.611018,973.86203 C 77.614405,973.86542 77.63872,973.89006 77.642265,973.89328 C 77.647867,973.89899 77.667891,973.91888 77.673519,973.92453 C 77.676901,973.92423 77.701957,973.92462 77.704771,973.92453 C 77.71033,973.9303 77.730426,973.95006 77.736018,973.95578 C 77.739328,973.95561 77.764481,973.95584 77.76727,973.95578 C 77.770562,973.95567 77.79574,973.95582 77.798516,973.95578 C 77.80506,973.95568 77.827209,973.95565 77.829768,973.95578 L 80.736018,973.95578 C 80.741209,973.95578 80.762135,973.95604 80.76727,973.95578 C 80.769799,973.95553 80.791956,973.95562 80.798515,973.95578 C 80.801308,973.95584 80.826458,973.95561 80.829767,973.95578 C 80.835358,973.95006 80.855459,973.9303 80.861017,973.92453 C 80.863819,973.92461 80.888902,973.92427 80.892269,973.92453 C 80.8979,973.91887 80.917921,973.89899 80.923519,973.89328 C 80.931761,973.88522 80.949679,973.86712 80.95477,973.86203 C 80.957059,973.85926 80.977535,973.83924 80.98602,973.83078 C 80.994529,973.81462 81.013008,973.77838 81.017267,973.76828 C 81.017071,973.76496 81.017329,973.73982 81.017265,973.73703 C 81.023099,973.73149 81.042751,973.71134 81.048515,973.70578 C 81.048419,973.69924 81.048386,973.6771 81.04852,973.67453 L 81.048519,967.33078 C 81.048519,967.32559 81.048776,967.30466 81.048517,967.29953 C 81.048261,967.29701 81.048358,967.27484 81.048515,967.26828 L 81.048518,886.36204 L 82.236019,886.36204 L 82.236019,967.20578 C 82.236221,967.20912 82.235957,967.23424 82.236021,967.23703 C 82.236159,967.24033 82.235967,967.2655 82.236015,967.26828 C 82.236182,967.27484 82.236276,967.29701 82.236017,967.29953 C 82.235755,967.30466 82.23602,967.32559 82.23602,967.33078 L 82.236019,967.64328 L 82.236021,973.67453 C 82.236151,973.6771 82.236119,973.69924 82.236016,973.70578 C 82.235978,973.70856 82.236127,973.73374 82.236017,973.73703 C 82.235957,973.73982 82.236222,973.76496 82.23602,973.76828 C 82.241732,973.77389 82.261508,973.79396 82.267267,973.79953 C 82.267182,973.80234 82.267567,973.8274 82.267269,973.83078 C 82.27268,973.83623 82.292931,973.85672 82.298516,973.86203 C 82.30191,973.86542 82.326218,973.89006 82.32977,973.89328 C 82.335372,973.89899 82.355389,973.91887 82.361017,973.92453 C 82.364398,973.92423 82.389462,973.92462 82.392269,973.92453 C 82.397828,973.9303 82.417931,973.95007 82.423516,973.95578 C 82.426826,973.95561 82.451978,973.95584 82.454768,973.95578 C 82.45806,973.95567 82.483239,973.95582 82.486021,973.95578 C 82.492558,973.95568 82.514707,973.95565 82.517266,973.95578 L 85.423516,973.95578 C 85.428706,973.95578 85.44964,973.95604 85.454768,973.95578 C 85.457291,973.95554 85.479461,973.95563 85.48602,973.95578 C 85.488806,973.95584 85.513956,973.95561 85.517272,973.95579 C 85.522856,973.95006 85.542956,973.9303 85.548522,973.92454 C 85.551317,973.92461 85.5764,973.92426 85.579767,973.92453 C 85.585398,973.91887 85.605419,973.89899 85.611017,973.89328 C 85.619259,973.88522 85.637177,973.86712 85.642267,973.86203 C 85.644557,973.85926 85.66504,973.83924 85.673517,973.83078 C 85.682027,973.81462 85.700506,973.77838 85.704772,973.76829 C 85.704569,973.76495 85.704827,973.73982 85.70477,973.73703 C 85.710597,973.73149 85.730249,973.71134 85.73602,973.70578 C 85.735917,973.69924 85.735891,973.6771 85.736018,973.67453 L 85.736017,967.33078 C 85.736017,967.32559 85.736281,967.30466 85.736022,967.29954 C 85.735759,967.29701 85.735856,967.27484 85.73602,967.26828 L 85.736021,886.36203 L 85.986018,886.36204 L 87.079764,886.36203 L 87.204766,886.36203 L 87.517265,886.36203 L 87.517268,974.89328 C 87.520291,974.92368 87.514338,974.95606 87.517267,974.98703 L 87.517266,976.58078 C 87.514032,976.61547 87.52092,976.63997 87.517272,976.67454 L 87.517266,976.79953 C 87.042849,980.82956 83.789107,984.0273 79.73602,984.42453 L 79.423521,984.42453 L 78.423518,984.42453 L 78.204768,984.42453 C 78.15466,984.41968 78.098727,984.39806 78.04852,984.39328 C 78.046167,984.39343 78.019797,984.39324 78.017268,984.39328 L 78.01727,984.42453 L 67.673517,984.42453 L 67.673537,1028.3621 L 87.673511,1028.3621 L 87.673534,1028.3308 C 87.676268,1028.3307 87.701406,1028.3311 87.704786,1028.3308 C 87.711927,1028.3378 87.73468,1028.3603 87.736016,1028.3621 C 87.738814,1028.3621 87.763946,1028.3621 87.767268,1028.3621 C 87.769771,1028.3623 87.791947,1028.3621 87.79852,1028.3621 L 91.861004,1028.3621 C 91.863592,1028.3619 91.885713,1028.362 91.892256,1028.3621 C 91.895061,1028.3621 91.920217,1028.362 91.923508,1028.3621 C 91.929128,1028.3563 91.94925,1028.3366 91.954784,1028.3308 C 91.957543,1028.3309 91.982697,1028.3306 91.986036,1028.3308 C 91.99711,1028.3257 92.037741,1028.3051 92.048513,1028.2996 C 92.056753,1028.2915 92.074698,1028.2734 92.079787,1028.2683 C 92.079548,1028.2666 92.079696,1028.2441 92.079761,1028.2371 C 92.085362,1028.2317 92.105621,1028.2112 92.111036,1028.2058 C 92.116698,1028.2006 92.136795,1028.1799 92.14226,1028.1746 C 92.142093,1028.1712 92.142327,1028.1461 92.142284,1028.1433 C 92.142096,1028.1399 92.142346,1028.1148 92.142256,1028.1121 C 92.142082,1028.1054 92.142031,1028.0833 92.142279,1028.0808 C 92.14256,1028.0757 92.142269,1028.0548 92.142253,1028.0496 L 92.142267,879.73703 C 92.142281,879.73184 92.142528,879.71091 92.142267,879.70578 C 92.142012,879.70326 92.142104,879.68109 92.142274,879.67453 C 92.142323,879.67175 92.142125,879.64658 92.142267,879.64329 C 92.14233,879.64049 92.142069,879.61537 92.142267,879.61203 C 92.13678,879.60666 92.116719,879.58603 92.11102,879.58078 C 92.105589,879.57535 92.085387,879.55483 92.079766,879.54953 C 92.079709,879.5425 92.079582,879.52002 92.079773,879.51828 C 92.074688,879.5132 92.056763,879.49509 92.048518,879.48703 C 92.046807,879.48721 92.0243,879.48709 92.017271,879.48704 C 92.011692,879.4813 91.991625,879.46146 91.986017,879.45578 C 91.98268,879.45601 91.957563,879.45571 91.954763,879.45578 C 91.949219,879.44998 91.929095,879.43028 91.923516,879.42453 C 91.920228,879.42464 91.895048,879.42449 91.892269,879.42453 C 91.885728,879.42463 91.863582,879.42466 91.861022,879.42453 L 89.298517,879.42453 L 87.142272,879.42453 L 87.079771,879.42453 L 86.26727,879.42453 L 84.861018,879.42453 C 84.858416,879.42466 84.836284,879.42463 84.829764,879.42453 C 84.826992,879.42449 84.801798,879.42464 84.798517,879.42453 C 84.793221,879.43012 84.772475,879.44996 84.767263,879.45578 C 84.76447,879.4557 84.739368,879.45603 84.736023,879.45578 C 84.730409,879.46147 84.710348,879.4813 84.704769,879.48704 C 84.693561,879.49211 84.653129,879.51282 84.642268,879.51828 C 84.642473,879.52 84.642332,879.5425 84.642268,879.54954 C 84.636653,879.55481 84.616437,879.57537 84.611021,879.58078 C 84.605774,879.59047 84.587644,879.62676 84.579767,879.64328 C 84.579908,879.64657 84.579717,879.67175 84.579767,879.67453 C 84.579929,879.68107 84.580028,879.70322 84.579767,879.70579 C 84.579505,879.71098 84.579774,879.73177 84.579774,879.73703 L 84.579774,886.04953 C 84.579774,886.05479 84.579505,886.07558 84.579767,886.08078 C 84.580028,886.08335 84.579929,886.10549 84.579767,886.11203 C 84.579717,886.11481 84.579908,886.13999 84.579767,886.14329 C 84.57971,886.14607 84.579972,886.17121 84.579774,886.17453 C 84.579357,886.17805 84.579823,886.20291 84.579767,886.20578 L 84.57977,967.01828 L 83.392269,967.01828 L 83.392266,886.08078 C 83.392527,886.07558 83.392273,886.05479 83.392273,886.04953 L 83.392273,879.73703 C 83.392273,879.73177 83.392527,879.71098 83.392273,879.70578 C 83.386482,879.70023 83.366866,879.68006 83.361019,879.67453 C 83.361068,879.67175 83.360884,879.64657 83.361019,879.64329 C 83.361082,879.64049 83.360785,879.61536 83.361019,879.61203 C 83.355334,879.60643 83.33552,879.58635 83.329772,879.58078 C 83.329856,879.57797 83.329439,879.55292 83.329772,879.54953 C 83.321689,879.54133 83.303418,879.52367 83.298525,879.51828 C 83.29337,879.51313 83.275494,879.49508 83.26727,879.48703 C 83.263862,879.48738 83.238831,879.48693 83.236016,879.48703 C 83.230763,879.48136 83.21015,879.46125 83.204769,879.45578 C 83.201439,879.45602 83.176308,879.45572 83.173515,879.45578 C 83.162817,879.44986 83.121918,879.42991 83.111021,879.42453 C 83.104494,879.42463 83.082362,879.42466 83.079767,879.42453 L 80.173523,879.42453 C 80.170921,879.42466 80.148788,879.42463 80.142269,879.42453 C 80.131365,879.42991 80.090466,879.44986 80.079767,879.45578 C 80.076967,879.4557 80.051872,879.45603 80.048513,879.45578 C 80.042906,879.46146 80.022852,879.4813 80.017266,879.48703 C 80.006059,879.4921 79.965633,879.51282 79.954772,879.51828 C 79.955168,879.52173 79.954659,879.54671 79.954765,879.54953 C 79.949158,879.55481 79.928935,879.57536 79.923518,879.58078 C 79.918264,879.59047 79.900134,879.62676 79.892271,879.64328 C 79.892412,879.64657 79.892222,879.67175 79.892271,879.67453 C 79.892434,879.68107 79.892533,879.70322 79.892271,879.70579 C 79.892009,879.71098 79.892264,879.73177 79.892264,879.73703 L 79.892264,886.04953 C 79.892264,886.05479 79.892009,886.07558 79.892271,886.08078 C 79.892533,886.08335 79.892434,886.10549 79.892271,886.11203 C 79.892222,886.11481 79.892412,886.13999 79.892271,886.14329 C 79.892214,886.14607 79.892469,886.17122 79.892264,886.17453 L 79.892272,967.01828 L 78.704771,967.01828 L 78.70477,886.08078 C 78.705032,886.07558 78.704763,886.05479 78.704763,886.04953 L 78.70477,879.73703 C 78.704763,879.73177 78.705032,879.71098 78.70477,879.70579 C 78.698979,879.70024 78.679371,879.68006 78.673516,879.67453 C 78.673565,879.67175 78.673374,879.64657 78.673516,879.64328 C 78.673587,879.64049 78.67329,879.61536 78.673523,879.61203 C 78.667824,879.60643 78.648011,879.58635 78.642269,879.58078 C 78.642361,879.57797 78.641937,879.55292 78.642269,879.54954 C 78.634187,879.54133 78.615922,879.52367 78.611015,879.51828 C 78.605867,879.51314 78.587998,879.49508 78.579768,879.48704 C 78.576352,879.48738 78.551328,879.48694 78.548521,879.48703 C 78.54326,879.48136 78.522648,879.46125 78.517274,879.45578 C 78.513936,879.45601 78.488805,879.45571 78.486019,879.45578 C 78.475321,879.44986 78.434422,879.42991 78.423518,879.42453 C 78.416999,879.42463 78.394866,879.42466 78.392271,879.42453 L 75.48602,879.42453 C 75.483425,879.42466 75.461292,879.42463 75.454773,879.42453 C 75.443869,879.42991 75.40297,879.44986 75.392272,879.45578 C 75.389465,879.4557 75.364369,879.45604 75.361018,879.45578 C 75.35541,879.46146 75.335343,879.4813 75.329771,879.48703 C 75.318556,879.49211 75.278131,879.51282 75.267269,879.51828 C 75.267672,879.52173 75.267156,879.54672 75.267269,879.54953 C 75.261662,879.55481 75.241439,879.57536 75.236015,879.58078 C 75.230769,879.59047 75.212638,879.62676 75.204768,879.64329 C 75.20491,879.64657 75.204719,879.67175 75.204775,879.67453 C 75.204924,879.68107 75.20503,879.70323 75.204768,879.70578 C 75.204514,879.71098 75.204768,879.73177 75.204768,879.73703 L 75.204768,886.04953 C 75.204768,886.05479 75.204514,886.07558 75.204768,886.08079 C 75.20503,886.08334 75.204924,886.10549 75.204775,886.11203 C 75.204719,886.11482 75.204903,886.13999 75.204768,886.14328 C 75.204705,886.14607 75.204966,886.17121 75.204768,886.17453 L 75.204767,967.01828 L 74.017266,967.01828 L 74.017267,886.08079 C 74.017529,886.07559 74.017267,886.05479 74.017267,886.04953 L 74.017267,879.73703 C 74.017267,879.73177 74.017529,879.71098 74.017267,879.70578 C 74.011476,879.70023 73.991875,879.68006 73.98602,879.67453 C 73.98607,879.67175 73.985879,879.64657 73.98602,879.64328 C 73.986091,879.64049 73.985794,879.61536 73.986013,879.61203 C 73.980328,879.60643 73.960508,879.58636 73.954766,879.58078 C 73.954858,879.57798 73.954441,879.55292 73.954766,879.54953 C 73.946691,879.54133 73.928419,879.52368 73.923519,879.51828 C 73.918371,879.51314 73.900503,879.49508 73.892265,879.48703 C 73.888857,879.48738 73.863825,879.48693 73.861018,879.48704 C 73.855757,879.48136 73.835152,879.46125 73.829764,879.45578 C 73.82644,879.45601 73.80131,879.45571 73.798524,879.45578 C 73.787818,879.44986 73.746919,879.42992 73.736023,879.42453 C 73.729503,879.42463 73.707371,879.42466 73.704768,879.42453 L 70.798517,879.42453 C 70.795915,879.42466 70.77379,879.42463 70.76727,879.42453 C 70.756367,879.42992 70.715467,879.44986 70.704769,879.45579 C 70.701969,879.4557 70.676867,879.45603 70.673522,879.45578 C 70.667907,879.46147 70.647847,879.4813 70.642268,879.48704 C 70.63106,879.49211 70.590628,879.51282 70.579767,879.51828 C 70.58017,879.52173 70.579661,879.54672 70.579767,879.54954 C 70.574152,879.55481 70.553943,879.57536 70.54852,879.58078 C 70.543273,879.59047 70.525143,879.62676 70.517273,879.64329 C 70.517407,879.64657 70.517216,879.67175 70.517265,879.67453 C 70.517428,879.68107 70.517527,879.70322 70.517273,879.70578 C 70.517004,879.71098 70.517273,879.73177 70.517273,879.73703 L 70.517273,886.04953 C 70.517273,886.05479 70.517004,886.07558 70.517265,886.08078 C 70.517527,886.08335 70.517428,886.10549 70.517265,886.11203 C 70.517216,886.11481 70.517407,886.13999 70.517273,886.14328 C 70.517209,886.14607 70.517471,886.17121 70.517273,886.17453 L 70.517269,967.01828 L 69.329768,967.01828 L 69.329772,886.08079 C 69.330026,886.07558 69.329772,886.05479 69.329772,886.04953 L 69.329772,879.73703 C 69.329772,879.73177 69.330026,879.71098 69.329772,879.70578 C 69.32398,879.70023 69.304365,879.68006 69.298525,879.67453 C 69.298574,879.67175 69.298383,879.64657 69.298517,879.64329 C 69.298595,879.64049 69.298284,879.61536 69.298517,879.61203 C 69.292832,879.60643 69.273005,879.58635 69.26727,879.58078 C 69.267355,879.57797 69.266938,879.55292 69.26727,879.54953 C 69.259188,879.54133 69.240917,879.52367 69.236023,879.51828 C 69.230869,879.51313 69.212993,879.49508 69.204769,879.48703 C 69.201361,879.48738 69.176329,879.48693 69.173515,879.48703 C 69.168261,879.48136 69.147649,879.46125 69.142268,879.45578 C 69.138938,879.45602 69.113814,879.45571 69.111014,879.45578 C 69.100315,879.44986 69.059416,879.42991 69.04852,879.42453 C 69.042,879.42463 69.019875,879.42466 69.017273,879.42453 L 66.111021,879.42453 C 66.108419,879.42466 66.086287,879.42463 66.079767,879.42453 C 66.068871,879.42992 66.027965,879.44986 66.017266,879.45578 C 66.014473,879.4557 65.989371,879.45603 65.986012,879.45578 C 65.980405,879.46146 65.960351,879.4813 65.954765,879.48703 C 65.943557,879.4921 65.903132,879.51282 65.892271,879.51828 C 65.892667,879.52173 65.892158,879.54671 65.892264,879.54953 C 65.886657,879.55481 65.866433,879.57536 65.861017,879.58078 C 65.855763,879.59047 65.83764,879.62677 65.82977,879.64328 C 65.829911,879.64657 65.82972,879.67175 65.82977,879.67453 C 65.829932,879.68107 65.830031,879.70322 65.82977,879.70579 C 65.829508,879.71098 65.829763,879.73177 65.82977,879.73703 L 65.829763,886.04953 C 65.829763,886.05479 65.829508,886.07558 65.82977,886.08078 C 65.830031,886.08335 65.829932,886.10549 65.82977,886.11203 C 65.82972,886.11481 65.829911,886.13999 65.82977,886.14329 C 65.829713,886.14607 65.829968,886.17122 65.82977,886.17453 L 65.829771,967.01828 L 64.64227,967.01828 L 64.642269,886.08078 C 64.64253,886.07558 64.642269,886.05479 64.642269,886.04954 L 64.642269,879.73703 C 64.642269,879.73177 64.64253,879.71098 64.642269,879.70579 C 64.636478,879.70024 64.616869,879.68006 64.611015,879.67453 C 64.611064,879.67175 64.610873,879.64657 64.611022,879.64329 C 64.611085,879.64049 64.610788,879.61536 64.611022,879.61203 C 64.60533,879.60644 64.585516,879.58636 64.579768,879.58078 C 64.57986,879.57797 64.579435,879.55292 64.579768,879.54954 C 64.571692,879.54133 64.553421,879.52367 64.548513,879.51828 C 64.543366,879.51314 64.525497,879.49508 64.517266,879.48704 C 64.513865,879.48738 64.488827,879.48694 64.486019,879.48703 C 64.480759,879.48136 64.460146,879.46125 64.454772,879.45578 C 64.451442,879.45602 64.426304,879.45571 64.423518,879.45578 C 64.41282,879.44986 64.371921,879.42991 64.361017,879.42453 C 64.354498,879.42463 64.332365,879.42466 64.32977,879.42453 L 61.423519,879.42453 C 61.420924,879.42466 61.398791,879.42463 61.392272,879.42453 C 61.381368,879.42991 61.340469,879.44986 61.32977,879.45578 C 61.32697,879.4557 61.301861,879.45603 61.298516,879.45578 C 61.292909,879.46146 61.272841,879.4813 61.267269,879.48703 C 61.256062,879.4921 61.215622,879.51282 61.204768,879.51828 C 61.205164,879.52173 61.204662,879.54671 61.204768,879.54953 C 61.199161,879.55481 61.178938,879.57536 61.173514,879.58078 C 61.168267,879.59047 61.150137,879.62676 61.142267,879.64329 C 61.142415,879.64657 61.142217,879.67175 61.142274,879.67453 C 61.14243,879.68107 61.142529,879.70323 61.142267,879.70578 C 61.142005,879.71098 61.142267,879.73177 61.142267,879.73703 L 61.142267,886.04953 C 61.142267,886.05479 61.142012,886.07558 61.142267,886.08079 C 61.142529,886.08334 61.142423,886.10549 61.142274,886.11203 C 61.142225,886.11481 61.142415,886.13999 61.142267,886.14328 C 61.142203,886.14607 61.142465,886.17121 61.142267,886.17453 L 61.142266,967.01828 L 59.954765,967.01828 L 59.954766,886.08079 C 59.955035,886.07558 59.954766,886.05479 59.954766,886.04953 L 59.954766,879.73703 C 59.954766,879.73177 59.955035,879.71098 59.954766,879.70578 C 59.948982,879.70024 59.929374,879.68006 59.923519,879.67453 C 59.923568,879.67175 59.923378,879.64657 59.923519,879.64328 C 59.92359,879.64049 59.923293,879.61536 59.923519,879.61204 C 59.917827,879.60643 59.898014,879.58635 59.892265,879.58078 C 59.892364,879.57797 59.89194,879.55292 59.892265,879.54953 C 59.88419,879.54133 59.865918,879.52368 59.861018,879.51828 C 59.85587,879.51314 59.838001,879.49508 59.829771,879.48704 C 59.826355,879.48738 59.801338,879.48693 59.798517,879.48704 C 59.793263,879.48136 59.772651,879.46125 59.767262,879.45578 C 59.763939,879.45601 59.738809,879.45571 59.736023,879.45578 C 59.725324,879.44986 59.684425,879.42991 59.673521,879.42453 C 59.666995,879.42463 59.644869,879.42466 59.642267,879.42453 L 56.736016,879.42453 C 56.733414,879.42466 56.711295,879.42463 56.704769,879.42453 C 56.693865,879.42992 56.652959,879.44986 56.642275,879.45578 C 56.639468,879.4557 56.614365,879.45603 56.611021,879.45578 C 56.605413,879.46146 56.585346,879.4813 56.579767,879.48704 C 56.568566,879.4921 56.528127,879.51282 56.517265,879.51828 C 56.517661,879.52173 56.517159,879.54672 56.517272,879.54953 C 56.511651,879.55481 56.491442,879.57536 56.486018,879.58078 C 56.480772,879.59047 56.462634,879.62677 56.454771,879.64329 C 56.454906,879.64657 56.454715,879.67175 56.454764,879.67453 C 56.454927,879.68107 56.455026,879.70322 56.454771,879.70578 C 56.454503,879.71098 56.454771,879.73177 56.454771,879.73703 L 56.454771,886.04953 C 56.454771,886.05479 56.454503,886.07558 56.454771,886.08079 C 56.455026,886.08335 56.454927,886.10549 56.454764,886.11203 C 56.454715,886.11481 56.454906,886.13999 56.454771,886.14328 C 56.454708,886.14607 56.454969,886.17121 56.454771,886.17453 L 56.454768,967.01828 L 55.267267,967.01828 L 55.26727,886.08079 C 55.267525,886.07558 55.26727,886.05479 55.26727,886.04953 L 55.26727,879.73703 C 55.26727,879.73177 55.267532,879.71098 55.26727,879.70578 C 55.261479,879.70023 55.241864,879.68006 55.236023,879.67453 C 55.236073,879.67175 55.235882,879.64657 55.236016,879.64329 C 55.236094,879.64049 55.235797,879.61536 55.236016,879.61203 C 55.230324,879.60644 55.210518,879.58635 55.204769,879.58078 C 55.204861,879.57798 55.204444,879.55292 55.204769,879.54953 C 55.196694,879.54133 55.178415,879.52367 55.173522,879.51828 C 55.168367,879.51313 55.150506,879.49508 55.142268,879.48703 C 55.13886,879.48738 55.113835,879.48694 55.111021,879.48704 C 55.10576,879.48136 55.085155,879.46125 55.079767,879.45578 C 55.076436,879.45602 55.051313,879.45571 55.048513,879.45578 C 55.037828,879.44986 54.996922,879.42992 54.986019,879.42453 C 54.979492,879.42463 54.957374,879.42466 54.954772,879.42453 L 52.04852,879.42453 C 52.045918,879.42466 52.023793,879.42463 52.017266,879.42453 C 52.006363,879.42991 51.965463,879.44986 51.954765,879.45578 C 51.951972,879.4557 51.926863,879.45604 51.923525,879.45578 C 51.917911,879.46147 51.89785,879.4813 51.892271,879.48704 C 51.881063,879.49211 51.840624,879.51282 51.82977,879.51828 C 51.830166,879.52173 51.829657,879.54671 51.82977,879.54954 C 51.824155,879.55481 51.803946,879.57536 51.798523,879.58078 C 51.793262,879.59047 51.775132,879.62676 51.767269,879.64328 C 51.76741,879.64657 51.767219,879.67175 51.767269,879.67453 C 51.767431,879.68107 51.76753,879.70322 51.767269,879.70579 C 51.767007,879.71098 51.767269,879.73177 51.767269,879.73703 L 51.767269,886.04954 C 51.767276,886.05479 51.767007,886.07558 51.767269,886.08078 C 51.76753,886.08335 51.767431,886.10549 51.767269,886.11203 C 51.767219,886.11481 51.76741,886.13999 51.767269,886.14329 C 51.767205,886.14607 51.767466,886.17122 51.767269,886.17453 L 51.76727,967.01828 L 50.57977,967.01828 L 50.579768,886.08078 C 50.580029,886.07558 50.579775,886.05479 50.579775,886.04953 L 50.579768,879.73703 C 50.579775,879.73177 50.580029,879.71098 50.579768,879.70579 C 50.573983,879.70023 50.554368,879.68006 50.548513,879.67453 C 50.54857,879.67175 50.548372,879.64657 50.54852,879.64329 C 50.548584,879.64049 50.548287,879.61536 50.54852,879.61203 C 50.542821,879.60643 50.523015,879.58636 50.517273,879.58078 C 50.517358,879.57797 50.516941,879.55292 50.517273,879.54953 C 50.509191,879.54133 50.49092,879.52367 50.486019,879.51828 C 50.480864,879.51314 50.463003,879.49508 50.454772,879.48703 C 50.451364,879.48738 50.426332,879.48693 50.423518,879.48703 C 50.418264,879.48136 50.397652,879.46125 50.392271,879.45578 C 50.388941,879.45602 50.363817,879.45571 50.361017,879.45578 C 50.350318,879.44986 50.309419,879.42991 50.298516,879.42453 C 50.291996,879.42463 50.269864,879.42466 50.267269,879.42453 L 47.361017,879.42453 C 47.358422,879.42466 47.33629,879.42463 47.32977,879.42453 C 47.318867,879.42991 47.277968,879.44986 47.267269,879.45578 C 47.264476,879.4557 47.23936,879.45603 47.236015,879.45578 C 47.230408,879.46146 47.210347,879.48131 47.204768,879.48703 C 47.19356,879.4921 47.153121,879.51282 47.142274,879.51828 C 47.14267,879.52173 47.142161,879.54671 47.142267,879.54953 C 47.13666,879.55481 47.116443,879.57537 47.11102,879.58078 C 47.105766,879.59047 47.087636,879.62676 47.079766,879.64329 C 47.079914,879.64657 47.079723,879.67175 47.079773,879.67453 C 47.079928,879.68107 47.080027,879.70323 47.079766,879.70578 C 47.079511,879.71098 47.079766,879.73177 47.079766,879.73703 L 47.079767,886.04953 C 47.079767,886.05479 47.079508,886.07558 47.079769,886.08078 C 47.080025,886.08334 47.079932,886.1055 47.079771,886.11203 C 47.07972,886.11481 47.079911,886.13999 47.079766,886.14328 C 47.079704,886.14607 47.079964,886.17121 47.079768,886.17453 L 47.079765,967.01828 L 45.892272,967.01829 L 45.892268,886.08078 C 45.892531,886.07558 45.892267,886.05479 45.892266,886.04953 L 45.892265,879.73703 C 45.892265,879.73177 45.892533,879.71098 45.892265,879.70578 C 45.886481,879.70024 45.866873,879.68006 45.861018,879.67453 C 45.861067,879.67175 45.860876,879.64657 45.861018,879.64328 C 45.861088,879.64049 45.860791,879.61536 45.861025,879.61203 C 45.855325,879.60643 45.835512,879.58635 45.829771,879.58078 C 45.829863,879.57797 45.829438,879.55292 45.829771,879.54954 C 45.821695,879.54133 45.803424,879.52367 45.798517,879.51828 C 45.793369,879.51314 45.7755,879.49508 45.767269,879.48704 C 45.763854,879.48738 45.738837,879.48693 45.736022,879.48703 C 45.730762,879.48136 45.710149,879.46125 45.704775,879.45578 C 45.701438,879.45601 45.676307,879.45571 45.673521,879.45578 C 45.662823,879.44986 45.621924,879.42991 45.61102,879.42453 C 45.604501,879.42463 45.582368,879.42466 45.579766,879.42453 L 42.673515,879.42453 C 42.670927,879.42466 42.648794,879.42463 42.642268,879.42453 C 42.631364,879.42992 42.590458,879.44986 42.579774,879.45578 C 42.576973,879.4557 42.551864,879.45603 42.548519,879.45578 C 42.542912,879.46146 42.522844,879.4813 42.517272,879.48703 C 42.506065,879.4921 42.465625,879.51282 42.454764,879.51828 C 42.455167,879.52173 42.454658,879.54672 42.454771,879.54953 C 42.44915,879.55481 42.428941,879.57536 42.423517,879.58078 C 42.41827,879.59047 42.400133,879.62677 42.39227,879.64329 C 42.392404,879.64657 42.392213,879.67175 42.392263,879.67453 C 42.392426,879.68107 42.392525,879.70322 42.39227,879.70578 C 42.392001,879.71098 42.39227,879.73177 42.39227,879.73703 L 42.392269,886.04953 C 42.392269,886.05479 42.392003,886.07558 42.392271,886.08078 C 42.392527,886.08334 42.392427,886.10549 42.392266,886.11203 C 42.392216,886.11481 42.392406,886.13999 42.392268,886.14328 C 42.392206,886.14607 42.392467,886.17121 42.39227,886.17453 L 42.392267,967.01828 L 41.204767,967.01828 L 41.20477,886.08078 C 41.205033,886.07559 41.204769,886.05479 41.204768,886.04953 L 41.20477,879.73703 C 41.204769,879.73177 41.205028,879.71098 41.204768,879.70578 C 41.198978,879.70023 41.179366,879.68006 41.173521,879.67453 C 41.173571,879.67175 41.17338,879.64657 41.173518,879.64328 C 41.173591,879.64049 41.173294,879.61536 41.173516,879.61203 C 41.167827,879.60643 41.148014,879.58635 41.142269,879.58078 C 41.142363,879.57797 41.141942,879.55292 41.142267,879.54953 C 41.13419,879.54133 41.115916,879.52367 41.11102,879.51828 C 41.105865,879.51313 41.088004,879.49508 41.079766,879.48703 C 41.076358,879.48738 41.051336,879.48693 41.048521,879.48703 C 41.043261,879.48136 41.022655,879.46125 41.017267,879.45578 C 41.013938,879.45601 40.988811,879.45571 40.986022,879.45579 C 40.975326,879.44986 40.934423,879.42991 40.923516,879.42453 C 40.916994,879.42463 40.89487,879.42466 40.892271,879.42453 L 37.98602,879.42453 C 37.983419,879.42466 37.961289,879.42463 37.954768,879.42453 C 37.943869,879.42992 37.902964,879.44986 37.892266,879.45578 C 37.889472,879.4557 37.864365,879.45603 37.861021,879.45578 C 37.855411,879.46146 37.835347,879.4813 37.829771,879.48703 C 37.818564,879.4921 37.778129,879.51282 37.767269,879.51828 C 37.767667,879.52173 37.767155,879.54671 37.767271,879.54953 C 37.761655,879.55481 37.741443,879.57536 37.736021,879.58078 C 37.730763,879.59047 37.712631,879.62676 37.704766,879.64328 C 37.70491,879.64657 37.704719,879.67175 37.704768,879.67453 C 37.70493,879.68107 37.705027,879.70322 37.70477,879.70578 C 37.704507,879.71098 37.704771,879.73178 37.704772,879.73704 L 37.704771,886.04953 C 37.704771,886.0548 37.704506,886.07558 37.704766,886.08078 C 37.70503,886.08334 37.704929,886.10549 37.704768,886.11203 C 37.704718,886.11481 37.704909,886.13999 37.70477,886.14328 C 37.704708,886.14608 37.704969,886.17121 37.704765,886.17453 L 37.704769,967.01828 L 36.517269,967.01828 L 36.517266,886.08078 C 36.517529,886.07558 36.517271,886.05479 36.517271,886.04953 L 36.517272,879.73703 C 36.517271,879.73177 36.51753,879.71098 36.51727,879.70578 C 36.51148,879.70023 36.491868,879.68006 36.486016,879.67453 C 36.486066,879.67175 36.485875,879.64657 36.486021,879.64328 C 36.486086,879.64049 36.485796,879.61537 36.486019,879.61203 C 36.480322,879.60643 36.460516,879.58635 36.454771,879.58078 C 36.454865,879.57798 36.454437,879.55292 36.454769,879.54953 C 36.451237,879.55001 36.426363,879.5494 36.423517,879.54953 C 36.423632,879.54672 36.423119,879.52173 36.423515,879.51828 C 36.420052,879.5187 36.395098,879.51817 36.39227,879.51828 C 36.392395,879.51544 36.391811,879.49054 36.392268,879.48703 C 36.388861,879.48738 36.363831,879.48693 36.361016,879.48703 C 36.361157,879.48416 36.360491,879.45938 36.361021,879.45578 C 36.35766,879.45606 36.332567,879.4557 36.329769,879.45578 C 36.32644,879.45601 36.301313,879.45571 36.298517,879.45578 C 36.287821,879.44986 36.246918,879.42991 36.236018,879.42453 C 36.229496,879.42463 36.207365,879.42466 36.204766,879.42453 L 33.329767,879.42453 L 33.298515,879.42453 C 33.295921,879.42466 33.273791,879.42463 33.267271,879.42453 C 33.264487,879.42449 33.239301,879.42464 33.236018,879.42453 L 29.204771,879.42453 C 29.199572,879.42453 29.178645,879.42427 29.173519,879.42453 C 29.170992,879.42478 29.148825,879.42469 29.142267,879.42453 C 29.138743,879.42412 29.113887,879.42458 29.111022,879.42454 z "
         style="fill:#0000ff;fill-opacity:0.75" />
    </g>
  </g>
</svg>
