<?xml version="1.0" encoding="UTF-8" standalone="no"?>
<!-- Created with Inkscape (http://www.inkscape.org/) -->

<svg
   width="249.24388mm"
   height="249.2439mm"
   viewBox="0 0 249.24388 249.2439"
   version="1.1"
   id="svg1"
   xml:space="preserve"
   inkscape:version="1.3.2 (091e20e, 2023-11-25, custom)"
   sodipodi:docname="monometer.svg"
   xmlns:inkscape="http://www.inkscape.org/namespaces/inkscape"
   xmlns:sodipodi="http://sodipodi.sourceforge.net/DTD/sodipodi-0.dtd"
   xmlns:xlink="http://www.w3.org/1999/xlink"
   xmlns="http://www.w3.org/2000/svg"
   xmlns:svg="http://www.w3.org/2000/svg"><sodipodi:namedview
     id="namedview1"
     pagecolor="#ffffff"
     bordercolor="#000000"
     borderopacity="0.25"
     inkscape:showpageshadow="2"
     inkscape:pageopacity="0.0"
     inkscape:pagecheckerboard="0"
     inkscape:deskcolor="#d1d1d1"
     inkscape:document-units="mm"
     inkscape:zoom="0.2771684"
     inkscape:cx="207.45511"
     inkscape:cy="873.11541"
     inkscape:window-width="1920"
     inkscape:window-height="1051"
     inkscape:window-x="-9"
     inkscape:window-y="-9"
     inkscape:window-maximized="1"
     inkscape:current-layer="layer1" /><defs
     id="defs1"><linearGradient
       id="linearGradient3"
       inkscape:collect="always"><stop
         style="stop-color:#636363;stop-opacity:1;"
         offset="0"
         id="stop3" /><stop
         style="stop-color:#636363;stop-opacity:0.40449437;"
         offset="1"
         id="stop4" /></linearGradient><linearGradient
       inkscape:collect="always"
       xlink:href="#linearGradient3"
       id="linearGradient4"
       x1="-950.85858"
       y1="187.63538"
       x2="-701.61469"
       y2="187.63538"
       gradientUnits="userSpaceOnUse"
       gradientTransform="translate(0,3.1750001)" /></defs><g
     inkscape:label="Layer 1"
     inkscape:groupmode="layer"
     id="layer1"
     transform="translate(950.85857,-66.188385)"><g
       id="g4"><ellipse
         style="fill:none;fill-opacity:1;stroke:url(#linearGradient4);stroke-width:15;stroke-linecap:round;stroke-linejoin:round;stroke-dasharray:none;paint-order:stroke fill markers"
         id="path3"
         cx="-826.23663"
         cy="190.81033"
         rx="117.12194"
         ry="117.12195" /><g
         id="g3"
         transform="translate(0.5291467,9.4029476)"><path
           style="fill:#000000"
           d="m -888.81832,259.92752 c -0.3595,-0.31456 -0.9933,-0.85991 -1.4084,-1.21189 l -0.7548,-0.63996 1.0194,-1.24461 c 0.5606,-0.68453 1.4754,-1.78326 2.0328,-2.44163 0.5575,-0.65837 1.2987,-1.53339 1.6472,-1.94451 0.4458,-0.52581 0.7851,-0.69941 1.1443,-0.5854 0.3966,0.12585 0.8453,-0.23237 2.0082,-1.60317 0.8237,-0.97088 1.4005,-1.84577 1.2818,-1.9442 -0.1187,-0.0984 -1.0005,-0.91652 -1.9596,-1.81799 l -1.7438,-1.63904 c -1.23202,-1.158 0.21257,0.16894 -1.1783,-1.14003 l -2.019,-2.16491 -2.0189,-2.1649 -1.2044,0.90818 c -0.6624,0.49951 -1.6806,1.35342 -2.2627,1.89758 -0.5821,0.54416 -1.3848,1.20134 -1.7839,1.4604 -0.399,0.25906 -0.9051,0.40213 -1.1245,0.31794 -0.2194,-0.0842 -0.3989,-0.43629 -0.3989,-0.78243 0,-0.47371 0.5972,-1.11369 2.415,-2.58799 1.3283,-1.07725 2.6009,-2.10726 2.8281,-2.28891 0.3673,-0.29364 0.3391,-0.41102 -0.2535,-1.05834 -0.3666,-0.40043 -1.4375,-1.79962 -2.3798,-3.10931 -0.9424,-1.30969 -2.2851,-3.30494 -2.984,-4.4339 -0.6989,-1.12896 -1.3486,-2.10079 -1.4438,-2.15962 -0.095,-0.0588 -1.1836,0.49005 -2.4187,1.21975 -1.235,0.7297 -2.7011,1.55975 -3.2579,1.84456 -0.7933,0.40579 -1.0939,0.45019 -1.3891,0.20518 -0.2072,-0.17195 -0.3765,-0.50642 -0.3762,-0.74326 2e-4,-0.23685 0.5063,-0.74 1.1245,-1.11812 0.6182,-0.37812 2.0452,-1.21155 3.1712,-1.85208 1.126,-0.64053 2.0488,-1.25806 2.0506,-1.37229 0,-0.11423 -0.6365,-1.42392 -1.4183,-2.91042 -0.7819,-1.48649 -1.9948,-4.0431 -2.6955,-5.68134 -1.1318,-2.64612 -1.3349,-2.96012 -1.8197,-2.81287 -0.3001,0.0912 -1.5977,0.57338 -2.8837,1.07161 -1.286,0.49822 -2.6618,0.9706 -3.0575,1.04974 -0.4569,0.0914 -0.8364,0.003 -1.0399,-0.24226 -0.1763,-0.21239 -0.2493,-0.57155 -0.1624,-0.79815 0.09,-0.23562 1.6312,-0.9486 3.5988,-1.66536 3.0755,-1.12032 3.4273,-1.31184 3.3142,-1.80435 -0.07,-0.30304 -0.4489,-1.56302 -0.8429,-2.79995 -0.394,-1.23692 -1.0713,-3.79664 -1.5051,-5.68826 -0.4338,-1.89162 -0.8087,-3.45614 -0.8331,-3.4767 -0.024,-0.0206 -1.5922,0.24479 -3.484,0.58966 -1.8918,0.34488 -3.6479,0.56191 -3.9026,0.4823 -0.2697,-0.0843 -0.463,-0.40607 -0.463,-0.77054 0,-0.36646 0.1919,-0.68362 0.463,-0.76532 0.2547,-0.0767 1.905,-0.38241 3.6674,-0.67929 1.7624,-0.29687 3.2611,-0.53977 3.3304,-0.53977 0.069,0 -0.027,-1.03227 -0.2131,-2.29394 -0.1866,-1.26167 -0.4095,-3.55362 -0.4955,-5.09323 -0.086,-1.53961 -0.2202,-3.42436 -0.2983,-4.18835 l -0.142,-1.38906 h -2.3622 c -1.9234,0 -2.3622,0.0737 -2.3622,0.39687 0,0.33625 -0.6468,0.39688 -4.2333,0.39688 h -4.2334 v -1.83995 -1.83994 l 4.2334,-0.009 c 4.0523,-0.009 4.2333,0.0132 4.2333,0.51703 0,0.48596 0.1807,0.5263 2.3575,0.5263 h 2.3575 l 0.1647,-2.31511 c 0.091,-1.2733 0.354,-4.13607 0.5853,-6.36171 0.2313,-2.22563 0.3636,-4.10358 0.294,-4.17321 -0.07,-0.0696 -1.6504,-0.39422 -3.5127,-0.72129 -2.4468,-0.42973 -3.4653,-0.72024 -3.6716,-1.04734 -0.2154,-0.34146 -0.1891,-0.54474 0.1069,-0.82745 0.339,-0.3238 0.8784,-0.29187 3.9642,0.23466 1.9646,0.33521 3.5916,0.59093 3.6157,0.56827 0.024,-0.0227 0.3614,-1.45794 0.7497,-3.18951 0.3883,-1.73157 1.1196,-4.51275 1.6251,-6.1804 0.5056,-1.66765 0.8826,-3.067 0.8378,-3.10967 -0.045,-0.0426 -1.153,-0.49099 -2.4626,-0.9963 -1.3097,-0.50531 -2.8278,-1.06197 -3.3735,-1.23702 -0.7692,-0.24674 -0.9922,-0.45594 -0.9922,-0.9309 0,-0.33695 0.1839,-0.68318 0.4086,-0.7694 0.2247,-0.0862 1.6832,0.30618 3.2411,0.87202 1.5579,0.56583 3.0769,1.10041 3.3754,1.18796 0.4743,0.13907 0.6552,-0.11658 1.4332,-2.02481 0.4897,-1.20119 1.704,-3.81196 2.6984,-5.80171 0.9943,-1.98976 1.8079,-3.67564 1.8079,-3.7464 0,-0.0708 -0.9227,-0.64303 -2.0505,-1.2717 -1.1278,-0.62867 -2.3691,-1.30484 -2.7584,-1.5026 -0.3893,-0.19776 -0.9097,-0.58268 -1.1565,-0.85539 -0.2468,-0.27271 -0.3785,-0.67887 -0.2927,-0.90257 0.086,-0.2237 0.4069,-0.40673 0.7135,-0.40673 0.3066,0 1.3522,0.46304 2.3234,1.02899 0.9713,0.56594 2.3206,1.33758 2.9985,1.71475 l 1.2325,0.68577 1.2678,-2.04548 c 0.6973,-1.12502 1.7776,-2.75986 2.4007,-3.63299 0.623,-0.87312 1.3627,-1.88515 1.6436,-2.24895 0.2809,-0.36381 0.8737,-1.11847 1.3174,-1.67703 l 0.8067,-1.01556 -2.0465,-1.76256 c -1.1255,-0.96941 -2.3801,-2.02491 -2.7878,-2.34555 -0.5051,-0.39726 -0.7139,-0.77571 -0.6551,-1.18792 0.047,-0.33271 0.2755,-0.64099 0.5069,-0.68506 0.2315,-0.0441 1.6007,0.90722 3.0428,2.11397 1.442,1.20674 2.6586,2.27449 2.7034,2.37278 0.045,0.0983 2.1919,-1.92578 4.7712,-4.49792 l 4.6894,-4.67661 -1.4638,-1.76769 c -1.0489,-1.26669 -1.6245,-1.75412 -2.031,-1.71979 -0.4259,0.036 -1.1992,-0.70997 -3.1046,-2.99481 l -2.5375,-3.04271 1.2526,-1.11362 c 0.6889,-0.61249 1.3303,-1.08874 1.4254,-1.05834 0.095,0.0304 1.2464,1.33116 2.5585,2.89055 1.3121,1.5594 2.465,2.9636 2.5619,3.12045 0.097,0.15685 0.043,0.44626 -0.1208,0.64314 -0.2305,0.27774 -0.072,0.61763 0.7056,1.51651 0.5515,0.6372 1.2405,1.4756 1.5311,1.8631 l 0.5284,0.70456 1.4552,-1.16314 c 0.8003,-0.63972 3.1816,-2.32106 5.2916,-3.73629 2.1101,-1.41524 3.865,-2.58979 3.8998,-2.61013 0.035,-0.0203 -0.7133,-1.39752 -1.6627,-3.06042 -0.9493,-1.6629 -1.6922,-3.26158 -1.6508,-3.55262 0.044,-0.30884 0.3124,-0.56297 0.6448,-0.61035 0.4584,-0.0653 0.748,0.24463 1.4832,1.5875 0.5025,0.91778 1.3001,2.35917 1.7725,3.2031 0.4723,0.84393 0.936,1.4976 1.0303,1.4526 0.094,-0.045 1.8979,-0.92926 4.00793,-1.96501 2.11005,-1.03576 4.6699,-2.20902 5.68854,-2.60725 1.01865,-0.39822 1.89159,-0.7599 1.93988,-0.80372 0.0483,-0.0438 -0.46108,-1.60253 -1.13192,-3.46379 -0.67084,-1.861267 -1.16057,-3.538238 -1.08829,-3.726608 0.0723,-0.18838 0.41655,-0.342497 0.76502,-0.342497 0.57166,0 0.75608,0.336237 1.88654,3.439565 0.68912,1.89177 1.28207,3.43958 1.31767,3.43958 0.0356,0 0.76797,-0.24499 1.6275,-0.54443 0.85952,-0.29943 3.40191,-1.01381 5.64975,-1.5875 2.24784,-0.57368 4.36119,-1.04307 4.69635,-1.04307 0.33516,0 0.607,-0.0893 0.6041,-0.19843 -0.003,-0.10914 -0.29443,-1.746247 -0.64783,-3.638005 -0.54451,-2.914812 -0.5872,-3.495572 -0.27981,-3.806502 0.19949,-0.2018 0.55325,-0.29379 0.78611,-0.20444 0.23287,0.0894 0.46924,0.314 0.52527,0.49921 0.056,0.1852 0.36531,1.80946 0.68727,3.609482 l 0.58538,3.272735 1.22496,-0.17819 c 0.67374,-0.098 2.77278,-0.34798 4.66456,-0.55551 1.89177,-0.20753 4.24325,-0.379687 5.22552,-0.382587 l 1.78593,-0.005 v -2.381238 c 0,-1.940272 -0.0735,-2.381252 -0.39687,-2.381252 -0.3363,0 -0.39688,-0.64853 -0.39688,-4.2493 v -4.24931 l 0.99219,0.0821 c 0.70995,0.0588 0.9678,0.19291 0.90647,0.47157 -0.0677,0.30757 0.0201,0.29366 0.41771,-0.0661 0.27688,-0.25058 0.64288,-0.45559 0.81332,-0.45559 0.22389,0 0.3099,1.17484 0.3099,4.23333 0,3.58657 -0.0606,4.23333 -0.39688,4.23333 -0.32286,0 -0.39687,0.43644 -0.39687,2.340422 v 2.340408 l 3.24114,0.16795 c 1.78263,0.0924 4.65394,0.354907 6.38068,0.583407 1.72675,0.22851 3.19962,0.35538 3.27306,0.28195 0.0734,-0.0734 0.38885,-1.645204 0.70091,-3.492817 0.41378,-2.44986 0.69031,-3.43684 1.02146,-3.64572 0.34294,-0.21632 0.54941,-0.19038 0.84364,0.10597 0.3431,0.34559 0.31589,0.81294 -0.22818,3.918492 -0.43726,2.495845 -0.53031,3.551155 -0.31846,3.611895 0.16461,0.0472 1.72804,0.41099 3.47429,0.80845 1.74625,0.39745 4.42112,1.11769 5.94415,1.60054 1.52303,0.48284 2.80385,0.84319 2.84627,0.80078 0.0424,-0.0424 0.55556,-1.37599 1.14033,-2.96349 0.58477,-1.587507 1.16158,-3.064961 1.2818,-3.283238 0.12022,-0.21828 0.47484,-0.434987 0.78805,-0.481567 0.31528,-0.0469 0.63449,0.0847 0.71512,0.294847 0.0801,0.20876 -0.40416,1.896331 -1.07615,3.750168 -0.672,1.85384 -1.18456,3.40595 -1.13902,3.44912 0.0455,0.0432 1.03528,0.44823 2.19945,0.90013 1.16417,0.4519 3.78354,1.65033 5.82083,2.66317 2.68465,1.33468 3.76135,1.75299 3.91194,1.51981 0.11427,-0.17695 0.95064,-1.57082 1.8586,-3.09748 0.90796,-1.52667 1.84822,-2.81378 2.08948,-2.86024 0.24126,-0.0465 0.55704,0.13673 0.70173,0.40709 0.21081,0.39389 -0.0969,1.11314 -1.54888,3.61999 l -1.81196,3.12842 3.48496,2.34224 c 1.91673,1.28824 4.31329,2.97839 5.32568,3.7559 l 1.84071,1.41365 1.53273,-1.77643 c 0.843,-0.97703 1.53272,-1.89783 1.53272,-2.0462 0,-0.14838 -0.14716,-0.31883 -0.32703,-0.37879 -0.19557,-0.0652 0.52236,-1.14318 1.78593,-2.6816 1.16214,-1.41493 2.36912,-2.88107 2.68219,-3.25809 l 0.56921,-0.68549 1.3422,1.13176 c 0.85156,0.71804 1.27216,1.25223 1.15058,1.46132 -0.10539,0.18125 -1.26318,1.59117 -2.57287,3.13314 -1.64845,1.94081 -2.5122,2.76295 -2.80676,2.67155 -0.28308,-0.0878 -0.92514,0.43707 -1.91823,1.56821 -0.82099,0.93512 -1.49272,1.75745 -1.49272,1.82738 0,0.0699 2.031,2.16499 4.51333,4.65569 2.48233,2.4907 4.57093,4.52854 4.64132,4.52854 0.0704,0 1.34038,-1.0156 2.82219,-2.2569 1.4818,-1.2413 2.87579,-2.22255 3.09774,-2.18055 0.22195,0.042 0.43868,0.3764 0.48162,0.74312 0.0582,0.49745 -0.14333,0.82973 -0.79375,1.30848 -0.4795,0.35294 -1.28854,1.01734 -1.79786,1.47645 -0.50933,0.45912 -1.34277,1.19937 -1.85209,1.64502 l -0.92604,0.81028 0.59203,0.7484 c 0.32562,0.41163 1.64694,2.23669 2.93627,4.0557 1.28932,1.81901 2.67258,3.87498 3.07391,4.56881 l 0.72968,1.26152 1.36114,-0.75616 c 0.74862,-0.41589 2.10899,-1.18756 3.02303,-1.71483 0.91404,-0.52728 1.85075,-0.99281 2.08157,-1.03453 0.23083,-0.0417 0.54763,0.12253 0.70402,0.36499 0.20957,0.32493 0.19154,0.55265 -0.0686,0.86605 -0.19409,0.23387 -1.49687,1.07428 -2.89507,1.86758 -1.3982,0.7933 -2.69825,1.54617 -2.88899,1.67304 -0.26798,0.17824 0.0764,1.07684 1.51534,3.95342 1.02419,2.04751 2.23239,4.65539 2.68491,5.79529 0.45251,1.13989 0.86183,2.11204 0.9096,2.16032 0.0478,0.0483 1.6097,-0.46108 3.47096,-1.13192 1.86126,-0.67084 3.53824,-1.16057 3.72662,-1.08828 0.18837,0.0723 0.3425,0.41687 0.3425,0.76574 0,0.53896 -0.24856,0.72271 -1.65365,1.22242 -0.9095,0.32346 -2.42755,0.88877 -3.37343,1.25624 -0.94589,0.36747 -1.76185,0.70654 -1.81326,0.75348 -0.0514,0.0469 0.21163,1.01563 0.58453,2.15265 0.37289,1.13701 1.0447,3.49605 1.49291,5.2423 0.44821,1.74625 0.84002,3.62086 0.87068,4.16581 0.0307,0.54495 0.11529,0.98985 0.18805,0.98867 0.0728,-10e-4 1.44198,-0.2371 3.04271,-0.52427 1.60073,-0.28718 3.30111,-0.52372 3.77862,-0.52565 0.54906,-0.002 0.92707,0.14991 1.02837,0.41387 0.0881,0.22956 -0.005,0.57442 -0.20675,0.76636 -0.2018,0.19193 -1.83997,0.59412 -3.64038,0.89375 -1.80041,0.29964 -3.33697,0.60829 -3.41458,0.6859 -0.0776,0.0776 0.0529,1.72002 0.29004,3.6498 0.23713,1.92977 0.51131,4.7886 0.60928,6.35294 l 0.17813,2.84428 h 2.34228 c 2.17636,0 2.34228,-0.038 2.34228,-0.53636 0,-0.51758 0.14816,-0.53536 4.23334,-0.50802 l 4.23333,0.0283 v 1.83094 1.83094 h -4.23333 c -3.58658,0 -4.23334,-0.0606 -4.23334,-0.39688 0,-0.32298 -0.43744,-0.39687 -2.34952,-0.39687 h -2.34953 l -0.1787,3.10885 c -0.0983,1.70987 -0.34885,4.35901 -0.55682,5.88698 -0.20796,1.52797 -0.42927,3.02852 -0.4918,3.33457 -0.10552,0.51643 0.0892,0.5898 2.7079,1.02035 1.55188,0.25515 3.26808,0.57489 3.81379,0.71053 0.80276,0.19953 0.99218,0.36797 0.99218,0.88226 0,0.3496 -0.11373,0.70593 -0.25273,0.79184 -0.13901,0.0859 -1.71658,-0.0904 -3.50573,-0.39186 -1.78915,-0.30143 -3.46136,-0.61084 -3.71602,-0.68758 -0.33357,-0.10051 -0.46302,0.009 -0.46302,0.3918 0,0.29223 -0.48122,2.39566 -1.06938,4.67428 -0.58816,2.27863 -1.30248,4.75623 -1.58737,5.50578 -0.28489,0.74955 -0.51804,1.49182 -0.51811,1.64948 -8e-5,0.15767 1.53767,0.84941 3.41722,1.53721 1.87955,0.6878 3.47872,1.41043 3.5537,1.60585 0.075,0.19542 -0.0251,0.57524 -0.22249,0.84404 -0.3484,0.47454 -0.39977,0.47466 -1.76776,0.004 -0.77491,-0.26651 -2.12331,-0.7596 -2.99643,-1.09577 -0.87313,-0.33617 -1.83747,-0.686 -2.14298,-0.77741 -0.49397,-0.14778 -0.66744,0.10542 -1.56647,2.2864 -0.55604,1.34892 -1.78164,3.98283 -2.72355,5.85315 -1.37828,2.73678 -1.64061,3.44726 -1.34395,3.63983 0.20274,0.1316 1.60297,0.91996 3.11162,1.75189 1.50865,0.83194 2.80753,1.68074 2.88638,1.88623 0.0788,0.20549 0.0193,0.5658 -0.13227,0.80068 -0.1516,0.23488 -0.49364,0.38623 -0.76008,0.33634 -0.26645,-0.0499 -1.73894,-0.81021 -3.2722,-1.68958 -1.53326,-0.87937 -2.86382,-1.64107 -2.95678,-1.69266 -0.093,-0.0516 -0.68222,0.70873 -1.30945,1.68958 -0.62723,0.98086 -1.85325,2.79541 -2.72448,4.03234 -0.87123,1.23693 -2.04203,2.80589 -2.60177,3.4866 l -1.01772,1.23764 2.58831,2.15634 c 1.42357,1.18599 2.75168,2.38526 2.95136,2.66505 0.29103,0.40778 0.29773,0.58742 0.0337,0.90549 -0.18112,0.21824 -0.49671,0.3968 -0.70131,0.3968 -0.2046,0 -1.63249,-1.05855 -3.1731,-2.35233 l -2.8011,-2.35233 -2.54919,2.6536 c -1.40205,1.45948 -3.1445,3.21804 -3.87211,3.90792 -0.7276,0.68987 -1.65708,1.53656 -2.06551,1.88154 l -0.7426,0.62722 1.62609,1.93104 c 1.35907,1.61393 1.69041,1.87767 2.0177,1.60604 0.32498,-0.26971 0.55728,-0.12692 1.36546,0.83929 0.53563,0.64035 1.718,2.02599 2.62751,3.0792 0.9095,1.0532 1.65365,2.01376 1.65365,2.13458 0,0.12082 -0.5287,0.6616 -1.17488,1.20174 -0.64617,0.54014 -1.28764,0.98207 -1.42548,0.98207 -0.13784,0 -1.39508,-1.35639 -2.79388,-3.0142 -1.3988,-1.65782 -2.54327,-3.13618 -2.54327,-3.28525 0,-0.14907 0.13693,-0.31668 0.30428,-0.37246 0.16736,-0.0558 -0.43491,-0.96028 -1.33837,-2.01 l -1.64266,-1.90856 -1.55328,1.19523 -1.55329,1.19522 -0.52438,-0.73642 -0.52438,-0.73642 2.15927,-1.7493 c 1.1876,-0.96211 3.11177,-2.62859 4.27594,-3.70329 1.16417,-1.07469 3.18823,-3.08257 4.49792,-4.46196 1.30968,-1.37938 3.19304,-3.51939 4.18524,-4.75559 0.9922,-1.23619 2.71965,-3.61685 3.83879,-5.29034 1.11913,-1.67348 2.46837,-3.75708 2.99831,-4.6302 0.52993,-0.87313 1.68466,-3.03085 2.56605,-4.79495 0.88139,-1.76409 2.06719,-4.38347 2.63511,-5.82084 0.56792,-1.43736 1.40095,-3.68817 1.85119,-5.0018 0.45024,-1.31362 1.23187,-4.00082 1.73696,-5.97155 0.50509,-1.97073 0.99409,-4.11063 1.08666,-4.75534 0.0926,-0.64471 0.34085,-2.24376 0.55172,-3.55345 0.21087,-1.30969 0.52127,-4.47342 0.68977,-7.03052 0.23011,-3.49196 0.23174,-5.86295 0.007,-9.525 -0.16488,-2.68165 -0.53365,-6.30448 -0.81949,-8.05073 -0.28584,-1.74625 -0.58073,-3.53219 -0.65531,-3.96875 -0.0746,-0.43656 -0.50024,-2.16297 -0.94592,-3.83646 -0.44568,-1.67349 -1.17821,-4.11427 -1.62785,-5.42396 -0.44964,-1.30968 -1.23368,-3.45281 -1.74231,-4.7625 -0.50864,-1.30968 -1.62792,-3.7967 -2.48731,-5.5267 -0.85938,-1.72999 -2.42445,-4.58749 -3.47793,-6.35 -1.05349,-1.7625 -2.97942,-4.6333 -4.27984,-6.37955 -1.30043,-1.74625 -2.50412,-3.29406 -2.67488,-3.43958 -0.17076,-0.14552 -1.14473,-1.27808 -2.16437,-2.51679 -1.01965,-1.23871 -2.74554,-3.08489 -3.83532,-4.10262 -1.08977,-1.01773 -2.98272,-2.69715 -4.20655,-3.73205 -1.22383,-1.0349 -3.26859,-2.66555 -4.54391,-3.62366 -1.27532,-0.95812 -3.83516,-2.68322 -5.68854,-3.83356 -1.85338,-1.15033 -5.10491,-2.93512 -7.22562,-3.96619 -2.12103,-1.03088 -4.68088,-2.18971 -5.68886,-2.57499 -1.00799,-0.38528 -3.02333,-1.09832 -4.47854,-1.58454 -1.45521,-0.48621 -4.07458,-1.24213 -5.82083,-1.67981 -1.74625,-0.43768 -4.30609,-0.99175 -5.68854,-1.23127 -1.38245,-0.23952 -4.00183,-0.60284 -5.82084,-0.80737 -1.81901,-0.20453 -5.62901,-0.37289 -8.46666,-0.37412 -3.44942,-0.002 -6.65627,0.17089 -9.67586,0.52015 -2.48407,0.28732 -5.3815,0.70436 -6.43874,0.92676 -1.05724,0.2224 -3.13248,0.70966 -4.61164,1.08282 -1.47916,0.37315 -3.76095,1.04309 -5.07064,1.48875 -1.30969,0.44565 -3.45281,1.22343 -4.7625,1.72838 -1.30969,0.50496 -3.69094,1.54713 -5.29167,2.31594 -1.60072,0.76881 -3.68432,1.84289 -4.63022,2.38684 -0.9459,0.54396 -2.4937,1.47863 -3.4396,2.07704 -0.9458,0.59842 -2.7318,1.79729 -3.9687,2.66416 -1.2369,0.86688 -2.8443,2.05845 -3.5719,2.64794 -0.7276,0.58948 -1.7992,1.47711 -2.3812,1.97249 -0.5821,0.49538 -2.0765,1.88048 -3.3208,3.07799 -1.2443,1.19752 -3.2204,3.23391 -4.3912,4.52531 -1.1709,1.29141 -2.8737,3.29387 -3.784,4.44992 -0.9103,1.15605 -2.7253,3.71589 -4.0334,5.68854 -1.3082,1.97265 -3.4326,5.72976 -4.7209,8.34913 -1.2883,2.61938 -2.8123,6.02417 -3.3867,7.56621 -0.5743,1.54204 -1.4726,4.28047 -1.9963,6.08542 -0.5236,1.80494 -1.139,4.23421 -1.3675,5.39837 -0.2285,1.16417 -0.4835,2.29526 -0.5666,2.51355 -0.083,0.21828 -0.1951,0.75406 -0.2488,1.19062 -0.054,0.43656 -0.2224,1.68672 -0.3751,2.77813 -0.1526,1.0914 -0.3907,4.11249 -0.5291,6.71352 -0.1638,3.08118 -0.1588,6.21595 0.014,8.99583 0.1462,2.34668 0.3888,5.21919 0.539,6.38336 0.1501,1.16416 0.5134,3.30729 0.8072,4.7625 0.2938,1.45521 0.6588,3.18161 0.8112,3.83646 0.1524,0.65484 0.6941,2.55984 1.2037,4.23333 0.5097,1.67349 1.396,4.29287 1.9697,5.82083 0.5736,1.52797 1.9233,4.56407 2.9994,6.74688 1.076,2.18281 2.9049,5.48508 4.064,7.33838 1.1592,1.8533 2.8543,4.35361 3.7669,5.55625 0.9126,1.20264 2.519,3.19865 3.5697,4.43558 1.0508,1.23693 2.3729,2.69443 2.9381,3.2389 l 1.0276,0.98994 1.305,1.33845 1.8521,1.73273 c 1.0186,0.953 2.8259,2.52148 4.0162,3.48551 l 2.1641,1.75279 -0.522,0.73297 -0.5219,0.73298 -1.5099,-1.1591 -1.5098,-1.1591 -0.6194,0.57297 c -0.3406,0.31513 -1.0263,1.1261 -1.5236,1.80215 -0.5543,0.75338 -0.841,1.39424 -0.7407,1.65558 0.1033,0.26915 -0.1642,0.80386 -0.7253,1.45003 -0.4889,0.563 -1.538,1.82235 -2.3313,2.79856 -0.7934,0.97621 -1.5708,1.95044 -1.7276,2.16494 -0.2454,0.33558 -0.3764,0.31019 -0.9389,-0.18192 z m 144.2057,-91.93096 c 0,-0.0728 -0.0595,-0.13229 -0.13229,-0.13229 -0.0728,0 -0.13229,0.0595 -0.13229,0.13229 0,0.0728 0.0595,0.13229 0.13229,0.13229 0.0728,0 0.13229,-0.0595 0.13229,-0.13229 z m -81.75625,-81.227067 c 0,-0.0728 0.0595,-0.13229 0.13229,-0.13229 0.0728,0 0.13229,0.0595 0.13229,0.13229 0,0.0728 -0.0595,0.13229 -0.13229,0.13229 -0.0728,0 -0.13229,-0.0595 -0.13229,-0.13229 z"
           id="path2-5-3"
           sodipodi:nodetypes="scssssssscsccssssssssssssssssscssssssssssssssssssssscssscccssscssssssssssssssssssssssssssscsssscssssssscssscssssssscsscssssssssssssssssscssssscssccsssccssssssccssssssssssssssscssssssscsscssssscsssssssssscssscssscsssssssssssssssssscsssscsssscssscccssscsssssssssssssssccsssssscssssssscssssscssscssssssssssscccccssssssssssssscsssssssssssssscssssscsssssssssssssssssssssssssssssssssscccscccccssssssccsssssssssss" /><path
           style="fill:#c80909;fill-opacity:1"
           d="m -881.5588,238.04457 -1.91439,-2.04991 c -1.05291,-1.12744 -2.84415,-3.25055 -3.98053,-4.718 -1.13639,-1.46746 -2.91894,-3.97584 -3.96125,-5.57419 -1.0423,-1.59835 -2.94811,-5.04922 -4.23513,-7.66859 -1.28702,-2.61938 -2.7628,-5.95313 -3.27951,-7.40833 -0.51671,-1.45521 -1.36006,-4.13412 -1.87412,-5.95313 -0.51406,-1.81901 -1.23555,-5.07214 -1.60333,-7.22918 -0.36777,-2.15704 -0.78648,-5.25267 -0.93047,-6.87917 -0.14398,-1.6265 -0.26281,-4.21991 -0.26405,-5.76313 -10e-4,-1.54321 0.12145,-4.32945 0.27267,-6.19163 0.15121,-1.86219 0.56733,-5.11185 0.92472,-7.22148 0.35738,-2.10962 1.02004,-5.21698 1.47259,-6.90523 0.45255,-1.68826 0.89628,-3.18862 0.98607,-3.33414 0.0898,-0.14552 0.18253,-0.39089 0.20609,-0.54526 0.0236,-0.15436 0.48837,-1.52358 1.03293,-3.0427 0.54455,-1.51913 1.66685,-4.19079 2.49399,-5.93704 0.82714,-1.74625 2.02273,-4.06797 2.65687,-5.15938 0.63413,-1.0914 1.69324,-2.81781 2.35358,-3.83646 0.66033,-1.01864 2.21756,-3.2213 3.46052,-4.89479 1.24296,-1.67349 3.92719,-4.75347 5.96496,-6.8444 2.03777,-2.09093 5.07426,-4.90055 6.74774,-6.2436 1.67349,-1.34305 4.29287,-3.26747 5.82084,-4.27649 1.52797,-1.00902 3.61156,-2.30219 4.63021,-2.87371 1.01864,-0.57152 2.86106,-1.54783 4.09425,-2.16957 1.2332,-0.62174 3.73351,-1.71188 5.55625,-2.42254 1.82275,-0.71065 4.08799,-1.53882 5.03387,-1.84038 0.94589,-0.30155 2.43417,-0.74649 3.30729,-0.98874 0.87313,-0.24225 2.7186,-0.67085 4.10105,-0.95246 1.38244,-0.2816 3.70416,-0.69273 5.15937,-0.91363 1.45521,-0.22089 5.39436,-0.47018 8.75368,-0.55398 3.91805,-0.0977 7.23811,-0.0395 9.26041,0.16232 1.73392,0.17307 5.17664,0.71874 7.6505,1.21259 2.47385,0.49385 5.68854,1.27488 7.14375,1.73564 1.4552,0.46075 3.86793,1.30013 5.3616,1.8653 1.49367,0.56516 3.99399,1.6471 5.55625,2.40431 1.56226,0.75721 3.97157,2.02761 5.35402,2.82311 1.38245,0.79551 3.10886,1.85736 3.83646,2.35968 0.7276,0.50231 2.07888,1.46411 3.00284,2.13732 0.92396,0.67322 3.03714,2.38726 4.69596,3.80899 1.65882,1.42173 3.64129,3.22487 4.40549,4.00699 0.7642,0.78212 1.95558,2.05966 2.6475,2.83899 0.69192,0.77934 1.89032,2.19088 2.66313,3.13676 0.7728,0.94589 1.93309,2.43417 2.57842,3.30729 0.64533,0.87313 1.51878,2.12328 1.941,2.77813 0.42222,0.65484 1.33176,2.14312 2.0212,3.30729 0.68944,1.16417 2.02531,3.72401 2.9686,5.68854 0.94329,1.96453 1.92348,4.16719 2.17821,4.89479 0.25473,0.72761 0.61285,1.68011 0.79582,2.11667 0.18297,0.43656 0.63974,1.74625 1.01504,2.91042 0.3753,1.16416 0.98161,3.3155 1.34736,4.78073 0.36575,1.46524 0.90163,4.11456 1.19086,5.88737 0.28922,1.77282 0.66596,5.03883 0.8372,7.25781 0.18397,2.38399 0.24197,5.74402 0.14179,8.21323 -0.0933,2.2983 -0.40792,5.87667 -0.69928,7.95192 -0.29135,2.07526 -0.87999,5.19546 -1.30808,6.93378 -0.42809,1.73832 -1.18635,4.41074 -1.68501,5.9387 -0.49866,1.52797 -1.27235,3.68811 -1.7193,4.80031 -0.44695,1.11219 -1.34765,3.13626 -2.00156,4.49791 -0.6539,1.36166 -1.80705,3.54731 -2.56254,4.85699 -0.7555,1.30969 -2.18343,3.59108 -3.17319,5.06976 -0.98976,1.47868 -1.97881,2.90743 -2.19788,3.175 -0.21908,0.26757 -1.28177,1.55806 -2.36154,2.86774 -1.07977,1.30969 -3.09579,3.52328 -4.48003,4.91909 -1.38425,1.39581 -3.5289,3.39011 -4.76589,4.43177 -1.237,1.04167 -2.37918,1.89394 -2.53819,1.89394 -0.15901,0 -0.42839,-0.26025 -0.59862,-0.57834 -0.26607,-0.49716 -0.21701,-0.6579 0.34964,-1.1453 l 0.65915,-0.56698 -2.09677,-2.55823 c -1.59168,-1.94199 -2.05626,-2.68586 -1.92861,-3.08803 0.0925,-0.29139 0.32693,-0.52979 0.521,-0.52979 0.19407,0 1.28737,1.12314 2.42956,2.49587 1.1422,1.37274 2.17632,2.50383 2.29806,2.51355 0.12173,0.01 0.98928,-0.71976 1.92788,-1.62105 l 1.70655,-1.63871 -2.25861,-2.26913 c -1.24224,-1.24802 -2.25862,-2.47887 -2.25862,-2.73522 0,-0.25635 0.18914,-0.53867 0.42031,-0.62738 0.29079,-0.11158 1.12816,0.54328 2.71722,2.12498 1.26329,1.25744 2.39774,2.28625 2.521,2.28625 0.12326,0 0.89481,-0.73086 1.71456,-1.62413 0.81975,-0.89328 1.49045,-1.71562 1.49045,-1.82742 0,-0.11181 -1.10132,-1.11935 -2.44739,-2.23899 -1.34607,-1.11963 -2.4474,-2.18772 -2.4474,-2.37351 0,-0.1858 0.15694,-0.46807 0.34876,-0.62726 0.25819,-0.21428 0.51586,-0.17415 0.99219,0.15454 0.35388,0.2442 1.57117,1.20814 2.70509,2.14209 1.13391,0.93396 2.09303,1.6535 2.13138,1.599 0.0383,-0.0545 0.69662,-0.9005 1.46282,-1.87998 0.7662,-0.97947 1.31692,-1.90412 1.22381,-2.05476 -0.0931,-0.15064 -1.06825,-0.89706 -2.167,-1.65872 -1.09875,-0.76165 -2.22164,-1.50234 -2.4953,-1.64599 -0.27367,-0.14365 -0.49758,-0.53434 -0.49758,-0.8682 0,-0.33386 0.17219,-0.6731 0.38265,-0.75386 0.21693,-0.0832 1.44873,0.58969 2.84427,1.55382 1.35389,0.93536 2.60646,1.78364 2.7835,1.88507 0.20699,0.1186 0.75984,-0.47423 1.549,-1.661 0.67492,-1.01499 1.17876,-1.99053 1.11965,-2.16787 -0.0591,-0.17734 -0.87523,-0.77508 -1.81359,-1.32831 -0.93836,-0.55323 -2.15259,-1.25155 -2.69829,-1.55182 -0.63664,-0.35031 -0.99219,-0.73663 -0.99219,-1.07804 0,-0.29265 0.17115,-0.59777 0.38033,-0.67804 0.20919,-0.0803 1.66224,0.57031 3.229,1.44575 1.56677,0.87543 2.9464,1.5313 3.06584,1.45748 0.11944,-0.0738 0.63092,-0.95582 1.13662,-1.96001 0.5057,-1.00419 0.91946,-1.93102 0.91946,-2.05963 0,-0.12861 -1.30692,-0.81619 -2.90426,-1.52796 -2.46089,-1.09656 -2.9052,-1.38627 -2.91042,-1.89774 -0.003,-0.33199 0.16838,-0.67059 0.38169,-0.75244 0.21332,-0.0819 1.71241,0.46669 3.33132,1.21899 1.61891,0.75231 2.97019,1.32904 3.00284,1.28162 0.0327,-0.0474 0.43856,-0.95047 0.90202,-2.00678 0.46345,-1.0563 0.84264,-2.0981 0.84264,-2.3151 0,-0.217 -0.14883,-0.39674 -0.33073,-0.39943 -0.1819,-0.003 -1.58088,-0.46819 -3.10885,-1.03446 -1.52797,-0.56626 -2.80774,-1.18914 -2.84394,-1.38417 -0.0362,-0.19504 0.0505,-0.5332 0.19262,-0.75149 0.22267,-0.34193 0.65297,-0.25629 3.10853,0.6187 1.56754,0.55856 3.03494,1.07232 3.26087,1.14168 0.31516,0.0968 0.58364,-0.40504 1.15324,-2.15539 0.40834,-1.25483 0.69973,-2.31797 0.64754,-2.36254 -0.0522,-0.0446 -1.52275,-0.48414 -3.2679,-0.97684 -2.48486,-0.70154 -3.19343,-1.0037 -3.26718,-1.39328 -0.0518,-0.2736 0.0466,-0.58448 0.21873,-0.69085 0.1721,-0.10636 1.73566,0.16307 3.47459,0.59873 1.73893,0.43567 3.22809,0.72572 3.30924,0.64456 0.0812,-0.0811 0.36784,-1.13577 0.63708,-2.34358 0.26924,-1.20782 0.463,-2.22255 0.43059,-2.25496 -0.0324,-0.0324 -1.47385,-0.30839 -3.20319,-0.61328 -1.72933,-0.30489 -3.24369,-0.61581 -3.36524,-0.69093 -0.12155,-0.0751 -0.221,-0.36065 -0.221,-0.63452 0,-0.27386 0.11685,-0.57015 0.25968,-0.65842 0.14282,-0.0883 1.6989,0.0949 3.45796,0.40697 1.75906,0.3121 3.24941,0.51634 3.31189,0.45387 0.0625,-0.0625 0.24544,-1.09328 0.40658,-2.29068 0.16115,-1.1974 0.22405,-2.24603 0.13978,-2.3303 -0.0843,-0.0843 -1.37683,-0.26033 -2.87236,-0.39125 -1.49554,-0.13092 -2.98704,-0.29516 -3.31447,-0.36498 -0.37808,-0.0806 -0.59531,-0.32124 -0.59531,-0.65939 0,-0.29283 0.1891,-0.60499 0.42022,-0.69368 0.23111,-0.0887 1.80835,-0.035 3.50496,0.11932 1.69661,0.15431 3.09826,0.26038 3.11479,0.2357 0.0165,-0.0247 0.10463,-1.14275 0.19578,-2.48461 l 0.16573,-2.43974 -3.5023,-0.0738 -3.5023,-0.0738 v -0.66146 -0.66145 l 3.51177,-0.0739 3.51178,-0.0739 -0.16154,-2.43968 c -0.0889,-1.34182 -0.19813,-2.47678 -0.24285,-2.52213 -0.0447,-0.0453 -1.52373,0.0502 -3.2867,0.21243 -1.76298,0.16219 -3.32329,0.22204 -3.46737,0.13299 -0.14408,-0.0891 -0.26197,-0.33642 -0.26197,-0.54971 0,-0.2133 0.26789,-0.48844 0.59531,-0.61143 0.32743,-0.12299 1.66688,-0.3062 2.97657,-0.40712 1.30968,-0.10092 2.60376,-0.24799 2.87571,-0.32681 0.44619,-0.12931 0.47681,-0.3279 0.31354,-2.03373 -0.0995,-1.03973 -0.24173,-2.14276 -0.31604,-2.45118 -0.13246,-0.54976 -0.17235,-0.55359 -2.03333,-0.19538 -1.04402,0.20096 -2.52363,0.4651 -3.28803,0.58697 -1.05332,0.16794 -1.46085,0.13599 -1.68324,-0.13198 -0.16139,-0.19446 -0.2321,-0.5134 -0.15714,-0.70876 0.0854,-0.22263 1.34493,-0.56711 3.37453,-0.92296 1.78103,-0.31226 3.28746,-0.61697 3.34762,-0.67714 0.0602,-0.0602 -0.14197,-1.18002 -0.44918,-2.48858 l -0.55857,-2.37919 -0.97752,0.22607 c -0.53764,0.12433 -2.01506,0.51448 -3.28315,0.86699 -1.94432,0.54049 -2.35323,0.58359 -2.60929,0.27505 -0.16701,-0.20123 -0.24117,-0.5287 -0.16481,-0.72771 0.0764,-0.19901 1.36961,-0.68891 2.87387,-1.08868 1.50427,-0.39976 2.94339,-0.78226 3.19805,-0.84999 0.25466,-0.0677 0.46302,-0.26354 0.46302,-0.43514 0,-0.1716 -0.31065,-1.24479 -0.69033,-2.38486 -0.66409,-1.99409 -0.71688,-2.06647 -1.38906,-1.9046 -0.3843,0.0925 -1.81939,0.58463 -3.18907,1.09353 -2.21497,0.82296 -2.53427,0.88133 -2.88769,0.52791 -0.32027,-0.32027 -0.3335,-0.47429 -0.0682,-0.79397 0.18104,-0.21814 0.76613,-0.53609 1.30019,-0.70656 0.53406,-0.17047 1.87873,-0.6637 2.98816,-1.09607 l 2.01713,-0.78612 -0.89265,-2.14863 c -0.49095,-1.18175 -0.89265,-2.18289 -0.89265,-2.22476 0,-0.0419 -0.11393,-0.0761 -0.25317,-0.0761 -0.13924,0 -1.57871,0.6084 -3.19882,1.35201 -1.97108,0.90469 -3.03352,1.26414 -3.21123,1.08643 -0.14606,-0.14606 -0.22464,-0.4694 -0.17461,-0.71853 0.0569,-0.28316 1.18197,-0.95783 3.00137,-1.79976 1.60073,-0.74073 2.95241,-1.37536 3.00373,-1.41028 0.0513,-0.0349 -0.42494,-1.0235 -1.05834,-2.19684 -0.6334,-1.17334 -1.2632,-2.13346 -1.39956,-2.13361 -0.13636,-1.4e-4 -1.48479,0.72125 -2.9965,1.6031 -2.20257,1.28485 -2.82345,1.54121 -3.12551,1.29052 -0.20732,-0.17206 -0.37694,-0.4619 -0.37694,-0.64408 0,-0.18218 1.31374,-1.0832 2.91943,-2.00226 1.77167,-1.01406 2.87013,-1.79948 2.79404,-1.99777 -0.069,-0.17971 -0.628,-1.10959 -1.24231,-2.06638 -0.61431,-0.9568 -1.23007,-1.73964 -1.36836,-1.73964 -0.13828,0 -1.37906,0.78075 -2.75727,1.73499 -1.37822,0.95425 -2.70302,1.69702 -2.94401,1.65061 -0.24098,-0.0464 -0.47432,-0.27217 -0.51852,-0.50169 -0.0526,-0.27328 0.83236,-1.04839 2.56432,-2.24592 1.45457,-1.00574 2.6461,-1.94767 2.64784,-2.0932 0.002,-0.14552 -0.59017,-1.06825 -1.31534,-2.05052 -0.72517,-0.98226 -1.49031,-1.78593 -1.70031,-1.78593 -0.21,0 -0.59481,0.21397 -0.85514,0.4755 -0.26033,0.26153 -1.27157,1.16427 -2.24721,2.0061 -1.0603,0.91488 -1.96376,1.49402 -2.24592,1.43969 -0.25962,-0.05 -0.50828,-0.27911 -0.55258,-0.50914 -0.0477,-0.24753 0.545,-0.92676 1.45217,-1.66425 0.84299,-0.68532 1.97919,-1.60818 2.5249,-2.05081 0.5457,-0.44263 0.99219,-0.88336 0.99219,-0.97939 0,-0.096 -0.76004,-0.99687 -1.68898,-2.00186 l -1.68898,-1.82724 -2.30555,2.30555 c -1.31486,1.31487 -2.48401,2.27093 -2.72087,2.22497 -0.22842,-0.0443 -0.46202,-0.22084 -0.51909,-0.39228 -0.0571,-0.17143 0.91532,-1.31035 2.16089,-2.53094 1.24556,-1.22059 2.26466,-2.34799 2.26466,-2.50533 0,-0.15734 -0.82398,-1.01659 -1.83106,-1.90943 -1.82343,-1.61659 -1.83273,-1.62094 -2.23575,-1.04555 -0.22259,0.31779 -0.92255,1.12533 -1.55546,1.79454 -0.63292,0.66921 -1.42079,1.60359 -1.75084,2.0764 -0.50254,0.71991 -0.6832,0.81517 -1.1114,0.586 -0.28123,-0.15051 -0.51133,-0.39825 -0.51133,-0.55054 0,-0.15229 0.44441,-0.83271 0.98756,-1.51205 0.54316,-0.67933 1.50851,-1.82787 2.14523,-2.5523 l 1.15766,-1.31715 -0.88845,-0.7548 c -0.48865,-0.41515 -1.41255,-1.12051 -2.05312,-1.56748 -1.03483,-0.72208 -1.19705,-0.76532 -1.45521,-0.38787 -0.1598,0.23364 -0.82632,1.21677 -1.48117,2.18473 -0.65484,0.96796 -1.44487,2.07101 -1.75563,2.45123 -0.48611,0.59476 -0.62466,0.64179 -0.99219,0.33677 -0.23494,-0.19499 -0.42718,-0.46657 -0.42718,-0.60351 0,-0.13693 0.85431,-1.44555 1.89847,-2.90804 l 1.89846,-2.65907 -0.64169,-0.5022 c -0.35293,-0.2762 -1.2515,-0.85801 -1.99682,-1.29289 -0.74532,-0.43488 -1.45969,-0.78657 -1.5875,-0.78153 -0.1278,0.005 -0.94675,1.25405 -1.81987,2.77557 -1.07663,1.87615 -1.73918,2.76723 -2.05883,2.76896 -0.25923,10e-4 -0.53702,-0.16865 -0.61732,-0.37791 -0.0803,-0.20925 0.58707,-1.65303 1.48304,-3.20839 0.89597,-1.55536 1.53095,-2.91828 1.41107,-3.0287 -0.11988,-0.11043 -1.05914,-0.63118 -2.08724,-1.15724 -1.02811,-0.52605 -1.95159,-0.95645 -2.05218,-0.95645 -0.1006,0 -0.82874,1.36922 -1.61811,3.0427 -0.95073,2.0156 -1.57817,3.04271 -1.85873,3.04271 -0.23293,0 -0.49512,-0.18658 -0.58263,-0.41463 -0.0878,-0.22877 0.41999,-1.67007 1.13278,-3.21534 0.71054,-1.54039 1.32567,-2.88388 1.36695,-2.98554 0.0413,-0.10166 -0.73262,-0.54405 -1.71979,-0.9831 -0.98717,-0.43904 -2.04371,-0.87548 -2.34788,-0.96986 -0.49925,-0.15491 -0.64829,0.0926 -1.53265,2.54479 -0.5388,1.49402 -1.07682,2.89499 -1.1956,3.11327 -0.11879,0.21828 -0.43949,0.39687 -0.71268,0.39687 -0.27319,0 -0.53283,-0.18757 -0.57698,-0.41682 -0.0442,-0.22926 0.39703,-1.71526 0.98041,-3.30222 0.58338,-1.58696 0.97506,-2.9615 0.8704,-3.05452 -0.10466,-0.093 -1.13696,-0.48214 -2.29401,-0.86469 -1.15705,-0.38255 -2.17931,-0.60638 -2.27169,-0.4974 -0.0924,0.10899 -0.43221,1.21018 -0.75517,2.44711 -0.32296,1.23693 -0.70892,2.63591 -0.85768,3.10885 -0.17795,0.56574 -0.43914,0.8599 -0.76351,0.8599 -0.27117,0 -0.56504,-0.1165 -0.65304,-0.2589 -0.088,-0.14239 0.21435,-1.69832 0.67191,-3.45761 0.45755,-1.7593 0.79042,-3.23602 0.7397,-3.28162 -0.0507,-0.0456 -0.94915,-0.27561 -1.99652,-0.51114 -1.04738,-0.23553 -2.12375,-0.42823 -2.39193,-0.42823 -0.41579,0 -0.55992,0.43847 -0.97842,2.97656 -0.26994,1.63711 -0.54576,3.12539 -0.61294,3.30729 -0.0672,0.18191 -0.40706,0.33073 -0.75529,0.33073 -0.42692,0 -0.63289,-0.15081 -0.63235,-0.46302 4.4e-4,-0.25466 0.23856,-1.68763 0.52916,-3.18438 0.29061,-1.49675 0.52837,-2.88201 0.52837,-3.07837 0,-0.23846 -0.50518,-0.41363 -1.52135,-0.52752 -0.83675,-0.0938 -1.95519,-0.23489 -2.48542,-0.31357 l -0.96406,-0.14306 -0.15278,1.53986 c -0.084,0.84692 -0.22783,2.40306 -0.31956,3.45809 -0.15907,1.82946 -0.19763,1.91823 -0.8333,1.91823 h -0.66652 l 0.19131,-3.57188 0.19131,-3.57188 h -2.54065 -2.54065 v 3.43959 3.43958 h -0.66145 -0.66146 v -3.43958 -3.43959 h -2.46945 c -1.35819,0 -2.52285,0.0534 -2.58813,0.11869 -0.0653,0.0653 0.0282,1.57427 0.20767,3.3533 0.17949,1.77904 0.26556,3.33298 0.19126,3.45319 -0.0743,0.12022 -0.36992,0.21858 -0.65694,0.21858 -0.28702,0 -0.57451,-0.14883 -0.63886,-0.33073 -0.0643,-0.1819 -0.22902,-1.67984 -0.36593,-3.32875 -0.13691,-1.64891 -0.30352,-3.05262 -0.37025,-3.11935 -0.0667,-0.0667 -1.21389,0.0188 -2.54924,0.19004 -2.41834,0.31014 -2.42736,0.31409 -2.28924,1.00268 0.0763,0.38022 0.32676,1.80893 0.55664,3.1749 0.22989,1.36598 0.35569,2.6459 0.27956,2.84427 -0.0761,0.19838 -0.37224,0.36069 -0.65804,0.36069 -0.28581,0 -0.57926,-0.20836 -0.65213,-0.46303 -0.0729,-0.25466 -0.33845,-1.75505 -0.59017,-3.3342 l -0.45767,-2.87118 -1.08131,0.16407 c -0.59473,0.0902 -1.70639,0.29989 -2.47038,0.46589 -0.76398,0.166 -1.38906,0.44445 -1.38906,0.61879 0,0.17433 0.36611,1.59408 0.81357,3.15501 0.44746,1.56093 0.74886,3.00669 0.66976,3.21281 -0.0791,0.20611 -0.37722,0.37475 -0.6625,0.37475 -0.40465,0 -0.61432,-0.33451 -0.95358,-1.52135 -0.23918,-0.83675 -0.61297,-2.1762 -0.83064,-2.97656 -0.21766,-0.80037 -0.44048,-1.59644 -0.49515,-1.76905 -0.071,-0.2243 -0.72634,-0.12302 -2.29699,0.355 -1.20868,0.36787 -2.28183,0.74811 -2.38477,0.84498 -0.10295,0.0969 0.28993,1.46968 0.87308,3.05069 0.58314,1.58101 1.02293,3.0684 0.9773,3.30532 -0.0456,0.23692 -0.3164,0.43076 -0.60173,0.43076 -0.39998,0 -0.6773,-0.42412 -1.21103,-1.85208 -0.38074,-1.01865 -0.90131,-2.422 -1.15683,-3.11856 -0.4029,-1.09831 -0.54024,-1.24299 -1.03431,-1.08958 -0.31335,0.0973 -1.36411,0.53017 -2.33503,0.96194 l -1.7653,0.78506 0.47414,1.09828 c 0.26078,0.60405 0.8555,1.90212 1.32161,2.8846 0.46611,0.98247 0.80764,1.99314 0.75896,2.24592 -0.0487,0.25278 -0.2957,0.4995 -0.54894,0.54827 -0.35487,0.0683 -0.76359,-0.55736 -1.7829,-2.72937 -0.72736,-1.54992 -1.32247,-2.92791 -1.32247,-3.06219 0,-0.13429 -0.12641,-0.24416 -0.2809,-0.24416 -0.15449,0 -1.17827,0.43757 -2.27505,0.97239 -1.09678,0.53481 -2.05929,1.14214 -2.1389,1.34962 -0.0796,0.20747 -0.0264,0.45451 0.11831,0.54896 0.14469,0.0945 0.56979,0.72543 0.94465,1.40217 0.37487,0.67673 0.98821,1.71616 1.36298,2.30984 0.37478,0.59368 0.68141,1.31991 0.68141,1.61384 0,0.35477 -0.17469,0.53443 -0.51963,0.53443 -0.30377,0 -0.79837,-0.4102 -1.19062,-0.98746 -0.36905,-0.54311 -0.671,-1.07292 -0.671,-1.17736 0,-0.10445 -0.35719,-0.71915 -0.79375,-1.36602 -0.43656,-0.64686 -0.79375,-1.28386 -0.79375,-1.41555 0,-0.1317 -0.13206,-0.37151 -0.29347,-0.53292 -0.21491,-0.21491 -0.79926,0.029 -2.18282,0.91115 -1.03913,0.66254 -1.9877,1.29183 -2.10793,1.39842 -0.12023,0.10659 0.62391,1.45166 1.65365,2.98903 1.02973,1.53738 1.87224,2.92134 1.87224,3.07547 0,0.15413 -0.27963,0.28024 -0.6214,0.28024 -0.48148,0 -0.92823,-0.46173 -1.98403,-2.05052 -0.74944,-1.12779 -1.59703,-2.32417 -1.88351,-2.65862 l -0.52089,-0.60811 -1.99103,1.49857 -1.99102,1.49857 0.85634,1.09391 c 0.47098,0.60165 1.41387,1.79149 2.09531,2.64411 0.68144,0.85261 1.17543,1.71581 1.09775,1.91823 -0.0777,0.20241 -0.33684,0.3609 -0.57594,0.3522 -0.23909,-0.009 -0.97049,-0.66483 -1.62533,-1.45807 -0.65485,-0.79324 -1.60735,-1.91382 -2.11667,-2.49019 l -0.92604,-1.04794 -1.85209,1.70565 -1.85208,1.70565 2.3151,2.32695 c 1.27331,1.27982 2.31511,2.53669 2.31511,2.79304 0,0.25635 -0.15661,0.52619 -0.34802,0.59964 -0.19563,0.0751 -1.44077,-0.91838 -2.84374,-2.26893 l -2.49574,-2.40247 -0.88576,1.00385 c -0.48717,0.55212 -1.25135,1.40939 -1.69818,1.90505 l -0.8124,0.9012 0.63931,0.50182 c 0.35163,0.27599 1.05604,0.8483 1.56536,1.27179 0.50933,0.42349 1.39293,1.17116 1.96356,1.66149 0.72166,0.62011 0.98597,1.02583 0.8682,1.33273 -0.0931,0.24268 -0.40126,0.44123 -0.68474,0.44123 -0.28348,0 -0.55511,-0.0944 -0.60361,-0.20972 -0.0485,-0.11534 -1.08237,-1.00831 -2.29746,-1.98437 -1.21509,-0.97606 -2.28974,-1.77466 -2.3881,-1.77466 -0.0984,0 -0.81816,0.85432 -1.59956,1.89848 l -1.42072,1.89848 0.80657,0.68121 c 0.44361,0.37466 1.65811,1.25807 2.69889,1.96313 1.25808,0.85226 1.86427,1.42767 1.80859,1.71675 -0.0461,0.23916 -0.26861,0.47043 -0.49456,0.51395 -0.22595,0.0435 -1.29614,-0.51397 -2.37821,-1.23885 -1.08206,-0.72488 -2.28474,-1.56538 -2.67261,-1.86777 l -0.70522,-0.54982 -1.25898,2.01997 c -0.95372,1.53017 -1.19551,2.1206 -0.99718,2.43501 0.14399,0.22828 0.96835,0.80749 1.83191,1.28714 0.86356,0.47965 1.95183,1.07291 2.41837,1.31837 0.46655,0.24545 0.91509,0.62041 0.99675,0.83323 0.0817,0.21283 0.0144,0.54854 -0.14951,0.74603 -0.24478,0.29493 -0.65912,0.16554 -2.31967,-0.72443 -1.11192,-0.59592 -2.31932,-1.28885 -2.68312,-1.53985 -0.36381,-0.25099 -0.80015,-0.53616 -0.96965,-0.63371 -0.19639,-0.11302 -0.75423,0.6611 -1.53775,2.13397 -0.67626,1.27123 -1.13288,2.34569 -1.01473,2.38769 0.11816,0.042 1.46499,0.6483 2.99296,1.34732 1.81473,0.83021 2.80967,1.4347 2.86908,1.74314 0.05,0.2597 -0.0294,0.5925 -0.1764,0.73955 -0.1801,0.1801 -1.21826,-0.17451 -3.18065,-1.08644 -1.60231,-0.74459 -3.01597,-1.3538 -3.14146,-1.3538 -0.1255,0 -0.61037,0.88881 -1.0775,1.97513 -0.46713,1.08631 -0.84932,2.13406 -0.84932,2.32833 0,0.19426 -0.14883,0.5201 -0.33073,0.72409 -0.28106,0.31519 -0.26165,0.31865 0.12924,0.0231 0.39186,-0.29632 0.87116,-0.20134 3.23636,0.64134 1.52701,0.54404 2.91714,1.15877 3.08917,1.36606 0.24341,0.2933 0.2298,0.45608 -0.0614,0.73391 -0.3154,0.30095 -0.78959,0.21203 -3.01998,-0.56634 -1.45521,-0.50785 -2.90611,-0.98456 -3.22422,-1.05936 -0.52471,-0.12339 -0.64343,0.0772 -1.27934,2.16208 -0.38553,1.26395 -0.66104,2.33147 -0.61224,2.37226 0.0488,0.0408 1.51747,0.48042 3.26372,0.97694 2.68137,0.76242 3.175,0.98407 3.175,1.42566 0,0.32679 -0.20494,0.5522 -0.54644,0.60104 -0.30055,0.043 -1.84741,-0.27548 -3.43747,-0.70767 -1.59007,-0.4322 -2.92284,-0.75401 -2.96171,-0.71514 -0.0389,0.0389 -0.3016,1.12742 -0.58385,2.41899 -0.28224,1.29157 -0.47532,2.38616 -0.42907,2.43242 0.0463,0.0463 1.49867,0.32534 3.22757,0.62019 1.72891,0.29484 3.24857,0.63976 3.37704,0.76648 0.12846,0.12671 0.16196,0.41699 0.0745,0.64505 -0.10119,0.26368 -0.47523,0.41052 -1.02732,0.40328 -0.47751,-0.006 -2.01885,-0.22104 -3.42519,-0.47729 l -2.55699,-0.46591 -0.14683,0.73414 c -0.0808,0.40378 -0.22583,1.5053 -0.3224,2.44781 -0.16958,1.65524 -0.15407,1.71807 0.45486,1.84279 0.34674,0.071 1.80987,0.25061 3.25141,0.3991 1.44154,0.14849 2.73727,0.38628 2.8794,0.52841 0.14214,0.14213 0.18101,0.46017 0.0864,0.70674 -0.14442,0.37635 -0.41548,0.42304 -1.68877,0.29083 -0.83421,-0.0866 -2.37995,-0.2362 -3.43498,-0.33242 l -1.91823,-0.17494 v 2.53982 2.53982 l 3.37344,0.074 3.37344,0.074 v 0.66146 0.66146 l -3.37344,0.074 -3.37344,0.074 v 2.50876 2.50877 l 0.99219,-0.14667 c 0.5457,-0.0807 2.12328,-0.17137 3.50573,-0.20156 2.41272,-0.0527 2.51688,-0.0314 2.59686,0.53106 0.0614,0.4316 -0.078,0.62231 -0.52916,0.72395 -0.33687,0.0759 -1.8361,0.24207 -3.33163,0.36929 -1.49553,0.12721 -2.78869,0.30085 -2.87369,0.38585 -0.085,0.085 -0.01,1.17318 0.16679,2.41818 0.17672,1.24501 0.43367,2.26364 0.57099,2.26364 0.13733,0 1.61458,-0.24436 3.28279,-0.54303 1.66821,-0.29867 3.15091,-0.47024 3.29487,-0.38126 0.14397,0.089 0.26176,0.39661 0.26176,0.68363 0,0.28702 -0.14882,0.57736 -0.33073,0.64521 -0.1819,0.0678 -1.62382,0.35509 -3.20428,0.63834 -1.58045,0.28324 -2.93719,0.57862 -3.01496,0.6564 -0.0778,0.0778 0.009,1.02375 0.19398,2.10216 0.18447,1.07842 0.42849,2.11138 0.54226,2.29547 0.16148,0.26127 0.89456,0.15939 3.34103,-0.46429 1.72379,-0.43945 3.28299,-0.74273 3.46489,-0.67396 0.1819,0.0688 0.33073,0.35337 0.33073,0.63244 0,0.30943 -0.2839,0.61642 -0.7276,0.78677 -0.40019,0.15365 -1.8587,0.5801 -3.24115,0.94766 -1.38245,0.36755 -2.54305,0.69504 -2.5791,0.72774 -0.0361,0.0327 0.23134,1.05141 0.59423,2.26381 0.36288,1.2124 0.71175,2.25633 0.77526,2.31984 0.0635,0.0635 0.98673,-0.2044 2.0516,-0.59535 1.06488,-0.39095 2.44429,-0.89091 3.06536,-1.11102 0.62107,-0.22011 1.31403,-0.32928 1.53991,-0.2426 0.23787,0.0913 0.37504,0.39504 0.32598,0.72187 -0.0686,0.4571 -0.66265,0.77708 -3.12741,1.68457 -2.71779,1.00066 -3.03547,1.18356 -2.97491,1.71278 0.0373,0.32587 0.4204,1.35428 0.85135,2.28537 0.43096,0.93108 0.83292,1.69287 0.89324,1.69287 0.0603,0 1.3441,-0.5936 2.85282,-1.31911 1.50872,-0.72551 2.93875,-1.32082 3.17784,-1.32292 0.23909,-0.002 0.50325,0.17479 0.58701,0.39308 0.0838,0.21828 0.0926,0.5457 0.0197,0.7276 -0.0729,0.1819 -1.43843,0.91754 -3.0344,1.63475 -1.59598,0.7172 -2.90178,1.40521 -2.90178,1.52889 0,0.12369 0.34756,0.9061 0.77235,1.7387 0.4248,0.83259 0.93264,1.72685 1.12855,1.98724 0.33286,0.44243 0.54175,0.3667 3.18838,-1.15586 1.63623,-0.94129 3.00316,-1.56369 3.23708,-1.47393 0.22269,0.0855 0.40489,0.38629 0.40489,0.66852 0,0.37212 -0.76347,0.9594 -2.77812,2.13696 -1.52797,0.89311 -2.77813,1.74641 -2.77813,1.89623 0,0.14982 0.53338,1.09692 1.18529,2.10467 0.65191,1.00775 1.24635,1.83227 1.32098,1.83227 0.0746,0 1.29742,-0.83633 2.71732,-1.85851 1.41989,-1.02217 2.76021,-1.82483 2.9785,-1.78367 0.21828,0.0412 0.42895,0.37147 0.46817,0.73402 0.0602,0.55648 -0.22842,0.85435 -1.85209,1.9116 -1.05786,0.68882 -2.28056,1.54147 -2.71713,1.89478 l -0.79375,0.64239 0.55918,0.61875 c 0.30755,0.34032 0.66474,0.80956 0.79375,1.04276 0.12902,0.2332 0.56667,0.81344 0.97257,1.28943 l 0.738,0.86542 1.31252,-1.09099 c 0.72189,-0.60004 1.8896,-1.57049 2.59492,-2.15656 0.84084,-0.69868 1.433,-1.00779 1.71979,-0.89774 0.24057,0.0923 0.4374,0.38109 0.4374,0.64171 0,0.27219 -1.05318,1.36631 -2.47451,2.57072 l -2.47451,2.09685 0.51876,0.64212 c 0.28531,0.35317 1.00206,1.16712 1.59278,1.80877 l 1.07403,1.16664 4.81922,-4.95508 1.23585,0.93281 -4.88797,5.29121 1.99775,1.69889 c 0.84353,0.79517 1.61743,1.4399 1.71979,1.43274 0.10236,-0.007 1.11999,-1.14445 2.26142,-2.52732 1.14142,-1.38287 2.20447,-2.47125 2.36234,-2.41863 0.15787,0.0526 0.40285,0.27927 0.54439,0.50367 0.1987,0.315 -0.21247,0.99213 -1.80387,2.9707 l -2.06122,2.56271 0.58867,0.62661 c 0.48621,0.51754 0.53705,0.72305 0.29211,1.18074 -0.16311,0.30477 -0.42376,0.55413 -0.57921,0.55413 -0.15546,0 -1.19307,-0.76238 -2.3058,-1.69416 -1.11273,-0.93179 -2.37284,-2.06288 -2.80025,-2.51354 -0.42741,-0.45066 -0.8576,-0.81939 -0.95598,-0.81939 z m -16.75336,-78.48417 c 0,-0.0728 -0.0595,-0.13229 -0.13229,-0.13229 -0.0728,0 -0.13229,0.0595 -0.13229,0.13229 0,0.0728 0.0595,0.13229 0.13229,0.13229 0.0728,0 0.13229,-0.0595 0.13229,-0.13229 z m 142.87501,-2.64583 c 0,-0.0728 -0.0595,-0.1323 -0.1323,-0.1323 -0.0728,0 -0.13229,0.0595 -0.13229,0.1323 0,0.0727 0.0595,0.13229 0.13229,0.13229 0.0728,0 0.1323,-0.0595 0.1323,-0.13229 z m -0.79375,-0.77814 c 0,-0.0642 -0.13746,-0.20163 -0.30547,-0.30546 -0.18925,-0.11697 -0.23364,-0.0726 -0.11668,0.11667 0.10384,0.16801 0.2413,0.30547 0.30547,0.30547 0.0642,0 0.11668,-0.0525 0.11668,-0.11668 z m -17.72709,-16.41978 c 0,-0.0728 -0.0595,-0.13229 -0.13229,-0.13229 -0.0728,0 -0.13229,0.0595 -0.13229,0.13229 0,0.0728 0.0595,0.13229 0.13229,0.13229 0.0728,0 0.13229,-0.0595 0.13229,-0.13229 z"
           id="path2-5-4"
           sodipodi:nodetypes="cssssssscssssssssssssssssssssssssssssssssssssssssssscsssssssssssssscsssscscssssssssssssssssssssssssssssssssccscsscsscscsssssscsssssssssssssssssccccccccsssssssssssssssscssscsssssssssscssssssssssssssssssssscsssssssssscssssssssssssscsssssssscsssscssssssssssssssscssssssssssssssssssssccsscccccccccccsssssssssssssssccssssssssssssssssscsssssssssssssssssssssssssscccsssssscccsssscsscssssssssscsssssscsssssssssssssssssssssssssssssssssssscssccssssssscccccccccccsssssscssssssscsssssssssssssssssscsssssssssssssssssscssscssssscsscsccscsssscssssssccssssssssssssssssssss" /><path
           style="fill:#000000"
           d="m -885.80058,243.56327 -0.6118,0.53062 c -0.3365,0.29184 -0.8355,0.53062 -1.1088,0.53062 -0.2733,0 -0.5695,-0.18894 -0.6581,-0.41988 -0.098,-0.25643 0.0933,-0.81142 0.50905,-1.22719 l 0.69135,-0.72295 1.2435,-1.33808 1.9517,-1.96481 1.9516,-1.9648 1.0622,-1.27352 2.6677,-2.76133 c 1.4672,-1.51873 4.4433,-4.6631 6.6135,-6.98748 2.1701,-2.32438 4.0751,-4.34962 4.2333,-4.50055 0.1581,-0.15092 1.3591,-1.40336 2.66877,-2.7832 1.30969,-1.37984 3.56529,-3.75667 5.01244,-5.28185 1.44715,-1.52517 3.76228,-3.96367 5.14473,-5.41887 1.38245,-1.45521 3.59169,-3.7796 4.90944,-5.1653 1.31774,-1.3857 4.18183,-4.41342 6.36464,-6.72826 2.18281,-2.31484 5.11722,-5.39818 6.52091,-6.85186 l 2.55216,-2.64305 -0.36934,-1.04685 c -0.20315,-0.57576 -0.36926,-1.89508 -0.36914,-2.93181 1.7e-4,-1.53297 0.14253,-2.1814 0.76236,-3.47246 0.41919,-0.87313 1.22276,-2.02776 1.78573,-2.56586 0.56296,-0.5381 1.73795,-1.30702 2.61107,-1.70871 1.28113,-0.5894 1.94494,-0.72585 3.43959,-0.70704 1.01864,0.0128 2.16584,0.14852 2.54933,0.30156 0.65963,0.26323 0.83809,0.13247 3.3073,-2.42345 1.43552,-1.48593 4.43758,-4.63295 6.67125,-6.99337 2.82257,-2.98274 4.23653,-4.29167 4.63605,-4.29167 0.36936,0 1.3721,0.80143 2.80529,2.2421 1.99725,2.00768 2.20412,2.30705 1.97853,2.86329 -0.13856,0.34165 -2.57364,2.82302 -5.4113,5.51416 -2.83765,2.69114 -5.91671,5.60185 -6.84234,6.46825 l -1.68298,1.57526 0.29244,1.05337 c 0.16084,0.57935 0.2931,1.67428 0.29391,2.43318 8.1e-4,0.75889 -0.19049,1.94523 -0.42511,2.63629 -0.23462,0.69106 -0.73198,1.67749 -1.10524,2.19206 -0.37326,0.51457 -1.0445,1.26386 -1.49165,1.66508 -0.44714,0.40123 -1.34877,0.97952 -2.00361,1.28511 -0.65484,0.30558 -1.96453,0.61622 -2.91042,0.69032 -0.94588,0.0741 -2.13651,0.0147 -2.64583,-0.13193 -0.50932,-0.14666 -1.10737,-0.34146 -1.32899,-0.43289 -0.2571,-0.10608 -0.83168,0.23062 -1.5875,0.93024 -0.6515,0.60307 -3.14871,2.95692 -5.54934,5.23078 -2.40064,2.27386 -5.61533,5.32491 -7.14375,6.78012 -1.52843,1.45521 -4.86256,4.60813 -7.40917,7.00649 -2.54661,2.39836 -5.9399,5.61409 -7.54063,7.14607 -1.60072,1.53197 -4.04151,3.85593 -5.42395,5.16434 -1.38245,1.30842 -4.51675,4.28394 -6.96515,6.61227 -2.4484,2.32833 -5.2464,4.98173 -6.2177,5.89643 l -1.7661,1.66309 -1.2039,1.30402 c -0.098,0 -1.0584,0.83599 -2.1333,1.85775 l -1.9545,1.85774 z m 62.40945,-56.48871 c 0.56479,-0.37376 1.25696,-1.05788 1.53814,-1.52026 0.28119,-0.46237 0.5884,-1.35512 0.68269,-1.98388 0.0992,-0.66154 0.0321,-1.64076 -0.1592,-2.3241 -0.21871,-0.78116 -0.68187,-1.49823 -1.3683,-2.11837 -0.57072,-0.51561 -1.33686,-1.05123 -1.70253,-1.19025 -0.36567,-0.13903 -1.26596,-0.25278 -2.00066,-0.25278 -0.88168,0 -1.68414,0.19577 -2.36039,0.57584 -0.56352,0.31672 -1.33819,1.02839 -1.7215,1.5815 -0.39091,0.5641 -0.75532,1.52381 -0.82993,2.18575 -0.0732,0.64906 -0.0556,1.59255 0.0389,2.09666 0.0946,0.5041 0.61523,1.41087 1.15703,2.01503 0.54179,0.60417 1.46133,1.27231 2.04341,1.48475 0.64523,0.23549 1.56519,0.33618 2.35687,0.25797 0.77538,-0.0766 1.71226,-0.40208 2.32543,-0.80786 z m 2.32915,-1.58443 c 0,-0.0728 -0.0595,-0.13229 -0.13229,-0.13229 -0.0728,0 -0.13229,0.0595 -0.13229,0.13229 0,0.0728 0.0595,0.13229 0.13229,0.13229 0.0728,0 0.13229,-0.0595 0.13229,-0.13229 z"
           id="path2-5-3-1"
           sodipodi:nodetypes="csssccccccsssssssscsssssssssssssscsssssssssssssssssccccccssssssssscsssssssssss" /><path
           d="m -836.69241,255.68337 -0.9219,-0.49422 -0.071,-5.5912 -0.071,-5.59119 h -0.6562 c -0.3609,0 -0.6561,-0.0893 -0.6559,-0.19844 10e-5,-0.10914 0.6252,-0.45409 1.389,-0.76655 0.7638,-0.31246 1.4324,-0.52676 1.4858,-0.47622 0.053,0.0505 0.077,1.43393 0.053,3.07421 l -0.044,2.98232 0.6325,-0.59419 c 0.3479,-0.3268 0.979,-0.69137 1.4024,-0.81015 0.4235,-0.11879 1.1102,-0.12282 1.526,-0.009 0.4159,0.11385 0.9979,0.42224 1.2933,0.6853 0.2955,0.26307 0.6994,0.86143 0.8976,1.3297 0.1983,0.46827 0.3604,1.41294 0.3604,2.09928 0,0.70129 -0.2285,1.72006 -0.5218,2.32588 -0.3126,0.64588 -0.9702,1.36877 -1.6404,1.80333 -0.8043,0.52144 -1.4582,0.72532 -2.3267,0.72532 -0.674,0 -1.6153,-0.21844 -2.1297,-0.49422 z m 4.0685,-1.15943 c 0.3587,-0.4732 0.6741,-1.27633 0.7018,-1.78593 0.027,-0.50933 0.038,-1.32216 0.023,-1.80629 -0.018,-0.59644 -0.2762,-1.12961 -0.8001,-1.65365 -0.4327,-0.43254 -1.0582,-0.7734 -1.4195,-0.7734 -0.3554,0 -0.9447,0.23481 -1.3095,0.52179 -0.6175,0.48567 -0.6666,0.69518 -0.7101,3.02749 -0.046,2.49178 -0.043,2.50794 0.6938,2.90721 0.4073,0.22082 1.0618,0.40626 1.4547,0.41209 0.5028,0.007 0.9068,-0.24381 1.3658,-0.84931 z m 4.5226,1.00422 c -0.4289,-0.42894 -0.6494,-0.94794 -0.6494,-1.52863 0,-0.48356 0.1939,-1.15615 0.4311,-1.49465 0.2371,-0.33849 1.1599,-0.9602 2.0506,-1.38158 0.8906,-0.42137 1.7837,-0.76622 1.9848,-0.76634 0.2714,-1.5e-4 0.3257,-0.24418 0.2111,-0.94985 -0.085,-0.52231 -0.2935,-1.11762 -0.4638,-1.32292 -0.1704,-0.2053 -0.5861,-0.37327 -0.9239,-0.37327 -0.3378,0 -0.7994,0.26462 -1.026,0.58804 -0.2265,0.32342 -0.4119,0.84646 -0.4119,1.16232 0,0.31585 -0.1997,0.65092 -0.4438,0.7446 -0.2445,0.0938 -0.6134,8e-4 -0.8212,-0.20703 -0.2584,-0.25838 -0.32,-0.63825 -0.1956,-1.20494 0.1136,-0.51696 0.4466,-0.96452 0.8874,-1.19236 0.388,-0.20062 1.0032,-0.39032 1.367,-0.42156 0.3638,-0.0312 1.0538,-0.0436 1.5334,-0.0275 0.5442,0.0183 1.11605,0.27335 1.52135,0.67872 0.6142,0.61413 0.6495,0.81461 0.6495,3.68855 0,1.8257 0.1102,3.10727 0.2761,3.2098 0.1519,0.0939 0.4525,0.0244 0.6679,-0.15438 0.2154,-0.17878 0.478,-0.23872 0.5835,-0.1332 0.1056,0.10552 -0.2047,0.54622 -0.6894,0.97932 -0.5338,0.47695 -1.1076,0.75523 -1.455,0.70573 -0.3156,-0.0449 -0.6837,-0.332 -0.8181,-0.63791 l -0.24435,-0.55619 -0.9171,0.62234 c -0.5044,0.34229 -1.2629,0.62234 -1.6858,0.62234 -0.4636,0 -1.0269,-0.25789 -1.4184,-0.64943 z m 3.5251,-1.08537 c 0.4852,-0.33984 0.5881,-0.66375 0.5881,-1.85208 0,-1.19561 -0.079,-1.44004 -0.4631,-1.43922 -0.2546,5.5e-4 -0.8423,0.2323 -1.306,0.51501 -0.4636,0.28271 -0.9763,0.76302 -1.1392,1.06734 -0.1629,0.30433 -0.2139,0.81671 -0.1134,1.13864 0.1004,0.32192 0.3153,0.67279 0.4775,0.7797 0.1623,0.10692 0.5365,0.19621 0.8315,0.19844 0.2952,0.002 0.8011,-0.18129 1.1246,-0.40783 z m 4.36635,1.05008 0.7357,-0.39894 -0.074,-3.22848 c -0.072,-3.12077 -0.094,-3.23131 -0.6695,-3.31303 -0.3275,-0.0465 -0.5953,-0.17939 -0.5953,-0.2953 0,-0.11591 0.625,-0.45061 1.389,-0.74377 0.764,-0.29317 1.4784,-0.48068 1.5875,-0.4167 0.1092,0.064 0.1985,0.42302 0.1985,0.79786 v 0.68153 l 0.5227,-0.66462 c 0.2876,-0.36553 0.7385,-0.72101 1.0021,-0.78994 0.2636,-0.0689 0.7427,-0.0279 1.0647,0.0912 0.3957,0.14635 0.5855,0.43647 0.5855,0.89486 0,0.37305 -0.1862,0.74973 -0.4138,0.83705 -0.2276,0.0873 -0.7192,0.0196 -1.0926,-0.15055 -0.5614,-0.2558 -0.7646,-0.23183 -1.1738,0.13852 -0.4253,0.38489 -0.4948,0.84997 -0.4948,3.3088 0,2.84896 0,2.86261 0.7276,3.25569 0.6904,0.37457 0.606,0.39473 -1.6537,0.39473 -2.271,0 -2.3472,-0.0185 -1.6456,-0.39895 z m -28.78145,-12.12962 c -0.4365,-0.2131 -0.987,-0.54455 -1.2232,-0.73657 -0.2363,-0.19202 -0.6823,-0.76374 -0.9912,-1.27049 -0.3552,-0.58253 -0.5605,-1.35921 -0.5583,-2.11198 0,-0.7423 0.2279,-1.58711 0.5997,-2.24357 0.3343,-0.59038 1.0589,-1.31492 1.6493,-1.64929 0.5917,-0.33514 1.5089,-0.59826 2.0939,-0.60071 0.5725,-0.002 1.5502,0.24222 2.1728,0.54359 0.6607,0.31986 1.3784,0.94682 1.7241,1.50624 0.4024,0.65103 0.5958,1.38733 0.6032,2.29633 0.01,0.73592 -0.1668,1.6844 -0.3839,2.10774 -0.2171,0.42334 -0.8365,1.12498 -1.3765,1.55919 -0.7077,0.5691 -1.3355,0.81705 -2.2489,0.88823 -0.7672,0.0598 -1.5804,-0.0541 -2.061,-0.28871 z m 41.01045,0.005 c -0.4366,-0.19403 -1.056,-0.63748 -1.3765,-0.98544 -0.3205,-0.34796 -0.7773,-1.09851 -1.0152,-1.66789 -0.302,-0.72264 -0.3801,-1.38504 -0.2588,-2.19375 0.1298,-0.86599 0.453,-1.44955 1.2798,-2.31109 0.7606,-0.79256 1.416,-1.21043 2.0983,-1.33781 0.5457,-0.10188 1.3956,-0.10956 1.8886,-0.0171 0.4931,0.0925 1.2847,0.43317 1.7591,0.75705 0.4744,0.32388 1.083,1.00373 1.3525,1.51078 0.2716,0.51118 0.4879,1.4542 0.4855,2.11667 0,0.7433 -0.2276,1.58715 -0.5953,2.23323 -0.3684,0.64741 -1.0301,1.27015 -1.7571,1.65365 -0.6413,0.33834 -1.5938,0.6105 -2.1166,0.60481 -0.5228,-0.006 -1.3078,-0.16911 -1.7443,-0.36315 z m -29.76565,-3.31226 c 0,-0.1354 0.2679,-0.28423 0.5953,-0.33073 0.5927,-0.0842 0.5957,-0.10792 0.6668,-5.55657 l 0.072,-5.47202 -0.7329,-0.0881 c -0.685,-0.0824 -0.6485,-0.12682 0.5575,-0.67954 0.7097,-0.32529 1.4538,-0.59142 1.6536,-0.59142 0.2174,0 0.3633,0.28412 0.3633,0.70757 v 0.70758 l 0.5954,-0.55939 c 0.3275,-0.30767 0.892,-0.66908 1.2544,-0.80313 0.3706,-0.13712 0.9941,-0.14758 1.4253,-0.0239 0.4216,0.12091 1.0047,0.4318 1.2959,0.69087 0.291,0.25906 0.6913,0.85416 0.8895,1.32243 0.1982,0.46827 0.3604,1.45183 0.3604,2.18569 0,0.80409 -0.2209,1.8043 -0.5559,2.51702 -0.3171,0.67459 -0.9274,1.41221 -1.4203,1.71691 -0.4755,0.29381 -1.3046,0.5342 -1.8427,0.5342 -0.5381,0 -1.214,-0.12612 -1.5021,-0.28027 -0.5025,-0.26895 -0.5205,-0.2022 -0.4456,1.65365 0.072,1.77637 0.1266,1.9408 0.6734,2.01846 0.3273,0.0465 0.5953,0.19533 0.5953,0.33073 0,0.1354 -1.012,0.24618 -2.2491,0.24618 -1.2369,0 -2.2489,-0.11078 -2.2489,-0.24618 z m 6.3382,-4.99301 c 0.4492,-0.44918 0.8133,-1.16726 0.9239,-1.82229 0.1005,-0.59455 0.055,-1.55513 -0.1011,-2.13461 -0.156,-0.57947 -0.5301,-1.36679 -0.8312,-1.74959 -0.3068,-0.39001 -0.8141,-0.696 -1.154,-0.696 -0.3336,0 -0.9203,0.24677 -1.3037,0.54837 -0.6644,0.5226 -0.6972,0.66472 -0.6972,3.02352 0,2.35879 0.033,2.50091 0.6972,3.0235 0.3834,0.30161 0.9283,0.54837 1.2109,0.54837 0.2827,0 0.8476,-0.33357 1.2552,-0.74127 z m 4.2456,-0.38321 c -2e-4,-0.83674 0.095,-1.52135 0.2109,-1.52135 0.1163,0 0.3625,0.41786 0.5472,0.92858 0.1986,0.54922 0.6474,1.08967 1.0985,1.32291 0.4194,0.21689 0.9338,0.39434 1.1432,0.39434 0.2093,0 0.64995,-0.21804 0.97905,-0.48452 0.4459,-0.36107 0.5564,-0.6516 0.4338,-1.14018 -0.1157,-0.46085 -0.7122,-0.96544 -2.00755,-1.69829 -1.0137,-0.57345 -1.9697,-1.31614 -2.1243,-1.65041 -0.1547,-0.33426 -0.2812,-0.89793 -0.2812,-1.25259 0,-0.35466 0.3336,-1.01826 0.7414,-1.47467 0.6448,-0.72168 0.8949,-0.82183 1.9183,-0.76842 0.6472,0.0338 1.50405,0.0652 1.90425,0.0699 0.7022,0.008 0.7276,0.0581 0.7276,1.42571 0,0.77948 -0.1061,1.41723 -0.2359,1.41723 -0.1297,0 -0.3037,-0.27026 -0.3866,-0.60058 -0.083,-0.33031 -0.3981,-0.86609 -0.7005,-1.19062 -0.3163,-0.33956 -0.86485,-0.59005 -1.29205,-0.59005 -0.4083,0 -0.949,0.22822 -1.2014,0.50716 -0.3629,0.401 -0.3983,0.62062 -0.1689,1.04926 0.1596,0.29816 1.1196,1.02652 2.13325,1.61858 1.0138,0.59206 1.9643,1.3027 2.1123,1.57919 0.1479,0.27648 0.269,0.81601 0.269,1.19895 0,0.38293 -0.1226,0.92531 -0.2724,1.20528 -0.1499,0.27997 -0.6238,0.6907 -1.0532,0.91275 -0.5323,0.27529 -1.37125,0.38137 -2.63735,0.33346 l -1.8568,-0.0702 z m 7.74665,0.96893 0.7356,-0.39894 -0.074,-3.22848 c -0.072,-3.12078 -0.094,-3.23132 -0.6695,-3.31304 -0.3274,-0.0465 -0.5952,-0.16557 -0.595,-0.26459 10e-5,-0.099 0.6252,-0.43464 1.389,-0.74583 l 1.3888,-0.56579 0.1323,4.05042 c 0.073,2.22775 0.1918,4.1019 0.2646,4.16481 0.073,0.0629 0.3704,0.24737 0.6615,0.40993 0.4223,0.23589 0.075,0.29504 -1.7198,0.29301 -2.1538,-0.002 -2.2179,-0.0194 -1.5133,-0.4015 z m 0.8211,-11.33838 c -0.081,-0.20978 -0.1049,-0.59673 -0.054,-0.85989 0.058,-0.30156 0.3248,-0.47848 0.7212,-0.47848 0.3459,0 0.7541,0.19838 0.9071,0.44084 0.2018,0.31992 0.1826,0.5558 -0.07,0.8599 -0.1913,0.23048 -0.5751,0.41905 -0.8529,0.41905 -0.2778,0 -0.5709,-0.17164 -0.6514,-0.38142 z"
           style="fill:#000000"
           id="path1" /></g></g></g></svg>
