<?xml version="1.0" encoding="UTF-8" standalone="no"?>
<!-- Created with Inkscape (http://www.inkscape.org/) -->

<svg
   version="1.1"
   id="svg22473"
   width="156.62399"
   height="455.91599"
   viewBox="0 0 156.62399 455.91601"
   sodipodi:docname="sensor_header_schematic.OFV-353.Polytec.svg"
   inkscape:version="1.2.2 (732a01da63, 2022-12-09)"
   xmlns:inkscape="http://www.inkscape.org/namespaces/inkscape"
   xmlns:sodipodi="http://sodipodi.sourceforge.net/DTD/sodipodi-0.dtd"
   xmlns="http://www.w3.org/2000/svg"
   xmlns:svg="http://www.w3.org/2000/svg">
  <defs
     id="defs22477">
    <clipPath
       clipPathUnits="userSpaceOnUse"
       id="clipPath22655">
      <path
         d="M 141.81,225.99 H 487.77 V 385.95 H 141.81 Z"
         clip-rule="evenodd"
         id="path22653" />
    </clipPath>
  </defs>
  <sodipodi:namedview
     id="namedview22475"
     pagecolor="#ffffff"
     bordercolor="#000000"
     borderopacity="0.25"
     inkscape:showpageshadow="2"
     inkscape:pageopacity="0.0"
     inkscape:pagecheckerboard="0"
     inkscape:deskcolor="#d1d1d1"
     showgrid="false"
     inkscape:zoom="1.1552495"
     inkscape:cx="86.994199"
     inkscape:cy="308.59136"
     inkscape:window-width="1920"
     inkscape:window-height="1051"
     inkscape:window-x="-9"
     inkscape:window-y="-9"
     inkscape:window-maximized="1"
     inkscape:current-layer="g22479" />
  <g
     id="g22479"
     inkscape:groupmode="layer"
     inkscape:label="Laser Doppler vibrometer - Cont - Polytec2"
     transform="matrix(1.3333333,0,0,-1.3333333,-341.86532,610.14798)">
    <g
       id="g22893"
       transform="rotate(90,315.133,286.6425)">
      <g
         id="g22803">
        <path
           d="m 194.06,322.338 c 0.54,-1.153 1.98,-1.477 2.952,-0.721 m 0,13.861 c -0.972,0.792 -2.412,0.432 -2.952,-0.684 m 10.261,-10.62 c -2.628,0 -5.221,-0.9 -7.309,-2.52 m 0,13.86 c 2.088,-1.656 4.681,-2.556 7.309,-2.556 m -10.261,1.836 c -1.836,-3.96 -1.836,-8.496 0,-12.456 m 11.161,-53.211 h 0.072 m 0,35.066 h -0.072 m -18.793,19.153 -0.612,-0.648 m 0,-72.111 0.612,-0.613 m -4.68,10.837 1.44,1.476 m -38.774,0 1.44,-1.476 m 37.334,1.476 h 2.628 m 0,48.746 h -2.628 m -37.334,-50.222 h 35.894 m 22.789,63.867 0.468,0.468 m 0.288,7.128 -0.288,-0.288 -0.468,0.468 m 0.468,-7.308 0.288,-0.288 m 274.295,-67.863 0.036,0.18 m -0.108,0.108 0.108,-0.108 m -0.108,0.108 -0.036,0.288 0.036,0.18 m -0.108,0.108 0.108,-0.108 m -0.108,0.108 -0.036,0.288 0.072,0.18 m -0.108,0.108 0.108,-0.108 m -0.108,0.108 -0.036,0.324 0.108,0.144 m -0.108,0.108 0.108,-0.108 m -0.108,0.108 v 0.324 l 0.108,0.144 m -0.108,0.144 0.108,-0.144 m -0.108,0.144 v 0.324 l 0.108,0.108 m -0.072,0.144 0.072,-0.144 m -0.072,0.144 v 0.324 l 0.144,0.108 m -0.072,0.18 0.072,-0.18 m -0.072,0.18 0.036,0.288 0.108,0.108 m -0.036,0.18 0.036,-0.18 m -0.036,0.18 0.036,0.288 0.144,0.072 m -0.072,0.18 0.072,-0.18 m 4.284,4.032 0.144,-0.036 0.18,-0.036 m 0.756,0.252 0.216,-0.036 0.18,-0.036 m -0.792,-13.032 0.18,0.072 0.144,0.036 m -2.844,0.648 -0.288,0.18 m -2.196,2.916 -0.036,0.108 -0.036,0.216 m 0.036,4.896 0.108,0.288 0.144,0.072 m -0.072,0.18 0.072,-0.18 m -0.072,0.18 0.144,0.288 0.108,0.036 m -0.036,0.216 0.036,-0.216 m -0.036,0.216 0.144,0.252 0.144,0.036 m 0,0.18 v -0.18 m 0,0.18 0.18,0.252 0.144,0.036 m 0,0.18 v -0.18 m 0,0.18 0.216,0.252 0.18,-0.036 m 0,0.216 v -0.216 m 0,0.216 0.216,0.216 0.216,-0.036 m 0.036,0.18 -0.036,-0.18 m 0.036,0.18 0.288,0.18 H 482 m 0.036,0.18 -0.036,-0.18"
           style="fill:none;stroke:#231f20;stroke-width:0.499;stroke-linecap:round;stroke-linejoin:round;stroke-miterlimit:10;stroke-dasharray:none;stroke-opacity:1"
           id="path22573" />
        <path
           d="m 482.036,265.095 0.36,0.18 0.216,-0.072 m 0.072,0.216 -0.072,-0.216 m 0.072,0.216 0.396,0.108 0.288,-0.036 m 0.108,0.144 -0.108,-0.144 m 0.108,0.144 0.504,0.144 m 0.468,0.072 -0.144,-0.18 m 0.144,0.18 0.612,0.108 m 0.648,0.072 -0.252,-0.18 m 0.252,0.18 h 0.144 v -13.32 l -0.648,0.072 -0.216,0.18 m -0.324,-0.108 -0.576,0.108 -0.144,0.144 m -0.324,-0.072 0.324,0.072 m -0.324,-0.072 -0.432,0.144 -0.108,0.18 m -0.252,-0.072 0.252,0.072 m -0.252,-0.072 -0.396,0.18 -0.036,0.18 m -0.252,-0.072 0.252,0.072 m -0.54,0.108 -0.036,0.216 m -0.252,-0.036 0.252,0.036 m -0.252,-0.036 -0.252,0.18 v 0.216 m -0.216,-0.036 0.216,0.036 m -0.216,-0.036 -0.216,0.216 v 0.216 m -0.18,0 h 0.18 m -0.18,0 -0.18,0.216 v 0.216 m -0.144,0.036 0.144,-0.036 m -0.144,0.036 -0.18,0.216 0.036,0.216 m -0.144,0.036 0.144,-0.036 m -0.144,0.036 -0.144,0.288 0.036,0.18 m -0.144,0.036 0.144,-0.036 m -0.144,0.036 -0.108,0.288 0.072,0.18 m -0.144,0.072 0.144,-0.072 m -0.504,2.376 h -2.268 m 2.268,0.324 h -2.268 m 0,-0.324 v 0.324 m 2.376,0.144 h -2.376 v -0.144 m 2.268,0.288 h -2.268 m 0,-0.144 v 0.144 m 2.268,0.324 h -2.268 m 0,-0.324 v 0.324 m 2.376,-1.044 h -2.376 v 0.108 m 2.376,1.044 h -2.376 v -0.108 m 2.304,-1.512 h -2.304 m 2.268,0.324 h -2.268 m 0,-0.324 v 0.324 m 0,0.144 v -0.144 m 2.304,1.44 h -2.304 m 0,-0.144 v 0.144 m 2.304,0.324 h -2.304 m 0,-0.324 v 0.324 m 2.412,-2.196 h -2.412 v 0.108 m 2.448,2.196 h -2.448 v -0.108 m 2.376,-2.664 h -2.376 m 2.34,0.288 h -2.34 m 0,-0.288 v 0.288 m 0,0.18 v -0.18 m 2.376,2.664 h -2.376 m 0,-0.18 v 0.18"
           style="fill:none;stroke:#231f20;stroke-width:0.499;stroke-linecap:round;stroke-linejoin:round;stroke-miterlimit:10;stroke-dasharray:none;stroke-opacity:1"
           id="path22575" />
        <path
           d="m 479.444,261.099 h -2.412 m 0,-0.288 v 0.288 m 2.484,-3.348 h -2.484 v 0.108 m 2.52,3.348 h -2.52 v -0.108 m 2.484,-3.816 h -2.484 m 2.448,0.288 h -2.448 m 0,-0.288 v 0.288 m 0,0.18 v -0.18 m 2.484,3.816 h -2.484 m 0,-0.18 v 0.18 m 2.52,0.288 h -2.52 m 0,-0.288 v 0.288 m 2.592,-4.5 h -2.592 v 0.108 m 2.664,4.464 h -2.664 v -0.072 m 2.628,-4.968 h -2.628 m 2.556,0.288 h -2.556 m 0,-0.288 v 0.288 m 0,0.18 v -0.18 m 2.592,4.932 h -2.592 m 0,-0.18 v 0.18 m 2.7,0.288 h -2.7 m 0,-0.288 v 0.288 m 2.772,-5.58 h -2.772 v 0.072 m 2.844,5.58 h -2.844 v -0.072 m 2.808,-6.048 h -2.808 m 2.7,0.288 h -2.7 m 0,-0.288 v 0.288 m 0,0.18 v -0.18 m 2.772,6.012 h -2.772 m 0,-0.18 v 0.18 m 2.916,0.288 h -2.916 m 0,-0.288 v 0.288 m 2.952,-6.624 h -2.952 v 0.036 m 3.024,6.624 h -3.024 v -0.036 m 3.06,-7.092 h -3.06 m 2.916,0.288 h -2.916 m 0,-0.288 v 0.288 m 0,0.18 v -0.18 m 2.988,7.056 h -2.988 m 0,-0.216 v 0.216 m 3.132,0.252 h -3.132 m 0,-0.252 v 0.252 m 3.204,-7.632 h -3.204 v 0.036 m 3.276,7.632 h -3.276 v -0.036 m 3.348,-8.064 h -3.348 m 3.168,0.216 h -3.168 m 0,-0.216 v 0.216 m 0,0.216 v -0.216 m 3.276,8.064 h -3.276 m 0,-0.18 v 0.18 m 3.456,0.252 h -3.456 m 0,-0.252 v 0.252 m 3.492,-8.568 h -3.492 v 0.036 m 3.6,8.568 h -3.6 v -0.036 m 3.672,-9 h -3.672 m 3.492,0.216 h -3.492 m 0,-0.216 v 0.216 m 0,0.216 v -0.216"
           style="fill:none;stroke:#231f20;stroke-width:0.499;stroke-linecap:round;stroke-linejoin:round;stroke-miterlimit:10;stroke-dasharray:none;stroke-opacity:1"
           id="path22577" />
        <path
           d="m 480.632,263.943 h -3.6 m 0,-0.18 v 0.18 m 3.816,0.252 h -3.816 m 0,-0.252 v 0.252 m 3.852,-9.468 h -3.852 m 4.068,-0.432 h -4.068 m 3.852,0.216 h -3.852 m 0,-0.216 v 0.216 m 0,0.216 v -0.216 m 3.996,9.864 h -3.996 m 0,-0.18 v 0.18 m 4.212,0.216 h -4.212 m 0,-0.216 v 0.216 m 4.284,-10.476 h -4.284 m 0,0.18 v -0.18 m 4.536,-0.18 h -4.536 v 0.18 m 4.464,10.62 h -4.464 m 0,-0.144 v 0.144 m 4.752,0.18 h -4.752 m 0,-0.18 v 0.18 m 4.824,-11.16 h -4.824 m 0,0.18 v -0.18 m 5.112,-0.18 h -5.112 v 0.18 m 5.004,11.34 h -5.004 m 0,-0.18 v 0.18 m 5.364,0.18 h -5.364 m 0,-0.18 v 0.18 m 5.4,-11.808 h -5.4 m 0,0.108 v -0.108 m 5.796,-0.18 h -5.796 v 0.18 m 5.652,11.952 h -5.652 m 0,-0.144 v 0.144"
           style="fill:none;stroke:#231f20;stroke-width:0.499;stroke-linecap:round;stroke-linejoin:round;stroke-miterlimit:10;stroke-dasharray:none;stroke-opacity:1"
           id="path22579" />
        <path
           d="m 483.08,265.527 h -6.048 m 0,-0.108 v 0.108 m 6.156,-12.348 h -6.156 m 0,0.108 v -0.108 m 6.588,-0.144 h -6.588 v 0.144 m 6.444,12.456 h -6.444 m 0,-0.108 v 0.108 m 6.948,0.144 h -6.948 m 0,-0.144 v 0.144 m 7.056,-12.816 h -7.056 m 0,0.072 v -0.072 m 7.632,-0.108 h -7.632 v 0.108 m 7.416,12.888 h -7.416 m 0,-0.072 v 0.072 m 8.028,0.108 h -8.028 m 0,-0.108 v 0.108 m 8.172,-13.176 h -8.172 m 0,0.072 v -0.072 m 8.82,-0.072 h -8.82 v 0.072 m 8.676,13.248 h -0.468 m -0.9,0 h -7.308 m 0,-0.072 v 0.072 m 2.628,0.036 h -2.628 m 2.628,0 h 0.18 m 6.012,-0.036 v 0.036 h -6.012 m -2.808,-0.036 v 0.036 m 7.992,-13.428 h -7.992 m 0,0.072 v -0.072 m 8.82,-0.036 h -8.82 m 8.82,0 v 0.036 m -8.82,-0.036 v 0.036 m 0,13.428 v 0.036 m 8.82,-13.536 h -8.82 m 0,0.036 v -0.036 m 8.532,0 h -8.532 m 8.82,13.572 v 0.036 m -0.396,-13.644 h -8.424 m 0,0.036 v -0.036 m -265.439,81.255 h 258.958 v -1.008 H 211.593 Z m 0,-93.208 h 258.958 v 92.2 m -258.958,-92.2 v 92.2 m 258.958,-92.2 v -1.044 H 211.593 v 1.044 m 258.958,93.208 v 10.728 H 211.593 m 0,-10.728 v 10.728 M 470.551,231.218 H 211.593 m 258.958,0 v 8.316 m -258.958,-8.316 v 8.316 m 0,104.98 v 0.433 h 258.958 v -0.433 M 215.013,230.93 h 252.118 m -252.118,0 v 0.288 m 252.118,-0.288 v 0.288 m -252.118,-3.06 h 252.118 m -252.118,0 v 2.772 m 255.718,102.496 v 11.701 h 5.149 m 0,-11.701 v 11.701 m 0,-11.701 h -5.149 m 6.121,10.728 V 333.03 l -0.972,0.396"
           style="fill:none;stroke:#231f20;stroke-width:0.499;stroke-linecap:round;stroke-linejoin:round;stroke-miterlimit:10;stroke-dasharray:none;stroke-opacity:1"
           id="path22581" />
        <path
           d="m 476.852,344.154 -0.972,0.973 m -5.149,-105.269 h 5.149 v 93.568 m -5.149,-93.568 v 93.568 m 6.121,-0.396 v -92.776 l -0.972,-0.396 m -8.749,-11.7 v 2.772 m 3.6,0 h -3.6 m 8.749,-2.772 v 11.7 m 0,-11.7 h -8.749 m 3.6,2.772 v 8.928 m 6.121,0.396 V 229.13 m -0.972,-0.972 0.972,0.972 m -6.121,102.568 h -0.18 m 0,2.16 h 0.18 m -0.18,-92.236 h 0.18 m 0,-2.16 h -0.18 m 0.18,103.612 h -0.18 m 0.18,-108.58 h -0.18 m 0,109.48 h 0.18 m -264.466,1.153 v -11.701 l -0.972,-0.396 v 11.124 m 0.972,0.973 -0.972,-0.973 m 0.972,0.973 h 5.148 v -11.701 h -5.148 v -93.568 h 5.148 m 0,93.568 v -93.568 m -6.12,0.396 0.972,-0.396 m -0.972,0.396 v 92.776 m 9.72,-102.1 v -2.772 h -8.748 m 0,11.7 v -11.7 m 5.148,11.7 v -8.928 h 3.6 m -9.72,-1.8 v 11.124 m 0,-11.124 0.972,-0.972 m 5.328,103.54 h -0.18 m 0,-90.076 h 0.18 m -0.18,92.236 h 0.18 m 0,-94.396 h -0.18 m 0.18,103.612 h -0.18 m 0,-108.58 h 0.18 m -0.18,109.48 h 0.18 m -24.805,-56.918 v -0.072 l -0.576,-0.54 m 0.576,-0.54 -0.576,0.54 m 0.576,-0.54 v -0.072 l -0.576,-0.54 m 0.576,-0.576 -0.576,0.576 m 0.576,-0.576 v -0.036 l -0.576,-0.54 m 0.576,-0.576 -0.576,0.576 m 0.576,-0.576 v -0.072 l -0.576,-0.468 m 0.576,-0.612 -0.576,0.612 m 0.576,-0.612 v -0.072 l -0.576,-0.468 m 0.576,-0.612 -0.576,0.612 m 0.576,-0.612 v -0.072 l -0.576,-0.432 m 0.576,-0.648 -0.576,0.648 m 0.576,-0.648 v -0.072 l -0.576,-0.432 m 0.576,-0.648 -0.576,0.648 m 0.576,-0.648 v -0.036 l -0.576,-0.432 m 0.576,-0.648 -0.576,0.648 m 0.576,-0.648 v -0.072 l -0.576,-0.396 m 0.576,-0.648 -0.576,0.648 m 0.576,-0.648 v -0.072 l -0.576,-0.36"
           style="fill:none;stroke:#231f20;stroke-width:0.499;stroke-linecap:round;stroke-linejoin:round;stroke-miterlimit:10;stroke-dasharray:none;stroke-opacity:1"
           id="path22583" />
        <path
           d="m 186.788,275.572 -0.576,0.72 m 0.576,-0.72 v -0.036 l -0.576,-0.36 m 0.576,-0.684 -0.576,0.684 m 0.576,-0.684 v -0.073 l -0.576,-0.323 m 0.576,-0.721 -0.576,0.721 m 0.576,-0.721 v -0.036 l -0.576,-0.324 m 0.576,-0.684 -0.576,0.684 m 0.576,-0.684 v -0.072 l -0.576,-0.288 m 0.576,-0.72 -0.576,0.72 m 0.576,-0.72 v -0.072 l -0.576,-0.252 m 0.576,-0.72 -0.576,0.72 m 0.576,-0.72 v -0.072 l -0.576,-0.216 m 0.576,-0.756 -0.576,0.756 m 0.576,-0.756 v -0.072 l -0.576,-0.18 m 0.576,-0.756 -0.576,0.756 m 0.576,-0.756 v -0.072 l -0.576,-0.18 m 0.576,-0.756 -0.576,0.756 m 0.576,-0.756 v -0.072 l -0.576,-0.144 m 0.576,-0.756 -0.576,0.756 m 0.576,-0.756 v -0.072 l -0.576,-0.108 m 0.576,-0.792 -0.576,0.792 m 0.576,-0.792 v -0.036 l -0.576,-0.108 m 0.576,-0.792 -0.576,0.792 m 0.576,-4.32 h -0.576 m 0.576,-0.792 -0.468,0.684 -0.108,0.108 m 0.576,3.528 v -0.036 l -0.576,-0.108 m 0.576,-0.756 -0.576,0.756 m 0.576,-0.756 v -0.036 l -0.576,-0.072 m 0.576,-0.792 -0.576,0.756 m 0.576,-0.756 v -0.036 l -0.576,-0.036 m 0.576,-0.792 -0.576,0.756 m 0.576,-0.756 v -0.036 l -0.576,-0.036 m 0.576,-0.792 -0.576,0.792 m 0.576,-0.792 v -0.036 m 0,-0.756 v -0.036 h -0.576 m 0.576,-0.756 -0.576,0.756 m 0.576,-0.756 v -0.072 l -0.576,0.072 m 0.576,-0.792 -0.576,0.792 m 0.576,-0.792 v -0.036 l -0.576,0.072 m 0.576,-0.756 -0.576,0.756 m 0.576,-0.756 v -0.036 l -0.576,0.108 m 0.576,-0.792 -0.576,0.792 m 0.576,-0.792 v -0.036 l -0.576,0.144 m 0.576,-0.792 -0.576,0.792 m 0.576,-0.792 v -0.036 l -0.576,0.18 m 0.576,-0.792 -0.576,0.792 m 0.576,-0.792 v -0.036 l -0.576,0.18 m 0.576,-0.756 -0.576,0.756 m 0.576,-0.756 v -0.036 l -0.576,0.216 m 0.576,-0.756 -0.576,0.756 m 0.576,-0.756 v -0.036 l -0.576,0.216 m 0.576,-0.756 -0.576,0.756"
           style="fill:none;stroke:#231f20;stroke-width:0.499;stroke-linecap:round;stroke-linejoin:round;stroke-miterlimit:10;stroke-dasharray:none;stroke-opacity:1"
           id="path22585" />
        <path
           d="m 186.788,253.827 -0.576,0.216 m 0.576,-0.72 -0.576,0.72 m 0.576,-0.72 v -0.036 l -0.576,0.252 m 0.576,-0.72 -0.576,0.72 m 0.576,-0.72 v -0.036 l -0.576,0.324 m 0.576,-0.756 -0.576,0.756 m 0.576,-0.756 -0.576,0.324 m 0.576,-0.72 -0.576,0.72 m 0.576,-0.72 v -0.036 l -0.576,0.324 m 0.576,-0.684 -0.576,0.684 m 0.576,-0.684 v -0.036 l -0.576,0.36 m 0.576,-0.684 -0.576,0.684 m 0.576,-0.684 -0.576,0.36 m 0.576,-0.684 -0.576,0.684 m 0.576,-0.684 -0.576,0.396 m 0.576,-0.684 -0.576,0.684 m 0.576,-0.684 -0.576,0.432 m 0.576,-0.649 -0.576,0.649 m 0.576,-0.649 v -0.036 l -0.576,0.469 m 0.576,-0.649 -0.576,0.649 m 0.576,-0.649 v -0.036 l -0.576,0.468 m 0.576,-0.612 -0.576,0.613 m 0.576,-0.613 -0.576,0.468 m 0.576,-0.612 -0.576,0.612 m 0.576,-0.612 v -0.036 l -0.576,0.54 m 0.576,-0.612 -0.576,0.612 m 0.576,-0.612 -0.576,0.504 m 0.576,-0.576 -0.576,0.576 m 0.576,-0.576 -0.576,0.54 m 0.576,-0.576 -0.576,0.576 m 0.216,73.156 -0.216,-0.216 m 0.576,0.576 -0.576,-0.576"
           style="fill:none;stroke:#231f20;stroke-width:0.499;stroke-linecap:round;stroke-linejoin:round;stroke-miterlimit:10;stroke-dasharray:none;stroke-opacity:1"
           id="path22587" />
        <path
           d="m 186.788,323.706 -0.576,-0.612 m 0.576,0.54 -0.576,-0.54 m 0.576,0.54 -0.576,-0.576 m 0.576,0.504 -0.576,-0.504 m 0.576,0.504 -0.576,-0.612 m 0.576,0.504 -0.576,-0.504 m 0.576,0.504 -0.576,-0.612 m 0.576,-9.757 -0.468,-0.648 -0.108,-0.108 m 0.576,-0.036 -0.468,0.036 h -0.108 m 0.576,10.981 -0.576,-0.468 m 0.576,0.468 v -0.036 l -0.576,-0.612 m 0.576,0.432 -0.576,-0.432 m 0.576,0.432 -0.576,-0.648 m 0.576,0.432 -0.576,-0.432 m 0.576,0.432 -0.576,-0.684 m 0.576,0.432 -0.576,-0.432 m 0.576,0.432 v -0.036 l -0.576,-0.648 m 0.576,0.396 -0.576,-0.396 m 0.576,0.396 v -0.036 l -0.576,-0.685 m 0.576,0.397 -0.576,-0.396 m 0.576,0.396 v -0.036 l -0.576,-0.684 m 0.576,0.36 -0.576,-0.36 m 0.576,0.36 v -0.036 l -0.576,-0.721 m 0.576,0.324 -0.576,-0.324 m 0.576,0.324 -0.576,-0.72 m 0.576,0.288 -0.576,-0.288 m 0.576,0.288 -0.576,-0.756 m 0.576,0.288 -0.576,-0.288 m 0.576,0.288 -0.576,-0.756 m 0.576,0.288 -0.576,-0.288 m 0.576,0.288 v -0.036 l -0.576,-0.756 m 0.576,0.216 -0.576,-0.216 m 0.576,0.216 -0.576,-0.756 m 0.576,0.216 -0.576,-0.216 m 0.576,0.216 v -0.036 l -0.576,-0.756 m 0.576,0.18 -0.576,-0.18 m 0.576,0.18 -0.576,-0.792 m 0.576,0.18 -0.576,-0.18 m 0.576,0.18 v -0.036 l -0.576,-0.792 m 0.576,0.18 -0.576,-0.18 m 0.576,0.18 v -0.036 l -0.576,-0.792 m 0.576,0.108 -0.576,-0.108 m 0.576,0.108 v -0.036 l -0.576,-0.756 m 0.576,0.108 -0.576,-0.108 m 0.576,0.108 v -0.072 l -0.576,-0.756 m 0.576,0.072 -0.576,-0.072 m 0.576,0.072 v -0.036 l -0.576,-0.792 m 0.576,0.036 -0.576,-0.036 m 0.576,0.036 v -0.036 l -0.576,-0.792 m 0.576,0.036 -0.576,-0.036 m 0.576,0.036 v -0.036 m 0,-0.792 v -0.036 l -0.576,-0.792 m 0.576,-0.036 -0.576,0.036 m 0.576,-0.036 v -0.036 l -0.576,-0.792 m 0.576,-0.036 -0.576,0.036 m 0.576,-0.036 v -0.036 l -0.576,-0.792"
           style="fill:none;stroke:#231f20;stroke-width:0.499;stroke-linecap:round;stroke-linejoin:round;stroke-miterlimit:10;stroke-dasharray:none;stroke-opacity:1"
           id="path22589" />
        <path
           d="m 186.788,309.665 -0.576,0.072 m 0.576,-0.072 v -0.036 l -0.576,-0.792 m 0.576,-0.108 -0.576,0.108 m 0.576,-0.108 v -0.036 l -0.576,-0.756 m 0.576,-0.144 -0.576,0.144 m 0.576,-0.144 v -0.036 l -0.576,-0.756 m 0.576,-0.144 -0.576,0.144 m 0.576,-0.144 v -0.072 l -0.576,-0.756 m 0.576,-0.18 -0.576,0.18 m 0.576,-0.18 v -0.072 l -0.576,-0.756 m 0.576,-0.18 -0.576,0.18 m 0.576,-0.18 v -0.036 l -0.576,-0.756 m 0.576,-0.216 -0.576,0.216 m 0.576,-0.216 v -0.072 l -0.576,-0.72 m 0.576,-0.252 -0.576,0.252 m 0.576,-0.252 v -0.072 l -0.576,-0.72 m 0.576,-0.252 -0.576,0.252 m 0.576,-0.252 v -0.072 l -0.576,-0.72 m 0.576,-0.288 -0.576,0.288 m 0.576,-0.288 v -0.072 l -0.576,-0.72 m 0.576,-0.288 -0.576,0.288 m 0.576,-0.288 v -0.072 l -0.576,-0.684 m 0.576,-0.36 -0.576,0.36 m 0.576,-0.36 v -0.036 l -0.576,-0.721 m 0.576,-0.324 -0.576,0.324 m 0.576,-0.324 v -0.072 l -0.576,-0.684 m 0.576,-0.396 -0.576,0.396 m 0.576,-0.396 V 296.2 l -0.576,-0.684 m 0.576,-0.396 -0.576,0.396 m 0.576,-0.396 v -0.072 l -0.576,-0.648 m 0.576,-0.396 -0.576,0.396 m 0.576,-0.396 v -0.072 l -0.576,-0.648 m 0.576,-0.432 -0.576,0.432 m 0.576,-0.432 v -0.072 l -0.576,-0.612 m 0.576,-0.468 -0.576,0.468 m 0.576,-0.468 v -0.072 l -0.576,-0.612 m 0.576,-0.468 -0.576,0.468 m 0.576,-0.468 v -0.072 l -0.576,-0.612 m 0.576,-0.504 -0.576,0.504 m 0.576,-0.504 v -0.036 l -0.576,-0.576 m 0.576,-0.54 -0.576,0.54 m 0.576,-0.54 v -0.072 l -0.576,-0.54 m 0.576,-0.54 -0.576,0.54 m -0.396,-37.009 v 72.111 m 19.405,-35.642 h -18.433 m 18.433,0.54 h -19.009 m 19.009,0 v -0.54 m 0,-0.072 h -18.433 m 18.433,0 v 0.072 m 0,-0.612 h -19.009 m 19.009,0 v 0.54 m 0,-0.54 v -0.54 h -18.433 m 18.433,-0.072 h -18.433"
           style="fill:none;stroke:#231f20;stroke-width:0.499;stroke-linecap:round;stroke-linejoin:round;stroke-miterlimit:10;stroke-dasharray:none;stroke-opacity:1"
           id="path22591" />
        <path
           d="m 205.221,285.832 v 0.072 m 0,-0.612 h -19.009 m 19.009,0 v 0.54 m 0,2.376 h -18.433 m 18.433,0.54 h -19.009 m 19.009,0 v -0.54 m 0,-0.072 h -18.433 m 18.433,-0.54 v 0.612 m 0,-2.916 v -0.576 h -18.433 m 18.433,-0.036 h -18.433 m 18.433,0 v 0.036 m 0,-0.576 h -19.009 m 19.009,0 v 0.54 m 0,4.68 h -18.433 m 18.433,-0.036 h -18.433 m 18.433,-0.576 v 0.612 m 0,0.504 h -19.009 m 19.009,0 v -0.504 m 0,-5.22 v -0.576 h -18.433 m 18.433,-0.072 h -18.433 m 18.433,0.036 v 0.036 m 0,-0.54 h -19.009 m 19.009,0 v 0.468 m 0,7.056 h -18.433 m 18.433,-0.072 h -18.433 m 18.433,-0.612 v 0.684 m 0,0.468 h -19.009 m 19.009,0 v -0.468 m 0,-7.524 v -0.612 h -18.433 m 18.433,-0.072 h -18.433 m 18.433,0 v 0.072 m 0,-0.54 h -19.009 m 19.009,0 v 0.468 m 0,9.36 h -18.433 m 18.433,-0.072 h -18.433 m 18.433,-0.612 v 0.684 m 0,0.468 h -19.009 m 19.009,0 V 291.7 m 0,-9.828 v -0.612 h -18.433 m 18.433,-0.072 h -18.433 m 18.433,0 v 0.072 m 0,-0.504 h -19.009 m 19.009,0 v 0.432 m 0,11.664 h -18.433 m 18.433,-0.072 h -18.433 m 18.433,-0.612 v 0.684 m 0,0.432 h -19.009 m 19.009,0 v -0.432 m 0,-12.096 v -0.648 h -18.433 m 18.433,-0.072 h -18.433 m 18.433,0 v 0.072 m 0,-0.504 h -19.009 m 19.009,0 v 0.432 m 0,13.968 h -18.433 m 18.433,-0.072 h -18.433 m 18.433,-0.648 v 0.72 m 0,0.396 h -19.009 m 19.009,0 v -0.396 m 0,-14.4 v -0.648 h -18.433 m 18.433,-0.036 h -18.433 m 18.433,0 v 0.036"
           style="fill:none;stroke:#231f20;stroke-width:0.499;stroke-linecap:round;stroke-linejoin:round;stroke-miterlimit:10;stroke-dasharray:none;stroke-opacity:1"
           id="path22593" />
        <path
           d="m 205.221,278.488 h -19.009 m 19.009,0 v 0.432 m 0,16.2 h -18.433 m 18.433,-0.072 h -18.433 m 18.433,-0.648 v 0.72 m 0,0.396 h -19.009 m 19.009,0 v -0.396 m 0,-16.632 v -0.648 h -18.433 m 18.433,-0.072 h -18.433 m 18.433,0 v 0.072 m 0,-0.468 h -19.009 m 19.009,0 v 0.396 m 0,18.468 h -18.433 m 18.433,-0.036 h -18.433 m 18.433,-0.684 v 0.72 m 0,0.396 h -19.009 m 19.009,0 v -0.396 m 0,-18.864 v -0.648 h -18.433 m 18.433,-0.072 h -18.433 m 18.433,0 v 0.072 m 0,-0.432 h -19.009 m 19.009,0 v 0.36 m 0,20.736 h -18.433 m 18.433,-0.072 h -18.433 m 18.433,-0.684 v 0.756 m 0,0.324 h -19.009 m 19.009,0 v -0.324 m 0,-21.096 v -0.72 h -18.433 m 18.433,-0.036 h -18.433 m 18.433,0 v 0.036"
           style="fill:none;stroke:#231f20;stroke-width:0.499;stroke-linecap:round;stroke-linejoin:round;stroke-miterlimit:10;stroke-dasharray:none;stroke-opacity:1"
           id="path22595" />
        <path
           d="m 205.221,275.176 h -19.009 m 19.009,0 v 0.36 m 0,22.933 h -18.433 m 18.433,-0.036 h -18.433 m 18.433,-0.721 v 0.757 m 0,0.36 h -19.009 m 19.009,0 v -0.36 m 0,-23.293 v -0.684 h -18.433 m 18.433,-0.073 h -18.433 m 18.433,0 v 0.073 m 0,-0.396 h -19.009 m 19.009,0 v 0.323 m 0,25.166 h -18.433 m 18.433,-0.072 h -18.433 m 18.433,-0.684 v 0.756 m 0,0.288 h -19.009 m 19.009,0 v -0.288 m 0,-25.489 v -0.721 h -18.433 m 18.433,-0.036 h -18.433 m 18.433,0 v 0.036 m 0,-0.36 h -19.009 m 19.009,0 v 0.324 m 0,27.326 h -18.433 m 18.433,-0.072 h -18.433 m 18.433,-0.72 v 0.792 m 0,0.288 h -19.009 m 19.009,0 v -0.288 m 0,-27.65 v -0.684 h -18.433 m 18.433,-0.072 h -18.433 m 18.433,0 v 0.072 m 0,-0.36 h -19.009 m 19.009,0 v 0.288 m 0,29.486 h -18.433 m 18.433,-0.072 h -18.433 m 18.433,-0.72 v 0.792 m 0,0.252 h -19.009 m 19.009,0 v -0.252 m 0,-29.774 v -0.72 h -18.433 m 18.433,-0.072 h -18.433 m 18.433,0 v 0.072 m 0,-0.324 h -19.009 m 19.009,0 v 0.252 m 0,31.61 h -18.433 m 18.433,-0.072 h -18.433 m 18.433,-0.72 v 0.792 m 0,0.252 h -19.009 m 19.009,0 v -0.252 m 0,-31.862 v -0.72 h -18.433 m 18.433,-0.072 h -18.433 m 18.433,0 v 0.072 m 0,-0.288 h -19.009 m 19.009,0 v 0.216 m 0,33.698 h -18.433 m 18.433,-0.072 h -18.433 m 18.433,-0.72 v 0.792 m 0,0.216 h -19.009 m 19.009,0 v -0.216 m 0,-33.914 v -0.756 h -18.433 m 18.433,-0.072 h -18.433 m 18.433,0 v 0.072 m 0,-0.252 h -19.009"
           style="fill:none;stroke:#231f20;stroke-width:0.499;stroke-linecap:round;stroke-linejoin:round;stroke-miterlimit:10;stroke-dasharray:none;stroke-opacity:1"
           id="path22597" />
        <path
           d="m 205.221,268.911 v 0.18 m 0,35.75 h -18.433 m 18.433,-0.036 h -18.433 m 18.433,-0.756 v 0.792 m 0,0.18 h -19.009 m 19.009,0 v -0.18 m 0,-35.93 v -0.756 h -18.433 m 18.433,-0.072 h -18.433 m 18.433,0 v 0.072 m 0,-0.252 h -19.009 m 19.009,0 v 0.18 m 0,37.766 h -18.433 m 18.433,-0.072 h -18.433 m 18.433,-0.756 v 0.828 m 0,0.18 h -19.009 m 19.009,0 v -0.18 m 0,-37.946 v -0.756 h -18.433 m 18.433,-0.072 h -18.433 m 18.433,0 v 0.072 m 0,-0.216 h -19.009 m 19.009,0 v 0.144 m 0,39.782 h -18.433 m 18.433,-0.072 h -18.433 m 18.433,-0.756 v 0.828 m 0,0.144 h -19.009 m 19.009,0 v -0.144 m 0,-39.926 v -0.756 h -18.433 m 18.433,-0.072 h -18.433 m 18.433,0 v 0.072 m 0,-0.18 h -19.009 m 19.009,0 v 0.108 m 0,41.69 h -18.433 m 18.433,-0.036 h -18.433 m 18.433,-0.756 v 0.792 m 0,0.144 h -19.009 m 19.009,0 v -0.144 m 0,-41.798 v -0.792 h -18.433 m 18.433,-0.036 h -18.433 m 18.433,0 v 0.036 m 0,-0.144 h -19.009 m 19.009,0 v 0.108 m 0,43.562 h -18.433 m 18.433,-0.036 h -18.433 m 18.433,-0.756 v 0.792 m 0,0.108 h -19.009 m 19.009,0 v -0.108 m 0,-43.67 v -0.792 h -18.433 m 18.433,-0.036 h -18.433 m 18.433,0 v 0.036 m 0,-0.144 h -19.009 m 19.009,0 v 0.108 m 0,45.434 h -18.433 m 18.433,-0.036 h -18.433 m 18.433,-0.792 v 0.828 m 0,0.072 h -19.009 m 19.009,0 v -0.072 m 0,-45.542 v -0.756 h -18.433 m 18.433,-0.036 h -18.433 m 18.433,0 v 0.036 m 0,-0.144 h -19.009 m 19.009,0.036 v 0.072"
           style="fill:none;stroke:#231f20;stroke-width:0.499;stroke-linecap:round;stroke-linejoin:round;stroke-miterlimit:10;stroke-dasharray:none;stroke-opacity:1"
           id="path22599" />
        <path
           d="m 205.221,310.565 h -18.433 m 18.433,-0.036 h -18.433 m 18.433,-0.792 v 0.828 m 0,0.036 h -19.009 m 19.009,0 v -0.036 m 0,-47.342 v -0.756 h -18.433 m 18.433,-0.036 h -18.433 m 18.433,0 v 0.036 m 0,-0.108 h -19.009 m 19.009,0.036 v 0.036 m 0,48.998 h -18.433 m 18.433,-0.036 h -18.433 m 18.433,-0.792 v 0.828 m 0,0.036 h -19.009 m 19.009,0 v -0.036 m 0,-49.07 v -0.756 h -18.433 m 18.433,-0.036 h -18.433 m 18.433,0 v 0.036 m 0,-0.072 h -19.009 m 19.009,0 v 0.036 m 0,50.726 h -18.433 m 18.433,-0.036 h -18.433 m 18.433,-0.792 v 0.828 h -19.009 m 19.009,-50.762 v -0.792 h -18.433 m 18.433,-0.036 h -18.433 m 18.433,0 v 0.036 m 0,52.382 h -18.433 m 18.433,-0.036 h -18.433 m 18.433,-0.792 v 0.828 m 0,-52.418 v -0.756 h -18.433 m 18.433,-0.036 h -18.433 m 18.433,0 v 0.036 m 0,53.174 v 0.756 h -18.433 m 18.433,0 v 0.036 h -18.433 m 18.433,-54.002 v -0.756 h -18.433 m 18.433,-0.072 h -18.433 m 18.433,0 v 0.072 m 0,54.758 v 0.756 h -18.433 m 18.433,0 v 0.036 h -18.433 m 18.433,-55.622 v -0.72 h -18.433 m 18.433,-0.036 h -18.433 m 18.433,0 v 0.036 m 0,56.342 v 0.684 h -18.433 m 18.433,0 v 0.072 h -18.433 m 18.433,-57.134 v -0.684 h -18.433 m 18.433,-0.036 h -18.433 m 18.433,0 v 0.036 m 0,57.818 v 0.648 h -18.433 m 18.433,0 v 0.036 h -18.433 m 18.433,-58.538 v -0.684 h -18.433 m 18.433,-0.036 h -18.433 m 18.433,0 v 0.036 m 0,59.222 v 0.684 h -18.433 m 18.433,0 v 0.036 h -18.433"
           style="fill:none;stroke:#231f20;stroke-width:0.499;stroke-linecap:round;stroke-linejoin:round;stroke-miterlimit:10;stroke-dasharray:none;stroke-opacity:1"
           id="path22601" />
        <path
           d="m 205.221,256.887 v -0.648 h -18.433 m 18.433,-0.036 h -18.433 m 18.433,0 v 0.036 m 0,60.626 v 0.612 h -18.433 m 18.433,0 v 0.036 h -18.433 m 18.433,-61.31 v -0.612 h -18.433 m 18.433,-0.036 h -18.433 m 18.433,0 v 0.036 m 0,61.922 v 0.612 h -18.433 m 18.433,0 h -18.433 m 18.433,-62.57 v -0.576 h -18.433 m 18.433,-0.036 h -18.433 m 18.433,0 v 0.036 m 0,63.146 v 0.576 h -18.433 m 18.433,0 v 0.036 h -18.433 m 18.433,-63.794 v -0.54 h -18.433 m 18.433,-0.036 h -18.433 m 18.433,0 v 0.036 m 0,64.334 v 0.54 h -18.433 m 18.433,0 h -18.433 m 18.433,-64.91 v -0.54 h -18.433 m 18.433,0 h -18.433"
           style="fill:none;stroke:#231f20;stroke-width:0.499;stroke-linecap:round;stroke-linejoin:round;stroke-miterlimit:10;stroke-dasharray:none;stroke-opacity:1"
           id="path22603" />
        <path
           d="m 205.221,319.277 v 0.54 h -18.433 m 18.433,0 v 0.036 h -18.433 m 18.433,-66.026 v -0.504 h -18.433 m 18.433,-0.036 h -18.433 m 18.433,0 v 0.036 m 0,66.53 v 0.468 h -18.433 m 18.433,0 h -18.433 m 18.433,-67.034 v -0.468 h -18.433 m 18.433,-0.036 h -18.433 m 18.433,0 v 0.036 m 0,67.502 v 0.468 h -18.433 m 18.433,0 h -18.433 m 18.433,-68.006 v -0.432 h -18.433 m 18.433,0 h -18.433 m 18.433,68.438 v 0.432 h -18.433 m 18.433,0 h -9.109 m -0.54,0 h -8.784 m 18.433,-68.87 v -0.396 h -18.433 m 18.433,-0.036 h -18.433 m 18.433,0 v 0.036 m 0,69.662 h -8.209 m -2.376,0 h -7.848 m 18.433,-0.396 v 0.396 m 0,0.037 h -8.209 m -2.376,0 h -7.848 m 18.433,-0.037 v 0.037 m 0,-69.735 v -0.36 h -18.433 m 18.433,-0.036 h -18.433 m 18.433,0 v 0.036 m 0,70.419 h -7.741 m -3.204,0 h -7.488 m 18.433,-0.324 v 0.324 m 0,0.036 h -7.705 m -3.24,0 h -7.488 m 18.433,-0.036 v 0.036 m 0,-70.491 v -0.324 h -18.433 m 18.433,0 h -18.433 m 18.433,71.103 h -7.237 m -3.888,0 h -7.308 m 18.433,-0.288 v 0.288 m 0,0.036 h -7.201 m -3.924,0 h -7.308 m 18.433,-0.036 v 0.036 m 0,-71.139 v -0.324 h -18.433 m 18.433,0 h -18.433 m 18.433,71.715 h -6.769 m -4.5,0 h -7.164 m 18.433,-0.252 v 0.252 m 0,0.036 h -6.733 m -4.536,0 h -7.164 m 18.433,-0.036 v 0.036 m 0,-71.751 v -0.288 h -18.433 m 18.433,0 h -18.433 m 18.433,72.291 h -6.265 m -5.112,0 h -7.056"
           style="fill:none;stroke:#231f20;stroke-width:0.499;stroke-linecap:round;stroke-linejoin:round;stroke-miterlimit:10;stroke-dasharray:none;stroke-opacity:1"
           id="path22605" />
        <path
           d="m 205.221,322.626 v 0.252 m 0,-72.291 v -0.217 h -18.433 m 18.433,72.508 h -6.265 m -5.148,0 h -7.02 m -5.04,-41.69 0.612,0.072 0.54,0.072 m 0,3.852 0.072,-0.432 -0.072,-3.384 m -1.152,3.672 0.612,0.072 0.54,0.072 m -38.234,0 h 0.036 l 1.152,-0.144 m -1.188,-3.672 -0.036,3.384 0.036,0.432 m 0,-3.852 h 0.036 l 1.152,-0.144 m 59.367,-30.854 h -18.433 m 18.433,0 v 0.036 m 0,72.724 h -5.797 m -5.688,0 h -6.948 m 18.433,-0.216 v 0.216 m 0,-72.76 v -0.18 h -18.433 m 18.433,72.94 h -5.797 m -5.688,0 h -6.948 m 18.433,-72.976 h -18.433 m 18.433,0 v 0.036 m 0,73.12 h -5.364 m -6.193,0 h -6.876 m 18.433,-0.18 v 0.18 m 0,-73.156 v -0.144 h -18.433 m 18.433,73.336 h -5.364 m -6.193,0 h -6.876 m 18.433,-0.036 v 0.036 m 0,-73.336 h -18.433 m 18.433,73.48 h -4.968 m -6.625,0 h -6.84 m 18.433,-0.144 v 0.144 m 0,-73.48 v -0.144 h -18.433 m 18.433,73.624 h -4.968 m -6.625,0 h -6.84 m 18.433,-73.66 h -18.433 m 18.433,0 v 0.036 m 0,73.732 h -4.68 m -6.985,0 h -6.768 m 18.433,-0.108 v 0.108 m 0,-73.768 v -0.072 h -18.433 m 18.433,73.84 h -4.644 m -7.021,0 h -6.768 m 18.433,-73.84 h -18.433 m 18.433,73.912 h -4.392 m -7.273,0 h -6.768 m 18.433,-0.072 v 0.072 m 0,-73.912 v -0.072 h -18.433 m 18.433,73.984 h -4.392 m -7.273,0 h -6.768 m 18.433,-73.984 h -18.433 m 18.433,74.056 h -4.284 m -7.417,0 h -6.732 m 18.433,-0.072 v 0.072 m 0,-74.056 v -0.036 h -18.433 m 18.433,74.092 h -4.248"
           style="fill:none;stroke:#231f20;stroke-width:0.499;stroke-linecap:round;stroke-linejoin:round;stroke-miterlimit:10;stroke-dasharray:none;stroke-opacity:1"
           id="path22607" />
        <path
           d="m 193.52,323.706 h -6.732 m 18.433,-74.092 h -18.433 m 18.433,74.092 h -4.248 m -7.453,0 h -6.732 m -5.04,-28.046 1.152,-0.324 m -1.152,0.324 v 6.085 l 1.152,-0.792 m -1.152,3.78 1.152,-0.792 v -2.988 m -1.152,3.78 v 4.248 l 1.152,-1.08 m -1.152,2.772 1.152,-1.08 v -1.692 m -1.152,2.772 v 1.656 l 1.152,-1.188 m 0,0.108 v -0.108 m -1.152,1.332 1.152,-1.188 m -1.152,-50.474 v 0.144 l 1.152,1.188 m -1.152,-0.504 1.152,1.152 v -0.648 m -1.152,-0.504 v 2.592 l 1.152,0.972 m -1.152,1.224 1.152,0.972 v -2.196 m -1.152,1.224 v 4.932 l 1.152,0.648 m -1.152,2.665 1.152,0.648 v -3.313 m -1.152,2.665 v 6.48 m 0,3.888 v 6.876 l 1.152,-0.36 m 0,3.78 v -3.78 m 0.288,-29.269 v 48.746 m -37.334,-29.881 v -6.48 m -1.188,-2.665 v 3.313 l 1.188,-0.648 m -1.188,-2.665 1.188,-0.648 v -4.932 m -1.188,-1.224 v 2.196 l 1.188,-0.972 m -1.188,-1.224 1.188,-0.972 v -2.592 m -1.188,0.504 v 0.648 l 1.188,-1.152 m -1.188,0.504 1.188,-1.188 v -0.144 m -1.188,50.474 1.188,1.188 m -1.188,-1.332 v 0.108 m 0,-0.108 1.188,1.188 v -1.656 m -1.188,-2.772 v 1.692 l 1.188,1.08 m -1.188,-2.772 1.188,1.08 v -4.248 m -1.188,-3.78 v 2.988 l 1.188,0.792 m -1.188,-3.78 1.188,0.792 v -6.085 m -1.188,-4.104 v 3.78 l 1.188,0.324 m -1.188,-4.104 1.188,0.36 v -6.876 m -1.44,-22.753 v 48.746 m 37.334,-25.993 h -35.894 m 35.894,6.876 h -35.894 m 35.894,-10.764 h -35.894 m 37.046,0.18 h -38.234 m 37.082,-6.66 h -35.894 m 35.894,27.073 h -35.894 m 35.894,-6.085 H 145.854 M 182.9,295.336 H 144.666 M 182.9,272.007 h -38.234 m 37.082,-0.648 h -35.894 m 35.894,-4.932 h -35.894 m 37.046,37.514 h -38.234"
           style="fill:none;stroke:#231f20;stroke-width:0.499;stroke-linecap:round;stroke-linejoin:round;stroke-miterlimit:10;stroke-dasharray:none;stroke-opacity:1"
           id="path22609" />
        <path
           d="m 181.748,308.981 h -35.894 m 35.894,-4.248 h -35.894 m 37.046,-39.53 h -38.234 m 37.082,-0.972 h -35.894 m 35.894,-2.592 h -35.894 m 37.046,47.954 h -38.234 m 37.082,2.736 h -35.894 m 35.894,-1.656 h -35.894 m 37.046,-48.53 h -0.648 m -36.902,0 h -0.684 m 38.234,49.142 h -0.108 m -37.982,0 h -0.144 m 37.082,-50.33 h -35.894 m 35.894,51.518 h -35.894 m 58.467,11.701 v 8.784 m 0.216,-0.504 v -7.776 m 0.468,7.308 v -6.84 m 280.019,-59.007 h -7.992 m 8.82,0.072 h -8.82 m 8.82,0 v -0.072 m -8.82,0.072 v -0.072 m 8.82,0.072 h -8.82 m 8.532,0.036 h -8.532 v -0.036 m 8.424,0.036 h -8.424"
           style="fill:none;stroke:#231f20;stroke-width:0.499;stroke-linecap:round;stroke-linejoin:round;stroke-miterlimit:10;stroke-dasharray:none;stroke-opacity:1"
           id="path22611" />
        <path
           d="M 264.983,309.989 H 287.16 V 265.131 H 264.983 Z"
           style="fill:#ffffff;fill-opacity:1;fill-rule:evenodd;stroke:#231f20;stroke-width:0.499;stroke-linecap:round;stroke-linejoin:round;stroke-miterlimit:10;stroke-dasharray:none;stroke-opacity:1"
           id="path22613" />
        <path
           d="m 218.217,309.989 h 42.014 v -44.858 h -42.014 z"
           style="fill:#ffffff;fill-opacity:1;fill-rule:evenodd;stroke:#231f20;stroke-width:0.499;stroke-linecap:round;stroke-linejoin:round;stroke-miterlimit:10;stroke-dasharray:none;stroke-opacity:1"
           id="path22615" />
        <path
           d="m 293.316,309.989 h 22.177 v -44.858 h -22.177 z"
           style="fill:#ffffff;fill-opacity:1;fill-rule:evenodd;stroke:#231f20;stroke-width:0.499;stroke-linecap:round;stroke-linejoin:round;stroke-miterlimit:10;stroke-dasharray:none;stroke-opacity:1"
           id="path22617" />
      </g>
    </g>
  </g>
</svg>
